G04 #@! TF.GenerationSoftware,KiCad,Pcbnew,(5.1.4)-1*
G04 #@! TF.CreationDate,2019-09-26T17:39:29-04:00*
G04 #@! TF.ProjectId,samd21-board,73616d64-3231-42d6-926f-6172642e6b69,rev?*
G04 #@! TF.SameCoordinates,Original*
G04 #@! TF.FileFunction,Soldermask,Bot*
G04 #@! TF.FilePolarity,Negative*
%FSLAX46Y46*%
G04 Gerber Fmt 4.6, Leading zero omitted, Abs format (unit mm)*
G04 Created by KiCad (PCBNEW (5.1.4)-1) date 2019-09-26 17:39:29*
%MOMM*%
%LPD*%
G04 APERTURE LIST*
%ADD10C,0.100000*%
G04 APERTURE END LIST*
D10*
G36*
X78088443Y-97149519D02*
G01*
X78154627Y-97156037D01*
X78324466Y-97207557D01*
X78480991Y-97291222D01*
X78516729Y-97320552D01*
X78618186Y-97403814D01*
X78701448Y-97505271D01*
X78730778Y-97541009D01*
X78814443Y-97697534D01*
X78865963Y-97867373D01*
X78883359Y-98044000D01*
X78865963Y-98220627D01*
X78814443Y-98390466D01*
X78730778Y-98546991D01*
X78701448Y-98582729D01*
X78618186Y-98684186D01*
X78516729Y-98767448D01*
X78480991Y-98796778D01*
X78324466Y-98880443D01*
X78154627Y-98931963D01*
X78088443Y-98938481D01*
X78022260Y-98945000D01*
X77933740Y-98945000D01*
X77867558Y-98938482D01*
X77801373Y-98931963D01*
X77631534Y-98880443D01*
X77475009Y-98796778D01*
X77439271Y-98767448D01*
X77337814Y-98684186D01*
X77254552Y-98582729D01*
X77225222Y-98546991D01*
X77141557Y-98390466D01*
X77090037Y-98220627D01*
X77072641Y-98044000D01*
X77090037Y-97867373D01*
X77141557Y-97697534D01*
X77225222Y-97541009D01*
X77254552Y-97505271D01*
X77337814Y-97403814D01*
X77439271Y-97320552D01*
X77475009Y-97291222D01*
X77631534Y-97207557D01*
X77801373Y-97156037D01*
X77867557Y-97149519D01*
X77933740Y-97143000D01*
X78022260Y-97143000D01*
X78088443Y-97149519D01*
X78088443Y-97149519D01*
G37*
G36*
X93328443Y-97149519D02*
G01*
X93394627Y-97156037D01*
X93564466Y-97207557D01*
X93720991Y-97291222D01*
X93756729Y-97320552D01*
X93858186Y-97403814D01*
X93941448Y-97505271D01*
X93970778Y-97541009D01*
X94054443Y-97697534D01*
X94105963Y-97867373D01*
X94123359Y-98044000D01*
X94105963Y-98220627D01*
X94054443Y-98390466D01*
X93970778Y-98546991D01*
X93941448Y-98582729D01*
X93858186Y-98684186D01*
X93756729Y-98767448D01*
X93720991Y-98796778D01*
X93564466Y-98880443D01*
X93394627Y-98931963D01*
X93328443Y-98938481D01*
X93262260Y-98945000D01*
X93173740Y-98945000D01*
X93107558Y-98938482D01*
X93041373Y-98931963D01*
X92871534Y-98880443D01*
X92715009Y-98796778D01*
X92679271Y-98767448D01*
X92577814Y-98684186D01*
X92494552Y-98582729D01*
X92465222Y-98546991D01*
X92381557Y-98390466D01*
X92330037Y-98220627D01*
X92312641Y-98044000D01*
X92330037Y-97867373D01*
X92381557Y-97697534D01*
X92465222Y-97541009D01*
X92494552Y-97505271D01*
X92577814Y-97403814D01*
X92679271Y-97320552D01*
X92715009Y-97291222D01*
X92871534Y-97207557D01*
X93041373Y-97156037D01*
X93107558Y-97149518D01*
X93173740Y-97143000D01*
X93262260Y-97143000D01*
X93328443Y-97149519D01*
X93328443Y-97149519D01*
G37*
G36*
X96659000Y-98945000D02*
G01*
X94857000Y-98945000D01*
X94857000Y-97143000D01*
X96659000Y-97143000D01*
X96659000Y-98945000D01*
X96659000Y-98945000D01*
G37*
G36*
X90788443Y-97149519D02*
G01*
X90854627Y-97156037D01*
X91024466Y-97207557D01*
X91180991Y-97291222D01*
X91216729Y-97320552D01*
X91318186Y-97403814D01*
X91401448Y-97505271D01*
X91430778Y-97541009D01*
X91514443Y-97697534D01*
X91565963Y-97867373D01*
X91583359Y-98044000D01*
X91565963Y-98220627D01*
X91514443Y-98390466D01*
X91430778Y-98546991D01*
X91401448Y-98582729D01*
X91318186Y-98684186D01*
X91216729Y-98767448D01*
X91180991Y-98796778D01*
X91024466Y-98880443D01*
X90854627Y-98931963D01*
X90788443Y-98938481D01*
X90722260Y-98945000D01*
X90633740Y-98945000D01*
X90567558Y-98938482D01*
X90501373Y-98931963D01*
X90331534Y-98880443D01*
X90175009Y-98796778D01*
X90139271Y-98767448D01*
X90037814Y-98684186D01*
X89954552Y-98582729D01*
X89925222Y-98546991D01*
X89841557Y-98390466D01*
X89790037Y-98220627D01*
X89772641Y-98044000D01*
X89790037Y-97867373D01*
X89841557Y-97697534D01*
X89925222Y-97541009D01*
X89954552Y-97505271D01*
X90037814Y-97403814D01*
X90139271Y-97320552D01*
X90175009Y-97291222D01*
X90331534Y-97207557D01*
X90501373Y-97156037D01*
X90567558Y-97149518D01*
X90633740Y-97143000D01*
X90722260Y-97143000D01*
X90788443Y-97149519D01*
X90788443Y-97149519D01*
G37*
G36*
X88248443Y-97149519D02*
G01*
X88314627Y-97156037D01*
X88484466Y-97207557D01*
X88640991Y-97291222D01*
X88676729Y-97320552D01*
X88778186Y-97403814D01*
X88861448Y-97505271D01*
X88890778Y-97541009D01*
X88974443Y-97697534D01*
X89025963Y-97867373D01*
X89043359Y-98044000D01*
X89025963Y-98220627D01*
X88974443Y-98390466D01*
X88890778Y-98546991D01*
X88861448Y-98582729D01*
X88778186Y-98684186D01*
X88676729Y-98767448D01*
X88640991Y-98796778D01*
X88484466Y-98880443D01*
X88314627Y-98931963D01*
X88248443Y-98938481D01*
X88182260Y-98945000D01*
X88093740Y-98945000D01*
X88027558Y-98938482D01*
X87961373Y-98931963D01*
X87791534Y-98880443D01*
X87635009Y-98796778D01*
X87599271Y-98767448D01*
X87497814Y-98684186D01*
X87414552Y-98582729D01*
X87385222Y-98546991D01*
X87301557Y-98390466D01*
X87250037Y-98220627D01*
X87232641Y-98044000D01*
X87250037Y-97867373D01*
X87301557Y-97697534D01*
X87385222Y-97541009D01*
X87414552Y-97505271D01*
X87497814Y-97403814D01*
X87599271Y-97320552D01*
X87635009Y-97291222D01*
X87791534Y-97207557D01*
X87961373Y-97156037D01*
X88027558Y-97149518D01*
X88093740Y-97143000D01*
X88182260Y-97143000D01*
X88248443Y-97149519D01*
X88248443Y-97149519D01*
G37*
G36*
X85708443Y-97149519D02*
G01*
X85774627Y-97156037D01*
X85944466Y-97207557D01*
X86100991Y-97291222D01*
X86136729Y-97320552D01*
X86238186Y-97403814D01*
X86321448Y-97505271D01*
X86350778Y-97541009D01*
X86434443Y-97697534D01*
X86485963Y-97867373D01*
X86503359Y-98044000D01*
X86485963Y-98220627D01*
X86434443Y-98390466D01*
X86350778Y-98546991D01*
X86321448Y-98582729D01*
X86238186Y-98684186D01*
X86136729Y-98767448D01*
X86100991Y-98796778D01*
X85944466Y-98880443D01*
X85774627Y-98931963D01*
X85708443Y-98938481D01*
X85642260Y-98945000D01*
X85553740Y-98945000D01*
X85487558Y-98938482D01*
X85421373Y-98931963D01*
X85251534Y-98880443D01*
X85095009Y-98796778D01*
X85059271Y-98767448D01*
X84957814Y-98684186D01*
X84874552Y-98582729D01*
X84845222Y-98546991D01*
X84761557Y-98390466D01*
X84710037Y-98220627D01*
X84692641Y-98044000D01*
X84710037Y-97867373D01*
X84761557Y-97697534D01*
X84845222Y-97541009D01*
X84874552Y-97505271D01*
X84957814Y-97403814D01*
X85059271Y-97320552D01*
X85095009Y-97291222D01*
X85251534Y-97207557D01*
X85421373Y-97156037D01*
X85487557Y-97149519D01*
X85553740Y-97143000D01*
X85642260Y-97143000D01*
X85708443Y-97149519D01*
X85708443Y-97149519D01*
G37*
G36*
X83168443Y-97149519D02*
G01*
X83234627Y-97156037D01*
X83404466Y-97207557D01*
X83560991Y-97291222D01*
X83596729Y-97320552D01*
X83698186Y-97403814D01*
X83781448Y-97505271D01*
X83810778Y-97541009D01*
X83894443Y-97697534D01*
X83945963Y-97867373D01*
X83963359Y-98044000D01*
X83945963Y-98220627D01*
X83894443Y-98390466D01*
X83810778Y-98546991D01*
X83781448Y-98582729D01*
X83698186Y-98684186D01*
X83596729Y-98767448D01*
X83560991Y-98796778D01*
X83404466Y-98880443D01*
X83234627Y-98931963D01*
X83168443Y-98938481D01*
X83102260Y-98945000D01*
X83013740Y-98945000D01*
X82947558Y-98938482D01*
X82881373Y-98931963D01*
X82711534Y-98880443D01*
X82555009Y-98796778D01*
X82519271Y-98767448D01*
X82417814Y-98684186D01*
X82334552Y-98582729D01*
X82305222Y-98546991D01*
X82221557Y-98390466D01*
X82170037Y-98220627D01*
X82152641Y-98044000D01*
X82170037Y-97867373D01*
X82221557Y-97697534D01*
X82305222Y-97541009D01*
X82334552Y-97505271D01*
X82417814Y-97403814D01*
X82519271Y-97320552D01*
X82555009Y-97291222D01*
X82711534Y-97207557D01*
X82881373Y-97156037D01*
X82947557Y-97149519D01*
X83013740Y-97143000D01*
X83102260Y-97143000D01*
X83168443Y-97149519D01*
X83168443Y-97149519D01*
G37*
G36*
X80628443Y-97149519D02*
G01*
X80694627Y-97156037D01*
X80864466Y-97207557D01*
X81020991Y-97291222D01*
X81056729Y-97320552D01*
X81158186Y-97403814D01*
X81241448Y-97505271D01*
X81270778Y-97541009D01*
X81354443Y-97697534D01*
X81405963Y-97867373D01*
X81423359Y-98044000D01*
X81405963Y-98220627D01*
X81354443Y-98390466D01*
X81270778Y-98546991D01*
X81241448Y-98582729D01*
X81158186Y-98684186D01*
X81056729Y-98767448D01*
X81020991Y-98796778D01*
X80864466Y-98880443D01*
X80694627Y-98931963D01*
X80628443Y-98938481D01*
X80562260Y-98945000D01*
X80473740Y-98945000D01*
X80407558Y-98938482D01*
X80341373Y-98931963D01*
X80171534Y-98880443D01*
X80015009Y-98796778D01*
X79979271Y-98767448D01*
X79877814Y-98684186D01*
X79794552Y-98582729D01*
X79765222Y-98546991D01*
X79681557Y-98390466D01*
X79630037Y-98220627D01*
X79612641Y-98044000D01*
X79630037Y-97867373D01*
X79681557Y-97697534D01*
X79765222Y-97541009D01*
X79794552Y-97505271D01*
X79877814Y-97403814D01*
X79979271Y-97320552D01*
X80015009Y-97291222D01*
X80171534Y-97207557D01*
X80341373Y-97156037D01*
X80407557Y-97149519D01*
X80473740Y-97143000D01*
X80562260Y-97143000D01*
X80628443Y-97149519D01*
X80628443Y-97149519D01*
G37*
G36*
X75548443Y-97149519D02*
G01*
X75614627Y-97156037D01*
X75784466Y-97207557D01*
X75940991Y-97291222D01*
X75976729Y-97320552D01*
X76078186Y-97403814D01*
X76161448Y-97505271D01*
X76190778Y-97541009D01*
X76274443Y-97697534D01*
X76325963Y-97867373D01*
X76343359Y-98044000D01*
X76325963Y-98220627D01*
X76274443Y-98390466D01*
X76190778Y-98546991D01*
X76161448Y-98582729D01*
X76078186Y-98684186D01*
X75976729Y-98767448D01*
X75940991Y-98796778D01*
X75784466Y-98880443D01*
X75614627Y-98931963D01*
X75548443Y-98938481D01*
X75482260Y-98945000D01*
X75393740Y-98945000D01*
X75327558Y-98938482D01*
X75261373Y-98931963D01*
X75091534Y-98880443D01*
X74935009Y-98796778D01*
X74899271Y-98767448D01*
X74797814Y-98684186D01*
X74714552Y-98582729D01*
X74685222Y-98546991D01*
X74601557Y-98390466D01*
X74550037Y-98220627D01*
X74532641Y-98044000D01*
X74550037Y-97867373D01*
X74601557Y-97697534D01*
X74685222Y-97541009D01*
X74714552Y-97505271D01*
X74797814Y-97403814D01*
X74899271Y-97320552D01*
X74935009Y-97291222D01*
X75091534Y-97207557D01*
X75261373Y-97156037D01*
X75327557Y-97149519D01*
X75393740Y-97143000D01*
X75482260Y-97143000D01*
X75548443Y-97149519D01*
X75548443Y-97149519D01*
G37*
G36*
X73008443Y-97149519D02*
G01*
X73074627Y-97156037D01*
X73244466Y-97207557D01*
X73400991Y-97291222D01*
X73436729Y-97320552D01*
X73538186Y-97403814D01*
X73621448Y-97505271D01*
X73650778Y-97541009D01*
X73734443Y-97697534D01*
X73785963Y-97867373D01*
X73803359Y-98044000D01*
X73785963Y-98220627D01*
X73734443Y-98390466D01*
X73650778Y-98546991D01*
X73621448Y-98582729D01*
X73538186Y-98684186D01*
X73436729Y-98767448D01*
X73400991Y-98796778D01*
X73244466Y-98880443D01*
X73074627Y-98931963D01*
X73008443Y-98938481D01*
X72942260Y-98945000D01*
X72853740Y-98945000D01*
X72787558Y-98938482D01*
X72721373Y-98931963D01*
X72551534Y-98880443D01*
X72395009Y-98796778D01*
X72359271Y-98767448D01*
X72257814Y-98684186D01*
X72174552Y-98582729D01*
X72145222Y-98546991D01*
X72061557Y-98390466D01*
X72010037Y-98220627D01*
X71992641Y-98044000D01*
X72010037Y-97867373D01*
X72061557Y-97697534D01*
X72145222Y-97541009D01*
X72174552Y-97505271D01*
X72257814Y-97403814D01*
X72359271Y-97320552D01*
X72395009Y-97291222D01*
X72551534Y-97207557D01*
X72721373Y-97156037D01*
X72787557Y-97149519D01*
X72853740Y-97143000D01*
X72942260Y-97143000D01*
X73008443Y-97149519D01*
X73008443Y-97149519D01*
G37*
G36*
X70468443Y-97149519D02*
G01*
X70534627Y-97156037D01*
X70704466Y-97207557D01*
X70860991Y-97291222D01*
X70896729Y-97320552D01*
X70998186Y-97403814D01*
X71081448Y-97505271D01*
X71110778Y-97541009D01*
X71194443Y-97697534D01*
X71245963Y-97867373D01*
X71263359Y-98044000D01*
X71245963Y-98220627D01*
X71194443Y-98390466D01*
X71110778Y-98546991D01*
X71081448Y-98582729D01*
X70998186Y-98684186D01*
X70896729Y-98767448D01*
X70860991Y-98796778D01*
X70704466Y-98880443D01*
X70534627Y-98931963D01*
X70468443Y-98938481D01*
X70402260Y-98945000D01*
X70313740Y-98945000D01*
X70247558Y-98938482D01*
X70181373Y-98931963D01*
X70011534Y-98880443D01*
X69855009Y-98796778D01*
X69819271Y-98767448D01*
X69717814Y-98684186D01*
X69634552Y-98582729D01*
X69605222Y-98546991D01*
X69521557Y-98390466D01*
X69470037Y-98220627D01*
X69452641Y-98044000D01*
X69470037Y-97867373D01*
X69521557Y-97697534D01*
X69605222Y-97541009D01*
X69634552Y-97505271D01*
X69717814Y-97403814D01*
X69819271Y-97320552D01*
X69855009Y-97291222D01*
X70011534Y-97207557D01*
X70181373Y-97156037D01*
X70247557Y-97149519D01*
X70313740Y-97143000D01*
X70402260Y-97143000D01*
X70468443Y-97149519D01*
X70468443Y-97149519D01*
G37*
G36*
X67928443Y-97149519D02*
G01*
X67994627Y-97156037D01*
X68164466Y-97207557D01*
X68320991Y-97291222D01*
X68356729Y-97320552D01*
X68458186Y-97403814D01*
X68541448Y-97505271D01*
X68570778Y-97541009D01*
X68654443Y-97697534D01*
X68705963Y-97867373D01*
X68723359Y-98044000D01*
X68705963Y-98220627D01*
X68654443Y-98390466D01*
X68570778Y-98546991D01*
X68541448Y-98582729D01*
X68458186Y-98684186D01*
X68356729Y-98767448D01*
X68320991Y-98796778D01*
X68164466Y-98880443D01*
X67994627Y-98931963D01*
X67928442Y-98938482D01*
X67862260Y-98945000D01*
X67773740Y-98945000D01*
X67707558Y-98938482D01*
X67641373Y-98931963D01*
X67471534Y-98880443D01*
X67315009Y-98796778D01*
X67279271Y-98767448D01*
X67177814Y-98684186D01*
X67094552Y-98582729D01*
X67065222Y-98546991D01*
X66981557Y-98390466D01*
X66930037Y-98220627D01*
X66912641Y-98044000D01*
X66930037Y-97867373D01*
X66981557Y-97697534D01*
X67065222Y-97541009D01*
X67094552Y-97505271D01*
X67177814Y-97403814D01*
X67279271Y-97320552D01*
X67315009Y-97291222D01*
X67471534Y-97207557D01*
X67641373Y-97156037D01*
X67707557Y-97149519D01*
X67773740Y-97143000D01*
X67862260Y-97143000D01*
X67928443Y-97149519D01*
X67928443Y-97149519D01*
G37*
G36*
X65388443Y-97149519D02*
G01*
X65454627Y-97156037D01*
X65624466Y-97207557D01*
X65780991Y-97291222D01*
X65816729Y-97320552D01*
X65918186Y-97403814D01*
X66001448Y-97505271D01*
X66030778Y-97541009D01*
X66114443Y-97697534D01*
X66165963Y-97867373D01*
X66183359Y-98044000D01*
X66165963Y-98220627D01*
X66114443Y-98390466D01*
X66030778Y-98546991D01*
X66001448Y-98582729D01*
X65918186Y-98684186D01*
X65816729Y-98767448D01*
X65780991Y-98796778D01*
X65624466Y-98880443D01*
X65454627Y-98931963D01*
X65388442Y-98938482D01*
X65322260Y-98945000D01*
X65233740Y-98945000D01*
X65167558Y-98938482D01*
X65101373Y-98931963D01*
X64931534Y-98880443D01*
X64775009Y-98796778D01*
X64739271Y-98767448D01*
X64637814Y-98684186D01*
X64554552Y-98582729D01*
X64525222Y-98546991D01*
X64441557Y-98390466D01*
X64390037Y-98220627D01*
X64372641Y-98044000D01*
X64390037Y-97867373D01*
X64441557Y-97697534D01*
X64525222Y-97541009D01*
X64554552Y-97505271D01*
X64637814Y-97403814D01*
X64739271Y-97320552D01*
X64775009Y-97291222D01*
X64931534Y-97207557D01*
X65101373Y-97156037D01*
X65167557Y-97149519D01*
X65233740Y-97143000D01*
X65322260Y-97143000D01*
X65388443Y-97149519D01*
X65388443Y-97149519D01*
G37*
G36*
X62848443Y-97149519D02*
G01*
X62914627Y-97156037D01*
X63084466Y-97207557D01*
X63240991Y-97291222D01*
X63276729Y-97320552D01*
X63378186Y-97403814D01*
X63461448Y-97505271D01*
X63490778Y-97541009D01*
X63574443Y-97697534D01*
X63625963Y-97867373D01*
X63643359Y-98044000D01*
X63625963Y-98220627D01*
X63574443Y-98390466D01*
X63490778Y-98546991D01*
X63461448Y-98582729D01*
X63378186Y-98684186D01*
X63276729Y-98767448D01*
X63240991Y-98796778D01*
X63084466Y-98880443D01*
X62914627Y-98931963D01*
X62848442Y-98938482D01*
X62782260Y-98945000D01*
X62693740Y-98945000D01*
X62627558Y-98938482D01*
X62561373Y-98931963D01*
X62391534Y-98880443D01*
X62235009Y-98796778D01*
X62199271Y-98767448D01*
X62097814Y-98684186D01*
X62014552Y-98582729D01*
X61985222Y-98546991D01*
X61901557Y-98390466D01*
X61850037Y-98220627D01*
X61832641Y-98044000D01*
X61850037Y-97867373D01*
X61901557Y-97697534D01*
X61985222Y-97541009D01*
X62014552Y-97505271D01*
X62097814Y-97403814D01*
X62199271Y-97320552D01*
X62235009Y-97291222D01*
X62391534Y-97207557D01*
X62561373Y-97156037D01*
X62627557Y-97149519D01*
X62693740Y-97143000D01*
X62782260Y-97143000D01*
X62848443Y-97149519D01*
X62848443Y-97149519D01*
G37*
G36*
X60308443Y-97149519D02*
G01*
X60374627Y-97156037D01*
X60544466Y-97207557D01*
X60700991Y-97291222D01*
X60736729Y-97320552D01*
X60838186Y-97403814D01*
X60921448Y-97505271D01*
X60950778Y-97541009D01*
X61034443Y-97697534D01*
X61085963Y-97867373D01*
X61103359Y-98044000D01*
X61085963Y-98220627D01*
X61034443Y-98390466D01*
X60950778Y-98546991D01*
X60921448Y-98582729D01*
X60838186Y-98684186D01*
X60736729Y-98767448D01*
X60700991Y-98796778D01*
X60544466Y-98880443D01*
X60374627Y-98931963D01*
X60308442Y-98938482D01*
X60242260Y-98945000D01*
X60153740Y-98945000D01*
X60087558Y-98938482D01*
X60021373Y-98931963D01*
X59851534Y-98880443D01*
X59695009Y-98796778D01*
X59659271Y-98767448D01*
X59557814Y-98684186D01*
X59474552Y-98582729D01*
X59445222Y-98546991D01*
X59361557Y-98390466D01*
X59310037Y-98220627D01*
X59292641Y-98044000D01*
X59310037Y-97867373D01*
X59361557Y-97697534D01*
X59445222Y-97541009D01*
X59474552Y-97505271D01*
X59557814Y-97403814D01*
X59659271Y-97320552D01*
X59695009Y-97291222D01*
X59851534Y-97207557D01*
X60021373Y-97156037D01*
X60087557Y-97149519D01*
X60153740Y-97143000D01*
X60242260Y-97143000D01*
X60308443Y-97149519D01*
X60308443Y-97149519D01*
G37*
G36*
X72381604Y-89936629D02*
G01*
X72572873Y-90015855D01*
X72572875Y-90015856D01*
X72745013Y-90130875D01*
X72891405Y-90277267D01*
X72999637Y-90439247D01*
X73006425Y-90449407D01*
X73085651Y-90640676D01*
X73126040Y-90843724D01*
X73126040Y-91050756D01*
X73085651Y-91253804D01*
X73006425Y-91445073D01*
X73006424Y-91445075D01*
X72891405Y-91617213D01*
X72745013Y-91763605D01*
X72572875Y-91878624D01*
X72572874Y-91878625D01*
X72572873Y-91878625D01*
X72381604Y-91957851D01*
X72178556Y-91998240D01*
X71971524Y-91998240D01*
X71768476Y-91957851D01*
X71577207Y-91878625D01*
X71577206Y-91878625D01*
X71577205Y-91878624D01*
X71405067Y-91763605D01*
X71258675Y-91617213D01*
X71143656Y-91445075D01*
X71143655Y-91445073D01*
X71064429Y-91253804D01*
X71024040Y-91050756D01*
X71024040Y-90843724D01*
X71064429Y-90640676D01*
X71143655Y-90449407D01*
X71150444Y-90439247D01*
X71258675Y-90277267D01*
X71405067Y-90130875D01*
X71577205Y-90015856D01*
X71577207Y-90015855D01*
X71768476Y-89936629D01*
X71971524Y-89896240D01*
X72178556Y-89896240D01*
X72381604Y-89936629D01*
X72381604Y-89936629D01*
G37*
G36*
X69155804Y-89926469D02*
G01*
X69347073Y-90005695D01*
X69347075Y-90005696D01*
X69519213Y-90120715D01*
X69665605Y-90267107D01*
X69780625Y-90439247D01*
X69859851Y-90630516D01*
X69900240Y-90833564D01*
X69900240Y-91040596D01*
X69859851Y-91243644D01*
X69855642Y-91253805D01*
X69780624Y-91434915D01*
X69665605Y-91607053D01*
X69519213Y-91753445D01*
X69347075Y-91868464D01*
X69347074Y-91868465D01*
X69347073Y-91868465D01*
X69155804Y-91947691D01*
X68952756Y-91988080D01*
X68745724Y-91988080D01*
X68542676Y-91947691D01*
X68351407Y-91868465D01*
X68351406Y-91868465D01*
X68351405Y-91868464D01*
X68179267Y-91753445D01*
X68032875Y-91607053D01*
X67917856Y-91434915D01*
X67842838Y-91253805D01*
X67838629Y-91243644D01*
X67798240Y-91040596D01*
X67798240Y-90833564D01*
X67838629Y-90630516D01*
X67917855Y-90439247D01*
X68032875Y-90267107D01*
X68179267Y-90120715D01*
X68351405Y-90005696D01*
X68351407Y-90005695D01*
X68542676Y-89926469D01*
X68745724Y-89886080D01*
X68952756Y-89886080D01*
X69155804Y-89926469D01*
X69155804Y-89926469D01*
G37*
G36*
X61099000Y-78625000D02*
G01*
X59297000Y-78625000D01*
X59297000Y-76823000D01*
X61099000Y-76823000D01*
X61099000Y-78625000D01*
X61099000Y-78625000D01*
G37*
G36*
X62848443Y-76829519D02*
G01*
X62914627Y-76836037D01*
X63084466Y-76887557D01*
X63240991Y-76971222D01*
X63276729Y-77000552D01*
X63378186Y-77083814D01*
X63461448Y-77185271D01*
X63490778Y-77221009D01*
X63574443Y-77377534D01*
X63625963Y-77547373D01*
X63643359Y-77724000D01*
X63625963Y-77900627D01*
X63574443Y-78070466D01*
X63490778Y-78226991D01*
X63461448Y-78262729D01*
X63378186Y-78364186D01*
X63276729Y-78447448D01*
X63240991Y-78476778D01*
X63084466Y-78560443D01*
X62914627Y-78611963D01*
X62848442Y-78618482D01*
X62782260Y-78625000D01*
X62693740Y-78625000D01*
X62627558Y-78618482D01*
X62561373Y-78611963D01*
X62391534Y-78560443D01*
X62235009Y-78476778D01*
X62199271Y-78447448D01*
X62097814Y-78364186D01*
X62014552Y-78262729D01*
X61985222Y-78226991D01*
X61901557Y-78070466D01*
X61850037Y-77900627D01*
X61832641Y-77724000D01*
X61850037Y-77547373D01*
X61901557Y-77377534D01*
X61985222Y-77221009D01*
X62014552Y-77185271D01*
X62097814Y-77083814D01*
X62199271Y-77000552D01*
X62235009Y-76971222D01*
X62391534Y-76887557D01*
X62561373Y-76836037D01*
X62627557Y-76829519D01*
X62693740Y-76823000D01*
X62782260Y-76823000D01*
X62848443Y-76829519D01*
X62848443Y-76829519D01*
G37*
G36*
X65388443Y-76829519D02*
G01*
X65454627Y-76836037D01*
X65624466Y-76887557D01*
X65780991Y-76971222D01*
X65816729Y-77000552D01*
X65918186Y-77083814D01*
X66001448Y-77185271D01*
X66030778Y-77221009D01*
X66114443Y-77377534D01*
X66165963Y-77547373D01*
X66183359Y-77724000D01*
X66165963Y-77900627D01*
X66114443Y-78070466D01*
X66030778Y-78226991D01*
X66001448Y-78262729D01*
X65918186Y-78364186D01*
X65816729Y-78447448D01*
X65780991Y-78476778D01*
X65624466Y-78560443D01*
X65454627Y-78611963D01*
X65388442Y-78618482D01*
X65322260Y-78625000D01*
X65233740Y-78625000D01*
X65167558Y-78618482D01*
X65101373Y-78611963D01*
X64931534Y-78560443D01*
X64775009Y-78476778D01*
X64739271Y-78447448D01*
X64637814Y-78364186D01*
X64554552Y-78262729D01*
X64525222Y-78226991D01*
X64441557Y-78070466D01*
X64390037Y-77900627D01*
X64372641Y-77724000D01*
X64390037Y-77547373D01*
X64441557Y-77377534D01*
X64525222Y-77221009D01*
X64554552Y-77185271D01*
X64637814Y-77083814D01*
X64739271Y-77000552D01*
X64775009Y-76971222D01*
X64931534Y-76887557D01*
X65101373Y-76836037D01*
X65167557Y-76829519D01*
X65233740Y-76823000D01*
X65322260Y-76823000D01*
X65388443Y-76829519D01*
X65388443Y-76829519D01*
G37*
G36*
X67928443Y-76829519D02*
G01*
X67994627Y-76836037D01*
X68164466Y-76887557D01*
X68320991Y-76971222D01*
X68356729Y-77000552D01*
X68458186Y-77083814D01*
X68541448Y-77185271D01*
X68570778Y-77221009D01*
X68654443Y-77377534D01*
X68705963Y-77547373D01*
X68723359Y-77724000D01*
X68705963Y-77900627D01*
X68654443Y-78070466D01*
X68570778Y-78226991D01*
X68541448Y-78262729D01*
X68458186Y-78364186D01*
X68356729Y-78447448D01*
X68320991Y-78476778D01*
X68164466Y-78560443D01*
X67994627Y-78611963D01*
X67928442Y-78618482D01*
X67862260Y-78625000D01*
X67773740Y-78625000D01*
X67707558Y-78618482D01*
X67641373Y-78611963D01*
X67471534Y-78560443D01*
X67315009Y-78476778D01*
X67279271Y-78447448D01*
X67177814Y-78364186D01*
X67094552Y-78262729D01*
X67065222Y-78226991D01*
X66981557Y-78070466D01*
X66930037Y-77900627D01*
X66912641Y-77724000D01*
X66930037Y-77547373D01*
X66981557Y-77377534D01*
X67065222Y-77221009D01*
X67094552Y-77185271D01*
X67177814Y-77083814D01*
X67279271Y-77000552D01*
X67315009Y-76971222D01*
X67471534Y-76887557D01*
X67641373Y-76836037D01*
X67707557Y-76829519D01*
X67773740Y-76823000D01*
X67862260Y-76823000D01*
X67928443Y-76829519D01*
X67928443Y-76829519D01*
G37*
G36*
X70468443Y-76829519D02*
G01*
X70534627Y-76836037D01*
X70704466Y-76887557D01*
X70860991Y-76971222D01*
X70896729Y-77000552D01*
X70998186Y-77083814D01*
X71081448Y-77185271D01*
X71110778Y-77221009D01*
X71194443Y-77377534D01*
X71245963Y-77547373D01*
X71263359Y-77724000D01*
X71245963Y-77900627D01*
X71194443Y-78070466D01*
X71110778Y-78226991D01*
X71081448Y-78262729D01*
X70998186Y-78364186D01*
X70896729Y-78447448D01*
X70860991Y-78476778D01*
X70704466Y-78560443D01*
X70534627Y-78611963D01*
X70468442Y-78618482D01*
X70402260Y-78625000D01*
X70313740Y-78625000D01*
X70247558Y-78618482D01*
X70181373Y-78611963D01*
X70011534Y-78560443D01*
X69855009Y-78476778D01*
X69819271Y-78447448D01*
X69717814Y-78364186D01*
X69634552Y-78262729D01*
X69605222Y-78226991D01*
X69521557Y-78070466D01*
X69470037Y-77900627D01*
X69452641Y-77724000D01*
X69470037Y-77547373D01*
X69521557Y-77377534D01*
X69605222Y-77221009D01*
X69634552Y-77185271D01*
X69717814Y-77083814D01*
X69819271Y-77000552D01*
X69855009Y-76971222D01*
X70011534Y-76887557D01*
X70181373Y-76836037D01*
X70247557Y-76829519D01*
X70313740Y-76823000D01*
X70402260Y-76823000D01*
X70468443Y-76829519D01*
X70468443Y-76829519D01*
G37*
G36*
X73008443Y-76829519D02*
G01*
X73074627Y-76836037D01*
X73244466Y-76887557D01*
X73400991Y-76971222D01*
X73436729Y-77000552D01*
X73538186Y-77083814D01*
X73621448Y-77185271D01*
X73650778Y-77221009D01*
X73734443Y-77377534D01*
X73785963Y-77547373D01*
X73803359Y-77724000D01*
X73785963Y-77900627D01*
X73734443Y-78070466D01*
X73650778Y-78226991D01*
X73621448Y-78262729D01*
X73538186Y-78364186D01*
X73436729Y-78447448D01*
X73400991Y-78476778D01*
X73244466Y-78560443D01*
X73074627Y-78611963D01*
X73008442Y-78618482D01*
X72942260Y-78625000D01*
X72853740Y-78625000D01*
X72787558Y-78618482D01*
X72721373Y-78611963D01*
X72551534Y-78560443D01*
X72395009Y-78476778D01*
X72359271Y-78447448D01*
X72257814Y-78364186D01*
X72174552Y-78262729D01*
X72145222Y-78226991D01*
X72061557Y-78070466D01*
X72010037Y-77900627D01*
X71992641Y-77724000D01*
X72010037Y-77547373D01*
X72061557Y-77377534D01*
X72145222Y-77221009D01*
X72174552Y-77185271D01*
X72257814Y-77083814D01*
X72359271Y-77000552D01*
X72395009Y-76971222D01*
X72551534Y-76887557D01*
X72721373Y-76836037D01*
X72787557Y-76829519D01*
X72853740Y-76823000D01*
X72942260Y-76823000D01*
X73008443Y-76829519D01*
X73008443Y-76829519D01*
G37*
G36*
X80628443Y-76829519D02*
G01*
X80694627Y-76836037D01*
X80864466Y-76887557D01*
X81020991Y-76971222D01*
X81056729Y-77000552D01*
X81158186Y-77083814D01*
X81241448Y-77185271D01*
X81270778Y-77221009D01*
X81354443Y-77377534D01*
X81405963Y-77547373D01*
X81423359Y-77724000D01*
X81405963Y-77900627D01*
X81354443Y-78070466D01*
X81270778Y-78226991D01*
X81241448Y-78262729D01*
X81158186Y-78364186D01*
X81056729Y-78447448D01*
X81020991Y-78476778D01*
X80864466Y-78560443D01*
X80694627Y-78611963D01*
X80628442Y-78618482D01*
X80562260Y-78625000D01*
X80473740Y-78625000D01*
X80407558Y-78618482D01*
X80341373Y-78611963D01*
X80171534Y-78560443D01*
X80015009Y-78476778D01*
X79979271Y-78447448D01*
X79877814Y-78364186D01*
X79794552Y-78262729D01*
X79765222Y-78226991D01*
X79681557Y-78070466D01*
X79630037Y-77900627D01*
X79612641Y-77724000D01*
X79630037Y-77547373D01*
X79681557Y-77377534D01*
X79765222Y-77221009D01*
X79794552Y-77185271D01*
X79877814Y-77083814D01*
X79979271Y-77000552D01*
X80015009Y-76971222D01*
X80171534Y-76887557D01*
X80341373Y-76836037D01*
X80407557Y-76829519D01*
X80473740Y-76823000D01*
X80562260Y-76823000D01*
X80628443Y-76829519D01*
X80628443Y-76829519D01*
G37*
G36*
X75548443Y-76829519D02*
G01*
X75614627Y-76836037D01*
X75784466Y-76887557D01*
X75940991Y-76971222D01*
X75976729Y-77000552D01*
X76078186Y-77083814D01*
X76161448Y-77185271D01*
X76190778Y-77221009D01*
X76274443Y-77377534D01*
X76325963Y-77547373D01*
X76343359Y-77724000D01*
X76325963Y-77900627D01*
X76274443Y-78070466D01*
X76190778Y-78226991D01*
X76161448Y-78262729D01*
X76078186Y-78364186D01*
X75976729Y-78447448D01*
X75940991Y-78476778D01*
X75784466Y-78560443D01*
X75614627Y-78611963D01*
X75548442Y-78618482D01*
X75482260Y-78625000D01*
X75393740Y-78625000D01*
X75327558Y-78618482D01*
X75261373Y-78611963D01*
X75091534Y-78560443D01*
X74935009Y-78476778D01*
X74899271Y-78447448D01*
X74797814Y-78364186D01*
X74714552Y-78262729D01*
X74685222Y-78226991D01*
X74601557Y-78070466D01*
X74550037Y-77900627D01*
X74532641Y-77724000D01*
X74550037Y-77547373D01*
X74601557Y-77377534D01*
X74685222Y-77221009D01*
X74714552Y-77185271D01*
X74797814Y-77083814D01*
X74899271Y-77000552D01*
X74935009Y-76971222D01*
X75091534Y-76887557D01*
X75261373Y-76836037D01*
X75327557Y-76829519D01*
X75393740Y-76823000D01*
X75482260Y-76823000D01*
X75548443Y-76829519D01*
X75548443Y-76829519D01*
G37*
G36*
X95868443Y-76829519D02*
G01*
X95934627Y-76836037D01*
X96104466Y-76887557D01*
X96260991Y-76971222D01*
X96296729Y-77000552D01*
X96398186Y-77083814D01*
X96481448Y-77185271D01*
X96510778Y-77221009D01*
X96594443Y-77377534D01*
X96645963Y-77547373D01*
X96663359Y-77724000D01*
X96645963Y-77900627D01*
X96594443Y-78070466D01*
X96510778Y-78226991D01*
X96481448Y-78262729D01*
X96398186Y-78364186D01*
X96296729Y-78447448D01*
X96260991Y-78476778D01*
X96104466Y-78560443D01*
X95934627Y-78611963D01*
X95868442Y-78618482D01*
X95802260Y-78625000D01*
X95713740Y-78625000D01*
X95647558Y-78618482D01*
X95581373Y-78611963D01*
X95411534Y-78560443D01*
X95255009Y-78476778D01*
X95219271Y-78447448D01*
X95117814Y-78364186D01*
X95034552Y-78262729D01*
X95005222Y-78226991D01*
X94921557Y-78070466D01*
X94870037Y-77900627D01*
X94852641Y-77724000D01*
X94870037Y-77547373D01*
X94921557Y-77377534D01*
X95005222Y-77221009D01*
X95034552Y-77185271D01*
X95117814Y-77083814D01*
X95219271Y-77000552D01*
X95255009Y-76971222D01*
X95411534Y-76887557D01*
X95581373Y-76836037D01*
X95647557Y-76829519D01*
X95713740Y-76823000D01*
X95802260Y-76823000D01*
X95868443Y-76829519D01*
X95868443Y-76829519D01*
G37*
G36*
X93328443Y-76829519D02*
G01*
X93394627Y-76836037D01*
X93564466Y-76887557D01*
X93720991Y-76971222D01*
X93756729Y-77000552D01*
X93858186Y-77083814D01*
X93941448Y-77185271D01*
X93970778Y-77221009D01*
X94054443Y-77377534D01*
X94105963Y-77547373D01*
X94123359Y-77724000D01*
X94105963Y-77900627D01*
X94054443Y-78070466D01*
X93970778Y-78226991D01*
X93941448Y-78262729D01*
X93858186Y-78364186D01*
X93756729Y-78447448D01*
X93720991Y-78476778D01*
X93564466Y-78560443D01*
X93394627Y-78611963D01*
X93328442Y-78618482D01*
X93262260Y-78625000D01*
X93173740Y-78625000D01*
X93107558Y-78618482D01*
X93041373Y-78611963D01*
X92871534Y-78560443D01*
X92715009Y-78476778D01*
X92679271Y-78447448D01*
X92577814Y-78364186D01*
X92494552Y-78262729D01*
X92465222Y-78226991D01*
X92381557Y-78070466D01*
X92330037Y-77900627D01*
X92312641Y-77724000D01*
X92330037Y-77547373D01*
X92381557Y-77377534D01*
X92465222Y-77221009D01*
X92494552Y-77185271D01*
X92577814Y-77083814D01*
X92679271Y-77000552D01*
X92715009Y-76971222D01*
X92871534Y-76887557D01*
X93041373Y-76836037D01*
X93107557Y-76829519D01*
X93173740Y-76823000D01*
X93262260Y-76823000D01*
X93328443Y-76829519D01*
X93328443Y-76829519D01*
G37*
G36*
X90788443Y-76829519D02*
G01*
X90854627Y-76836037D01*
X91024466Y-76887557D01*
X91180991Y-76971222D01*
X91216729Y-77000552D01*
X91318186Y-77083814D01*
X91401448Y-77185271D01*
X91430778Y-77221009D01*
X91514443Y-77377534D01*
X91565963Y-77547373D01*
X91583359Y-77724000D01*
X91565963Y-77900627D01*
X91514443Y-78070466D01*
X91430778Y-78226991D01*
X91401448Y-78262729D01*
X91318186Y-78364186D01*
X91216729Y-78447448D01*
X91180991Y-78476778D01*
X91024466Y-78560443D01*
X90854627Y-78611963D01*
X90788442Y-78618482D01*
X90722260Y-78625000D01*
X90633740Y-78625000D01*
X90567558Y-78618482D01*
X90501373Y-78611963D01*
X90331534Y-78560443D01*
X90175009Y-78476778D01*
X90139271Y-78447448D01*
X90037814Y-78364186D01*
X89954552Y-78262729D01*
X89925222Y-78226991D01*
X89841557Y-78070466D01*
X89790037Y-77900627D01*
X89772641Y-77724000D01*
X89790037Y-77547373D01*
X89841557Y-77377534D01*
X89925222Y-77221009D01*
X89954552Y-77185271D01*
X90037814Y-77083814D01*
X90139271Y-77000552D01*
X90175009Y-76971222D01*
X90331534Y-76887557D01*
X90501373Y-76836037D01*
X90567557Y-76829519D01*
X90633740Y-76823000D01*
X90722260Y-76823000D01*
X90788443Y-76829519D01*
X90788443Y-76829519D01*
G37*
G36*
X88248443Y-76829519D02*
G01*
X88314627Y-76836037D01*
X88484466Y-76887557D01*
X88640991Y-76971222D01*
X88676729Y-77000552D01*
X88778186Y-77083814D01*
X88861448Y-77185271D01*
X88890778Y-77221009D01*
X88974443Y-77377534D01*
X89025963Y-77547373D01*
X89043359Y-77724000D01*
X89025963Y-77900627D01*
X88974443Y-78070466D01*
X88890778Y-78226991D01*
X88861448Y-78262729D01*
X88778186Y-78364186D01*
X88676729Y-78447448D01*
X88640991Y-78476778D01*
X88484466Y-78560443D01*
X88314627Y-78611963D01*
X88248442Y-78618482D01*
X88182260Y-78625000D01*
X88093740Y-78625000D01*
X88027558Y-78618482D01*
X87961373Y-78611963D01*
X87791534Y-78560443D01*
X87635009Y-78476778D01*
X87599271Y-78447448D01*
X87497814Y-78364186D01*
X87414552Y-78262729D01*
X87385222Y-78226991D01*
X87301557Y-78070466D01*
X87250037Y-77900627D01*
X87232641Y-77724000D01*
X87250037Y-77547373D01*
X87301557Y-77377534D01*
X87385222Y-77221009D01*
X87414552Y-77185271D01*
X87497814Y-77083814D01*
X87599271Y-77000552D01*
X87635009Y-76971222D01*
X87791534Y-76887557D01*
X87961373Y-76836037D01*
X88027557Y-76829519D01*
X88093740Y-76823000D01*
X88182260Y-76823000D01*
X88248443Y-76829519D01*
X88248443Y-76829519D01*
G37*
G36*
X85708443Y-76829519D02*
G01*
X85774627Y-76836037D01*
X85944466Y-76887557D01*
X86100991Y-76971222D01*
X86136729Y-77000552D01*
X86238186Y-77083814D01*
X86321448Y-77185271D01*
X86350778Y-77221009D01*
X86434443Y-77377534D01*
X86485963Y-77547373D01*
X86503359Y-77724000D01*
X86485963Y-77900627D01*
X86434443Y-78070466D01*
X86350778Y-78226991D01*
X86321448Y-78262729D01*
X86238186Y-78364186D01*
X86136729Y-78447448D01*
X86100991Y-78476778D01*
X85944466Y-78560443D01*
X85774627Y-78611963D01*
X85708442Y-78618482D01*
X85642260Y-78625000D01*
X85553740Y-78625000D01*
X85487558Y-78618482D01*
X85421373Y-78611963D01*
X85251534Y-78560443D01*
X85095009Y-78476778D01*
X85059271Y-78447448D01*
X84957814Y-78364186D01*
X84874552Y-78262729D01*
X84845222Y-78226991D01*
X84761557Y-78070466D01*
X84710037Y-77900627D01*
X84692641Y-77724000D01*
X84710037Y-77547373D01*
X84761557Y-77377534D01*
X84845222Y-77221009D01*
X84874552Y-77185271D01*
X84957814Y-77083814D01*
X85059271Y-77000552D01*
X85095009Y-76971222D01*
X85251534Y-76887557D01*
X85421373Y-76836037D01*
X85487557Y-76829519D01*
X85553740Y-76823000D01*
X85642260Y-76823000D01*
X85708443Y-76829519D01*
X85708443Y-76829519D01*
G37*
G36*
X83168443Y-76829519D02*
G01*
X83234627Y-76836037D01*
X83404466Y-76887557D01*
X83560991Y-76971222D01*
X83596729Y-77000552D01*
X83698186Y-77083814D01*
X83781448Y-77185271D01*
X83810778Y-77221009D01*
X83894443Y-77377534D01*
X83945963Y-77547373D01*
X83963359Y-77724000D01*
X83945963Y-77900627D01*
X83894443Y-78070466D01*
X83810778Y-78226991D01*
X83781448Y-78262729D01*
X83698186Y-78364186D01*
X83596729Y-78447448D01*
X83560991Y-78476778D01*
X83404466Y-78560443D01*
X83234627Y-78611963D01*
X83168442Y-78618482D01*
X83102260Y-78625000D01*
X83013740Y-78625000D01*
X82947558Y-78618482D01*
X82881373Y-78611963D01*
X82711534Y-78560443D01*
X82555009Y-78476778D01*
X82519271Y-78447448D01*
X82417814Y-78364186D01*
X82334552Y-78262729D01*
X82305222Y-78226991D01*
X82221557Y-78070466D01*
X82170037Y-77900627D01*
X82152641Y-77724000D01*
X82170037Y-77547373D01*
X82221557Y-77377534D01*
X82305222Y-77221009D01*
X82334552Y-77185271D01*
X82417814Y-77083814D01*
X82519271Y-77000552D01*
X82555009Y-76971222D01*
X82711534Y-76887557D01*
X82881373Y-76836037D01*
X82947557Y-76829519D01*
X83013740Y-76823000D01*
X83102260Y-76823000D01*
X83168443Y-76829519D01*
X83168443Y-76829519D01*
G37*
G36*
X78088443Y-76829519D02*
G01*
X78154627Y-76836037D01*
X78324466Y-76887557D01*
X78480991Y-76971222D01*
X78516729Y-77000552D01*
X78618186Y-77083814D01*
X78701448Y-77185271D01*
X78730778Y-77221009D01*
X78814443Y-77377534D01*
X78865963Y-77547373D01*
X78883359Y-77724000D01*
X78865963Y-77900627D01*
X78814443Y-78070466D01*
X78730778Y-78226991D01*
X78701448Y-78262729D01*
X78618186Y-78364186D01*
X78516729Y-78447448D01*
X78480991Y-78476778D01*
X78324466Y-78560443D01*
X78154627Y-78611963D01*
X78088442Y-78618482D01*
X78022260Y-78625000D01*
X77933740Y-78625000D01*
X77867558Y-78618482D01*
X77801373Y-78611963D01*
X77631534Y-78560443D01*
X77475009Y-78476778D01*
X77439271Y-78447448D01*
X77337814Y-78364186D01*
X77254552Y-78262729D01*
X77225222Y-78226991D01*
X77141557Y-78070466D01*
X77090037Y-77900627D01*
X77072641Y-77724000D01*
X77090037Y-77547373D01*
X77141557Y-77377534D01*
X77225222Y-77221009D01*
X77254552Y-77185271D01*
X77337814Y-77083814D01*
X77439271Y-77000552D01*
X77475009Y-76971222D01*
X77631534Y-76887557D01*
X77801373Y-76836037D01*
X77867557Y-76829519D01*
X77933740Y-76823000D01*
X78022260Y-76823000D01*
X78088443Y-76829519D01*
X78088443Y-76829519D01*
G37*
M02*
