G04 #@! TF.GenerationSoftware,KiCad,Pcbnew,(5.1.4)-1*
G04 #@! TF.CreationDate,2019-09-26T17:39:29-04:00*
G04 #@! TF.ProjectId,samd21-board,73616d64-3231-42d6-926f-6172642e6b69,rev?*
G04 #@! TF.SameCoordinates,Original*
G04 #@! TF.FileFunction,Soldermask,Top*
G04 #@! TF.FilePolarity,Negative*
%FSLAX46Y46*%
G04 Gerber Fmt 4.6, Leading zero omitted, Abs format (unit mm)*
G04 Created by KiCad (PCBNEW (5.1.4)-1) date 2019-09-26 17:39:29*
%MOMM*%
%LPD*%
G04 APERTURE LIST*
%ADD10C,0.100000*%
G04 APERTURE END LIST*
D10*
G36*
X78088443Y-97149519D02*
G01*
X78154627Y-97156037D01*
X78324466Y-97207557D01*
X78480991Y-97291222D01*
X78516729Y-97320552D01*
X78618186Y-97403814D01*
X78701448Y-97505271D01*
X78730778Y-97541009D01*
X78814443Y-97697534D01*
X78865963Y-97867373D01*
X78883359Y-98044000D01*
X78865963Y-98220627D01*
X78814443Y-98390466D01*
X78730778Y-98546991D01*
X78701448Y-98582729D01*
X78618186Y-98684186D01*
X78516729Y-98767448D01*
X78480991Y-98796778D01*
X78324466Y-98880443D01*
X78154627Y-98931963D01*
X78088443Y-98938481D01*
X78022260Y-98945000D01*
X77933740Y-98945000D01*
X77867558Y-98938482D01*
X77801373Y-98931963D01*
X77631534Y-98880443D01*
X77475009Y-98796778D01*
X77439271Y-98767448D01*
X77337814Y-98684186D01*
X77254552Y-98582729D01*
X77225222Y-98546991D01*
X77141557Y-98390466D01*
X77090037Y-98220627D01*
X77072641Y-98044000D01*
X77090037Y-97867373D01*
X77141557Y-97697534D01*
X77225222Y-97541009D01*
X77254552Y-97505271D01*
X77337814Y-97403814D01*
X77439271Y-97320552D01*
X77475009Y-97291222D01*
X77631534Y-97207557D01*
X77801373Y-97156037D01*
X77867557Y-97149519D01*
X77933740Y-97143000D01*
X78022260Y-97143000D01*
X78088443Y-97149519D01*
X78088443Y-97149519D01*
G37*
G36*
X96659000Y-98945000D02*
G01*
X94857000Y-98945000D01*
X94857000Y-97143000D01*
X96659000Y-97143000D01*
X96659000Y-98945000D01*
X96659000Y-98945000D01*
G37*
G36*
X88248443Y-97149519D02*
G01*
X88314627Y-97156037D01*
X88484466Y-97207557D01*
X88640991Y-97291222D01*
X88676729Y-97320552D01*
X88778186Y-97403814D01*
X88861448Y-97505271D01*
X88890778Y-97541009D01*
X88974443Y-97697534D01*
X89025963Y-97867373D01*
X89043359Y-98044000D01*
X89025963Y-98220627D01*
X88974443Y-98390466D01*
X88890778Y-98546991D01*
X88861448Y-98582729D01*
X88778186Y-98684186D01*
X88676729Y-98767448D01*
X88640991Y-98796778D01*
X88484466Y-98880443D01*
X88314627Y-98931963D01*
X88248443Y-98938481D01*
X88182260Y-98945000D01*
X88093740Y-98945000D01*
X88027558Y-98938482D01*
X87961373Y-98931963D01*
X87791534Y-98880443D01*
X87635009Y-98796778D01*
X87599271Y-98767448D01*
X87497814Y-98684186D01*
X87414552Y-98582729D01*
X87385222Y-98546991D01*
X87301557Y-98390466D01*
X87250037Y-98220627D01*
X87232641Y-98044000D01*
X87250037Y-97867373D01*
X87301557Y-97697534D01*
X87385222Y-97541009D01*
X87414552Y-97505271D01*
X87497814Y-97403814D01*
X87599271Y-97320552D01*
X87635009Y-97291222D01*
X87791534Y-97207557D01*
X87961373Y-97156037D01*
X88027558Y-97149518D01*
X88093740Y-97143000D01*
X88182260Y-97143000D01*
X88248443Y-97149519D01*
X88248443Y-97149519D01*
G37*
G36*
X85708443Y-97149519D02*
G01*
X85774627Y-97156037D01*
X85944466Y-97207557D01*
X86100991Y-97291222D01*
X86136729Y-97320552D01*
X86238186Y-97403814D01*
X86321448Y-97505271D01*
X86350778Y-97541009D01*
X86434443Y-97697534D01*
X86485963Y-97867373D01*
X86503359Y-98044000D01*
X86485963Y-98220627D01*
X86434443Y-98390466D01*
X86350778Y-98546991D01*
X86321448Y-98582729D01*
X86238186Y-98684186D01*
X86136729Y-98767448D01*
X86100991Y-98796778D01*
X85944466Y-98880443D01*
X85774627Y-98931963D01*
X85708443Y-98938481D01*
X85642260Y-98945000D01*
X85553740Y-98945000D01*
X85487558Y-98938482D01*
X85421373Y-98931963D01*
X85251534Y-98880443D01*
X85095009Y-98796778D01*
X85059271Y-98767448D01*
X84957814Y-98684186D01*
X84874552Y-98582729D01*
X84845222Y-98546991D01*
X84761557Y-98390466D01*
X84710037Y-98220627D01*
X84692641Y-98044000D01*
X84710037Y-97867373D01*
X84761557Y-97697534D01*
X84845222Y-97541009D01*
X84874552Y-97505271D01*
X84957814Y-97403814D01*
X85059271Y-97320552D01*
X85095009Y-97291222D01*
X85251534Y-97207557D01*
X85421373Y-97156037D01*
X85487557Y-97149519D01*
X85553740Y-97143000D01*
X85642260Y-97143000D01*
X85708443Y-97149519D01*
X85708443Y-97149519D01*
G37*
G36*
X83168443Y-97149519D02*
G01*
X83234627Y-97156037D01*
X83404466Y-97207557D01*
X83560991Y-97291222D01*
X83596729Y-97320552D01*
X83698186Y-97403814D01*
X83781448Y-97505271D01*
X83810778Y-97541009D01*
X83894443Y-97697534D01*
X83945963Y-97867373D01*
X83963359Y-98044000D01*
X83945963Y-98220627D01*
X83894443Y-98390466D01*
X83810778Y-98546991D01*
X83781448Y-98582729D01*
X83698186Y-98684186D01*
X83596729Y-98767448D01*
X83560991Y-98796778D01*
X83404466Y-98880443D01*
X83234627Y-98931963D01*
X83168443Y-98938481D01*
X83102260Y-98945000D01*
X83013740Y-98945000D01*
X82947558Y-98938482D01*
X82881373Y-98931963D01*
X82711534Y-98880443D01*
X82555009Y-98796778D01*
X82519271Y-98767448D01*
X82417814Y-98684186D01*
X82334552Y-98582729D01*
X82305222Y-98546991D01*
X82221557Y-98390466D01*
X82170037Y-98220627D01*
X82152641Y-98044000D01*
X82170037Y-97867373D01*
X82221557Y-97697534D01*
X82305222Y-97541009D01*
X82334552Y-97505271D01*
X82417814Y-97403814D01*
X82519271Y-97320552D01*
X82555009Y-97291222D01*
X82711534Y-97207557D01*
X82881373Y-97156037D01*
X82947557Y-97149519D01*
X83013740Y-97143000D01*
X83102260Y-97143000D01*
X83168443Y-97149519D01*
X83168443Y-97149519D01*
G37*
G36*
X80628443Y-97149519D02*
G01*
X80694627Y-97156037D01*
X80864466Y-97207557D01*
X81020991Y-97291222D01*
X81056729Y-97320552D01*
X81158186Y-97403814D01*
X81241448Y-97505271D01*
X81270778Y-97541009D01*
X81354443Y-97697534D01*
X81405963Y-97867373D01*
X81423359Y-98044000D01*
X81405963Y-98220627D01*
X81354443Y-98390466D01*
X81270778Y-98546991D01*
X81241448Y-98582729D01*
X81158186Y-98684186D01*
X81056729Y-98767448D01*
X81020991Y-98796778D01*
X80864466Y-98880443D01*
X80694627Y-98931963D01*
X80628443Y-98938481D01*
X80562260Y-98945000D01*
X80473740Y-98945000D01*
X80407558Y-98938482D01*
X80341373Y-98931963D01*
X80171534Y-98880443D01*
X80015009Y-98796778D01*
X79979271Y-98767448D01*
X79877814Y-98684186D01*
X79794552Y-98582729D01*
X79765222Y-98546991D01*
X79681557Y-98390466D01*
X79630037Y-98220627D01*
X79612641Y-98044000D01*
X79630037Y-97867373D01*
X79681557Y-97697534D01*
X79765222Y-97541009D01*
X79794552Y-97505271D01*
X79877814Y-97403814D01*
X79979271Y-97320552D01*
X80015009Y-97291222D01*
X80171534Y-97207557D01*
X80341373Y-97156037D01*
X80407557Y-97149519D01*
X80473740Y-97143000D01*
X80562260Y-97143000D01*
X80628443Y-97149519D01*
X80628443Y-97149519D01*
G37*
G36*
X90788443Y-97149519D02*
G01*
X90854627Y-97156037D01*
X91024466Y-97207557D01*
X91180991Y-97291222D01*
X91216729Y-97320552D01*
X91318186Y-97403814D01*
X91401448Y-97505271D01*
X91430778Y-97541009D01*
X91514443Y-97697534D01*
X91565963Y-97867373D01*
X91583359Y-98044000D01*
X91565963Y-98220627D01*
X91514443Y-98390466D01*
X91430778Y-98546991D01*
X91401448Y-98582729D01*
X91318186Y-98684186D01*
X91216729Y-98767448D01*
X91180991Y-98796778D01*
X91024466Y-98880443D01*
X90854627Y-98931963D01*
X90788443Y-98938481D01*
X90722260Y-98945000D01*
X90633740Y-98945000D01*
X90567558Y-98938482D01*
X90501373Y-98931963D01*
X90331534Y-98880443D01*
X90175009Y-98796778D01*
X90139271Y-98767448D01*
X90037814Y-98684186D01*
X89954552Y-98582729D01*
X89925222Y-98546991D01*
X89841557Y-98390466D01*
X89790037Y-98220627D01*
X89772641Y-98044000D01*
X89790037Y-97867373D01*
X89841557Y-97697534D01*
X89925222Y-97541009D01*
X89954552Y-97505271D01*
X90037814Y-97403814D01*
X90139271Y-97320552D01*
X90175009Y-97291222D01*
X90331534Y-97207557D01*
X90501373Y-97156037D01*
X90567558Y-97149518D01*
X90633740Y-97143000D01*
X90722260Y-97143000D01*
X90788443Y-97149519D01*
X90788443Y-97149519D01*
G37*
G36*
X93328443Y-97149519D02*
G01*
X93394627Y-97156037D01*
X93564466Y-97207557D01*
X93720991Y-97291222D01*
X93756729Y-97320552D01*
X93858186Y-97403814D01*
X93941448Y-97505271D01*
X93970778Y-97541009D01*
X94054443Y-97697534D01*
X94105963Y-97867373D01*
X94123359Y-98044000D01*
X94105963Y-98220627D01*
X94054443Y-98390466D01*
X93970778Y-98546991D01*
X93941448Y-98582729D01*
X93858186Y-98684186D01*
X93756729Y-98767448D01*
X93720991Y-98796778D01*
X93564466Y-98880443D01*
X93394627Y-98931963D01*
X93328443Y-98938481D01*
X93262260Y-98945000D01*
X93173740Y-98945000D01*
X93107558Y-98938482D01*
X93041373Y-98931963D01*
X92871534Y-98880443D01*
X92715009Y-98796778D01*
X92679271Y-98767448D01*
X92577814Y-98684186D01*
X92494552Y-98582729D01*
X92465222Y-98546991D01*
X92381557Y-98390466D01*
X92330037Y-98220627D01*
X92312641Y-98044000D01*
X92330037Y-97867373D01*
X92381557Y-97697534D01*
X92465222Y-97541009D01*
X92494552Y-97505271D01*
X92577814Y-97403814D01*
X92679271Y-97320552D01*
X92715009Y-97291222D01*
X92871534Y-97207557D01*
X93041373Y-97156037D01*
X93107558Y-97149518D01*
X93173740Y-97143000D01*
X93262260Y-97143000D01*
X93328443Y-97149519D01*
X93328443Y-97149519D01*
G37*
G36*
X75548443Y-97149519D02*
G01*
X75614627Y-97156037D01*
X75784466Y-97207557D01*
X75940991Y-97291222D01*
X75976729Y-97320552D01*
X76078186Y-97403814D01*
X76161448Y-97505271D01*
X76190778Y-97541009D01*
X76274443Y-97697534D01*
X76325963Y-97867373D01*
X76343359Y-98044000D01*
X76325963Y-98220627D01*
X76274443Y-98390466D01*
X76190778Y-98546991D01*
X76161448Y-98582729D01*
X76078186Y-98684186D01*
X75976729Y-98767448D01*
X75940991Y-98796778D01*
X75784466Y-98880443D01*
X75614627Y-98931963D01*
X75548443Y-98938481D01*
X75482260Y-98945000D01*
X75393740Y-98945000D01*
X75327558Y-98938482D01*
X75261373Y-98931963D01*
X75091534Y-98880443D01*
X74935009Y-98796778D01*
X74899271Y-98767448D01*
X74797814Y-98684186D01*
X74714552Y-98582729D01*
X74685222Y-98546991D01*
X74601557Y-98390466D01*
X74550037Y-98220627D01*
X74532641Y-98044000D01*
X74550037Y-97867373D01*
X74601557Y-97697534D01*
X74685222Y-97541009D01*
X74714552Y-97505271D01*
X74797814Y-97403814D01*
X74899271Y-97320552D01*
X74935009Y-97291222D01*
X75091534Y-97207557D01*
X75261373Y-97156037D01*
X75327557Y-97149519D01*
X75393740Y-97143000D01*
X75482260Y-97143000D01*
X75548443Y-97149519D01*
X75548443Y-97149519D01*
G37*
G36*
X73008443Y-97149519D02*
G01*
X73074627Y-97156037D01*
X73244466Y-97207557D01*
X73400991Y-97291222D01*
X73436729Y-97320552D01*
X73538186Y-97403814D01*
X73621448Y-97505271D01*
X73650778Y-97541009D01*
X73734443Y-97697534D01*
X73785963Y-97867373D01*
X73803359Y-98044000D01*
X73785963Y-98220627D01*
X73734443Y-98390466D01*
X73650778Y-98546991D01*
X73621448Y-98582729D01*
X73538186Y-98684186D01*
X73436729Y-98767448D01*
X73400991Y-98796778D01*
X73244466Y-98880443D01*
X73074627Y-98931963D01*
X73008443Y-98938481D01*
X72942260Y-98945000D01*
X72853740Y-98945000D01*
X72787558Y-98938482D01*
X72721373Y-98931963D01*
X72551534Y-98880443D01*
X72395009Y-98796778D01*
X72359271Y-98767448D01*
X72257814Y-98684186D01*
X72174552Y-98582729D01*
X72145222Y-98546991D01*
X72061557Y-98390466D01*
X72010037Y-98220627D01*
X71992641Y-98044000D01*
X72010037Y-97867373D01*
X72061557Y-97697534D01*
X72145222Y-97541009D01*
X72174552Y-97505271D01*
X72257814Y-97403814D01*
X72359271Y-97320552D01*
X72395009Y-97291222D01*
X72551534Y-97207557D01*
X72721373Y-97156037D01*
X72787557Y-97149519D01*
X72853740Y-97143000D01*
X72942260Y-97143000D01*
X73008443Y-97149519D01*
X73008443Y-97149519D01*
G37*
G36*
X70468443Y-97149519D02*
G01*
X70534627Y-97156037D01*
X70704466Y-97207557D01*
X70860991Y-97291222D01*
X70896729Y-97320552D01*
X70998186Y-97403814D01*
X71081448Y-97505271D01*
X71110778Y-97541009D01*
X71194443Y-97697534D01*
X71245963Y-97867373D01*
X71263359Y-98044000D01*
X71245963Y-98220627D01*
X71194443Y-98390466D01*
X71110778Y-98546991D01*
X71081448Y-98582729D01*
X70998186Y-98684186D01*
X70896729Y-98767448D01*
X70860991Y-98796778D01*
X70704466Y-98880443D01*
X70534627Y-98931963D01*
X70468443Y-98938481D01*
X70402260Y-98945000D01*
X70313740Y-98945000D01*
X70247558Y-98938482D01*
X70181373Y-98931963D01*
X70011534Y-98880443D01*
X69855009Y-98796778D01*
X69819271Y-98767448D01*
X69717814Y-98684186D01*
X69634552Y-98582729D01*
X69605222Y-98546991D01*
X69521557Y-98390466D01*
X69470037Y-98220627D01*
X69452641Y-98044000D01*
X69470037Y-97867373D01*
X69521557Y-97697534D01*
X69605222Y-97541009D01*
X69634552Y-97505271D01*
X69717814Y-97403814D01*
X69819271Y-97320552D01*
X69855009Y-97291222D01*
X70011534Y-97207557D01*
X70181373Y-97156037D01*
X70247557Y-97149519D01*
X70313740Y-97143000D01*
X70402260Y-97143000D01*
X70468443Y-97149519D01*
X70468443Y-97149519D01*
G37*
G36*
X67928443Y-97149519D02*
G01*
X67994627Y-97156037D01*
X68164466Y-97207557D01*
X68320991Y-97291222D01*
X68356729Y-97320552D01*
X68458186Y-97403814D01*
X68541448Y-97505271D01*
X68570778Y-97541009D01*
X68654443Y-97697534D01*
X68705963Y-97867373D01*
X68723359Y-98044000D01*
X68705963Y-98220627D01*
X68654443Y-98390466D01*
X68570778Y-98546991D01*
X68541448Y-98582729D01*
X68458186Y-98684186D01*
X68356729Y-98767448D01*
X68320991Y-98796778D01*
X68164466Y-98880443D01*
X67994627Y-98931963D01*
X67928442Y-98938482D01*
X67862260Y-98945000D01*
X67773740Y-98945000D01*
X67707558Y-98938482D01*
X67641373Y-98931963D01*
X67471534Y-98880443D01*
X67315009Y-98796778D01*
X67279271Y-98767448D01*
X67177814Y-98684186D01*
X67094552Y-98582729D01*
X67065222Y-98546991D01*
X66981557Y-98390466D01*
X66930037Y-98220627D01*
X66912641Y-98044000D01*
X66930037Y-97867373D01*
X66981557Y-97697534D01*
X67065222Y-97541009D01*
X67094552Y-97505271D01*
X67177814Y-97403814D01*
X67279271Y-97320552D01*
X67315009Y-97291222D01*
X67471534Y-97207557D01*
X67641373Y-97156037D01*
X67707557Y-97149519D01*
X67773740Y-97143000D01*
X67862260Y-97143000D01*
X67928443Y-97149519D01*
X67928443Y-97149519D01*
G37*
G36*
X65388443Y-97149519D02*
G01*
X65454627Y-97156037D01*
X65624466Y-97207557D01*
X65780991Y-97291222D01*
X65816729Y-97320552D01*
X65918186Y-97403814D01*
X66001448Y-97505271D01*
X66030778Y-97541009D01*
X66114443Y-97697534D01*
X66165963Y-97867373D01*
X66183359Y-98044000D01*
X66165963Y-98220627D01*
X66114443Y-98390466D01*
X66030778Y-98546991D01*
X66001448Y-98582729D01*
X65918186Y-98684186D01*
X65816729Y-98767448D01*
X65780991Y-98796778D01*
X65624466Y-98880443D01*
X65454627Y-98931963D01*
X65388442Y-98938482D01*
X65322260Y-98945000D01*
X65233740Y-98945000D01*
X65167558Y-98938482D01*
X65101373Y-98931963D01*
X64931534Y-98880443D01*
X64775009Y-98796778D01*
X64739271Y-98767448D01*
X64637814Y-98684186D01*
X64554552Y-98582729D01*
X64525222Y-98546991D01*
X64441557Y-98390466D01*
X64390037Y-98220627D01*
X64372641Y-98044000D01*
X64390037Y-97867373D01*
X64441557Y-97697534D01*
X64525222Y-97541009D01*
X64554552Y-97505271D01*
X64637814Y-97403814D01*
X64739271Y-97320552D01*
X64775009Y-97291222D01*
X64931534Y-97207557D01*
X65101373Y-97156037D01*
X65167557Y-97149519D01*
X65233740Y-97143000D01*
X65322260Y-97143000D01*
X65388443Y-97149519D01*
X65388443Y-97149519D01*
G37*
G36*
X62848443Y-97149519D02*
G01*
X62914627Y-97156037D01*
X63084466Y-97207557D01*
X63240991Y-97291222D01*
X63276729Y-97320552D01*
X63378186Y-97403814D01*
X63461448Y-97505271D01*
X63490778Y-97541009D01*
X63574443Y-97697534D01*
X63625963Y-97867373D01*
X63643359Y-98044000D01*
X63625963Y-98220627D01*
X63574443Y-98390466D01*
X63490778Y-98546991D01*
X63461448Y-98582729D01*
X63378186Y-98684186D01*
X63276729Y-98767448D01*
X63240991Y-98796778D01*
X63084466Y-98880443D01*
X62914627Y-98931963D01*
X62848442Y-98938482D01*
X62782260Y-98945000D01*
X62693740Y-98945000D01*
X62627558Y-98938482D01*
X62561373Y-98931963D01*
X62391534Y-98880443D01*
X62235009Y-98796778D01*
X62199271Y-98767448D01*
X62097814Y-98684186D01*
X62014552Y-98582729D01*
X61985222Y-98546991D01*
X61901557Y-98390466D01*
X61850037Y-98220627D01*
X61832641Y-98044000D01*
X61850037Y-97867373D01*
X61901557Y-97697534D01*
X61985222Y-97541009D01*
X62014552Y-97505271D01*
X62097814Y-97403814D01*
X62199271Y-97320552D01*
X62235009Y-97291222D01*
X62391534Y-97207557D01*
X62561373Y-97156037D01*
X62627557Y-97149519D01*
X62693740Y-97143000D01*
X62782260Y-97143000D01*
X62848443Y-97149519D01*
X62848443Y-97149519D01*
G37*
G36*
X60308443Y-97149519D02*
G01*
X60374627Y-97156037D01*
X60544466Y-97207557D01*
X60700991Y-97291222D01*
X60736729Y-97320552D01*
X60838186Y-97403814D01*
X60921448Y-97505271D01*
X60950778Y-97541009D01*
X61034443Y-97697534D01*
X61085963Y-97867373D01*
X61103359Y-98044000D01*
X61085963Y-98220627D01*
X61034443Y-98390466D01*
X60950778Y-98546991D01*
X60921448Y-98582729D01*
X60838186Y-98684186D01*
X60736729Y-98767448D01*
X60700991Y-98796778D01*
X60544466Y-98880443D01*
X60374627Y-98931963D01*
X60308442Y-98938482D01*
X60242260Y-98945000D01*
X60153740Y-98945000D01*
X60087558Y-98938482D01*
X60021373Y-98931963D01*
X59851534Y-98880443D01*
X59695009Y-98796778D01*
X59659271Y-98767448D01*
X59557814Y-98684186D01*
X59474552Y-98582729D01*
X59445222Y-98546991D01*
X59361557Y-98390466D01*
X59310037Y-98220627D01*
X59292641Y-98044000D01*
X59310037Y-97867373D01*
X59361557Y-97697534D01*
X59445222Y-97541009D01*
X59474552Y-97505271D01*
X59557814Y-97403814D01*
X59659271Y-97320552D01*
X59695009Y-97291222D01*
X59851534Y-97207557D01*
X60021373Y-97156037D01*
X60087557Y-97149519D01*
X60153740Y-97143000D01*
X60242260Y-97143000D01*
X60308443Y-97149519D01*
X60308443Y-97149519D01*
G37*
G36*
X84096874Y-94287565D02*
G01*
X84134567Y-94298999D01*
X84169303Y-94317566D01*
X84199748Y-94342552D01*
X84224734Y-94372997D01*
X84243301Y-94407733D01*
X84254735Y-94445426D01*
X84259200Y-94490761D01*
X84259200Y-95577439D01*
X84254735Y-95622774D01*
X84243301Y-95660467D01*
X84224734Y-95695203D01*
X84199748Y-95725648D01*
X84169303Y-95750634D01*
X84134567Y-95769201D01*
X84096874Y-95780635D01*
X84051539Y-95785100D01*
X83214861Y-95785100D01*
X83169526Y-95780635D01*
X83131833Y-95769201D01*
X83097097Y-95750634D01*
X83066652Y-95725648D01*
X83041666Y-95695203D01*
X83023099Y-95660467D01*
X83011665Y-95622774D01*
X83007200Y-95577439D01*
X83007200Y-94490761D01*
X83011665Y-94445426D01*
X83023099Y-94407733D01*
X83041666Y-94372997D01*
X83066652Y-94342552D01*
X83097097Y-94317566D01*
X83131833Y-94298999D01*
X83169526Y-94287565D01*
X83214861Y-94283100D01*
X84051539Y-94283100D01*
X84096874Y-94287565D01*
X84096874Y-94287565D01*
G37*
G36*
X86146874Y-94287565D02*
G01*
X86184567Y-94298999D01*
X86219303Y-94317566D01*
X86249748Y-94342552D01*
X86274734Y-94372997D01*
X86293301Y-94407733D01*
X86304735Y-94445426D01*
X86309200Y-94490761D01*
X86309200Y-95577439D01*
X86304735Y-95622774D01*
X86293301Y-95660467D01*
X86274734Y-95695203D01*
X86249748Y-95725648D01*
X86219303Y-95750634D01*
X86184567Y-95769201D01*
X86146874Y-95780635D01*
X86101539Y-95785100D01*
X85264861Y-95785100D01*
X85219526Y-95780635D01*
X85181833Y-95769201D01*
X85147097Y-95750634D01*
X85116652Y-95725648D01*
X85091666Y-95695203D01*
X85073099Y-95660467D01*
X85061665Y-95622774D01*
X85057200Y-95577439D01*
X85057200Y-94490761D01*
X85061665Y-94445426D01*
X85073099Y-94407733D01*
X85091666Y-94372997D01*
X85116652Y-94342552D01*
X85147097Y-94317566D01*
X85181833Y-94298999D01*
X85219526Y-94287565D01*
X85264861Y-94283100D01*
X86101539Y-94283100D01*
X86146874Y-94287565D01*
X86146874Y-94287565D01*
G37*
G36*
X74005674Y-94058965D02*
G01*
X74043367Y-94070399D01*
X74078103Y-94088966D01*
X74108548Y-94113952D01*
X74133534Y-94144397D01*
X74152101Y-94179133D01*
X74163535Y-94216826D01*
X74168000Y-94262161D01*
X74168000Y-95348839D01*
X74163535Y-95394174D01*
X74152101Y-95431867D01*
X74133534Y-95466603D01*
X74108548Y-95497048D01*
X74078103Y-95522034D01*
X74043367Y-95540601D01*
X74005674Y-95552035D01*
X73960339Y-95556500D01*
X73123661Y-95556500D01*
X73078326Y-95552035D01*
X73040633Y-95540601D01*
X73005897Y-95522034D01*
X72975452Y-95497048D01*
X72950466Y-95466603D01*
X72931899Y-95431867D01*
X72920465Y-95394174D01*
X72916000Y-95348839D01*
X72916000Y-94262161D01*
X72920465Y-94216826D01*
X72931899Y-94179133D01*
X72950466Y-94144397D01*
X72975452Y-94113952D01*
X73005897Y-94088966D01*
X73040633Y-94070399D01*
X73078326Y-94058965D01*
X73123661Y-94054500D01*
X73960339Y-94054500D01*
X74005674Y-94058965D01*
X74005674Y-94058965D01*
G37*
G36*
X71955674Y-94058965D02*
G01*
X71993367Y-94070399D01*
X72028103Y-94088966D01*
X72058548Y-94113952D01*
X72083534Y-94144397D01*
X72102101Y-94179133D01*
X72113535Y-94216826D01*
X72118000Y-94262161D01*
X72118000Y-95348839D01*
X72113535Y-95394174D01*
X72102101Y-95431867D01*
X72083534Y-95466603D01*
X72058548Y-95497048D01*
X72028103Y-95522034D01*
X71993367Y-95540601D01*
X71955674Y-95552035D01*
X71910339Y-95556500D01*
X71073661Y-95556500D01*
X71028326Y-95552035D01*
X70990633Y-95540601D01*
X70955897Y-95522034D01*
X70925452Y-95497048D01*
X70900466Y-95466603D01*
X70881899Y-95431867D01*
X70870465Y-95394174D01*
X70866000Y-95348839D01*
X70866000Y-94262161D01*
X70870465Y-94216826D01*
X70881899Y-94179133D01*
X70900466Y-94144397D01*
X70925452Y-94113952D01*
X70955897Y-94088966D01*
X70990633Y-94070399D01*
X71028326Y-94058965D01*
X71073661Y-94054500D01*
X71910339Y-94054500D01*
X71955674Y-94058965D01*
X71955674Y-94058965D01*
G37*
G36*
X76972400Y-95348400D02*
G01*
X74970400Y-95348400D01*
X74970400Y-94146400D01*
X76972400Y-94146400D01*
X76972400Y-95348400D01*
X76972400Y-95348400D01*
G37*
G36*
X55153574Y-93830365D02*
G01*
X55191267Y-93841799D01*
X55226003Y-93860366D01*
X55256448Y-93885352D01*
X55281434Y-93915797D01*
X55300001Y-93950533D01*
X55311435Y-93988226D01*
X55315900Y-94033561D01*
X55315900Y-95120239D01*
X55311435Y-95165574D01*
X55300001Y-95203267D01*
X55281434Y-95238003D01*
X55256448Y-95268448D01*
X55226003Y-95293434D01*
X55191267Y-95312001D01*
X55153574Y-95323435D01*
X55108239Y-95327900D01*
X54271561Y-95327900D01*
X54226226Y-95323435D01*
X54188533Y-95312001D01*
X54153797Y-95293434D01*
X54123352Y-95268448D01*
X54098366Y-95238003D01*
X54079799Y-95203267D01*
X54068365Y-95165574D01*
X54063900Y-95120239D01*
X54063900Y-94033561D01*
X54068365Y-93988226D01*
X54079799Y-93950533D01*
X54098366Y-93915797D01*
X54123352Y-93885352D01*
X54153797Y-93860366D01*
X54188533Y-93841799D01*
X54226226Y-93830365D01*
X54271561Y-93825900D01*
X55108239Y-93825900D01*
X55153574Y-93830365D01*
X55153574Y-93830365D01*
G37*
G36*
X57203574Y-93830365D02*
G01*
X57241267Y-93841799D01*
X57276003Y-93860366D01*
X57306448Y-93885352D01*
X57331434Y-93915797D01*
X57350001Y-93950533D01*
X57361435Y-93988226D01*
X57365900Y-94033561D01*
X57365900Y-95120239D01*
X57361435Y-95165574D01*
X57350001Y-95203267D01*
X57331434Y-95238003D01*
X57306448Y-95268448D01*
X57276003Y-95293434D01*
X57241267Y-95312001D01*
X57203574Y-95323435D01*
X57158239Y-95327900D01*
X56321561Y-95327900D01*
X56276226Y-95323435D01*
X56238533Y-95312001D01*
X56203797Y-95293434D01*
X56173352Y-95268448D01*
X56148366Y-95238003D01*
X56129799Y-95203267D01*
X56118365Y-95165574D01*
X56113900Y-95120239D01*
X56113900Y-94033561D01*
X56118365Y-93988226D01*
X56129799Y-93950533D01*
X56148366Y-93915797D01*
X56173352Y-93885352D01*
X56203797Y-93860366D01*
X56238533Y-93841799D01*
X56276226Y-93830365D01*
X56321561Y-93825900D01*
X57158239Y-93825900D01*
X57203574Y-93830365D01*
X57203574Y-93830365D01*
G37*
G36*
X58963574Y-93804965D02*
G01*
X59001267Y-93816399D01*
X59036003Y-93834966D01*
X59066448Y-93859952D01*
X59091434Y-93890397D01*
X59110001Y-93925133D01*
X59121435Y-93962826D01*
X59125900Y-94008161D01*
X59125900Y-95094839D01*
X59121435Y-95140174D01*
X59110001Y-95177867D01*
X59091434Y-95212603D01*
X59066448Y-95243048D01*
X59036003Y-95268034D01*
X59001267Y-95286601D01*
X58963574Y-95298035D01*
X58918239Y-95302500D01*
X58081561Y-95302500D01*
X58036226Y-95298035D01*
X57998533Y-95286601D01*
X57963797Y-95268034D01*
X57933352Y-95243048D01*
X57908366Y-95212603D01*
X57889799Y-95177867D01*
X57878365Y-95140174D01*
X57873900Y-95094839D01*
X57873900Y-94008161D01*
X57878365Y-93962826D01*
X57889799Y-93925133D01*
X57908366Y-93890397D01*
X57933352Y-93859952D01*
X57963797Y-93834966D01*
X57998533Y-93816399D01*
X58036226Y-93804965D01*
X58081561Y-93800500D01*
X58918239Y-93800500D01*
X58963574Y-93804965D01*
X58963574Y-93804965D01*
G37*
G36*
X61013574Y-93804965D02*
G01*
X61051267Y-93816399D01*
X61086003Y-93834966D01*
X61116448Y-93859952D01*
X61141434Y-93890397D01*
X61160001Y-93925133D01*
X61171435Y-93962826D01*
X61175900Y-94008161D01*
X61175900Y-95094839D01*
X61171435Y-95140174D01*
X61160001Y-95177867D01*
X61141434Y-95212603D01*
X61116448Y-95243048D01*
X61086003Y-95268034D01*
X61051267Y-95286601D01*
X61013574Y-95298035D01*
X60968239Y-95302500D01*
X60131561Y-95302500D01*
X60086226Y-95298035D01*
X60048533Y-95286601D01*
X60013797Y-95268034D01*
X59983352Y-95243048D01*
X59958366Y-95212603D01*
X59939799Y-95177867D01*
X59928365Y-95140174D01*
X59923900Y-95094839D01*
X59923900Y-94008161D01*
X59928365Y-93962826D01*
X59939799Y-93925133D01*
X59958366Y-93890397D01*
X59983352Y-93859952D01*
X60013797Y-93834966D01*
X60048533Y-93816399D01*
X60086226Y-93804965D01*
X60131561Y-93800500D01*
X60968239Y-93800500D01*
X61013574Y-93804965D01*
X61013574Y-93804965D01*
G37*
G36*
X91894674Y-93309665D02*
G01*
X91932367Y-93321099D01*
X91967103Y-93339666D01*
X91997548Y-93364652D01*
X92022534Y-93395097D01*
X92041101Y-93429833D01*
X92052535Y-93467526D01*
X92057000Y-93512861D01*
X92057000Y-94599539D01*
X92052535Y-94644874D01*
X92041101Y-94682567D01*
X92022534Y-94717303D01*
X91997548Y-94747748D01*
X91967103Y-94772734D01*
X91932367Y-94791301D01*
X91894674Y-94802735D01*
X91849339Y-94807200D01*
X91012661Y-94807200D01*
X90967326Y-94802735D01*
X90929633Y-94791301D01*
X90894897Y-94772734D01*
X90864452Y-94747748D01*
X90839466Y-94717303D01*
X90820899Y-94682567D01*
X90809465Y-94644874D01*
X90805000Y-94599539D01*
X90805000Y-93512861D01*
X90809465Y-93467526D01*
X90820899Y-93429833D01*
X90839466Y-93395097D01*
X90864452Y-93364652D01*
X90894897Y-93339666D01*
X90929633Y-93321099D01*
X90967326Y-93309665D01*
X91012661Y-93305200D01*
X91849339Y-93305200D01*
X91894674Y-93309665D01*
X91894674Y-93309665D01*
G37*
G36*
X93944674Y-93309665D02*
G01*
X93982367Y-93321099D01*
X94017103Y-93339666D01*
X94047548Y-93364652D01*
X94072534Y-93395097D01*
X94091101Y-93429833D01*
X94102535Y-93467526D01*
X94107000Y-93512861D01*
X94107000Y-94599539D01*
X94102535Y-94644874D01*
X94091101Y-94682567D01*
X94072534Y-94717303D01*
X94047548Y-94747748D01*
X94017103Y-94772734D01*
X93982367Y-94791301D01*
X93944674Y-94802735D01*
X93899339Y-94807200D01*
X93062661Y-94807200D01*
X93017326Y-94802735D01*
X92979633Y-94791301D01*
X92944897Y-94772734D01*
X92914452Y-94747748D01*
X92889466Y-94717303D01*
X92870899Y-94682567D01*
X92859465Y-94644874D01*
X92855000Y-94599539D01*
X92855000Y-93512861D01*
X92859465Y-93467526D01*
X92870899Y-93429833D01*
X92889466Y-93395097D01*
X92914452Y-93364652D01*
X92944897Y-93339666D01*
X92979633Y-93321099D01*
X93017326Y-93309665D01*
X93062661Y-93305200D01*
X93899339Y-93305200D01*
X93944674Y-93309665D01*
X93944674Y-93309665D01*
G37*
G36*
X90198174Y-93284265D02*
G01*
X90235867Y-93295699D01*
X90270603Y-93314266D01*
X90301048Y-93339252D01*
X90326034Y-93369697D01*
X90344601Y-93404433D01*
X90356035Y-93442126D01*
X90360500Y-93487461D01*
X90360500Y-94574139D01*
X90356035Y-94619474D01*
X90344601Y-94657167D01*
X90326034Y-94691903D01*
X90301048Y-94722348D01*
X90270603Y-94747334D01*
X90235867Y-94765901D01*
X90198174Y-94777335D01*
X90152839Y-94781800D01*
X89316161Y-94781800D01*
X89270826Y-94777335D01*
X89233133Y-94765901D01*
X89198397Y-94747334D01*
X89167952Y-94722348D01*
X89142966Y-94691903D01*
X89124399Y-94657167D01*
X89112965Y-94619474D01*
X89108500Y-94574139D01*
X89108500Y-93487461D01*
X89112965Y-93442126D01*
X89124399Y-93404433D01*
X89142966Y-93369697D01*
X89167952Y-93339252D01*
X89198397Y-93314266D01*
X89233133Y-93295699D01*
X89270826Y-93284265D01*
X89316161Y-93279800D01*
X90152839Y-93279800D01*
X90198174Y-93284265D01*
X90198174Y-93284265D01*
G37*
G36*
X88148174Y-93284265D02*
G01*
X88185867Y-93295699D01*
X88220603Y-93314266D01*
X88251048Y-93339252D01*
X88276034Y-93369697D01*
X88294601Y-93404433D01*
X88306035Y-93442126D01*
X88310500Y-93487461D01*
X88310500Y-94574139D01*
X88306035Y-94619474D01*
X88294601Y-94657167D01*
X88276034Y-94691903D01*
X88251048Y-94722348D01*
X88220603Y-94747334D01*
X88185867Y-94765901D01*
X88148174Y-94777335D01*
X88102839Y-94781800D01*
X87266161Y-94781800D01*
X87220826Y-94777335D01*
X87183133Y-94765901D01*
X87148397Y-94747334D01*
X87117952Y-94722348D01*
X87092966Y-94691903D01*
X87074399Y-94657167D01*
X87062965Y-94619474D01*
X87058500Y-94574139D01*
X87058500Y-93487461D01*
X87062965Y-93442126D01*
X87074399Y-93404433D01*
X87092966Y-93369697D01*
X87117952Y-93339252D01*
X87148397Y-93314266D01*
X87183133Y-93295699D01*
X87220826Y-93284265D01*
X87266161Y-93279800D01*
X88102839Y-93279800D01*
X88148174Y-93284265D01*
X88148174Y-93284265D01*
G37*
G36*
X67497974Y-92471465D02*
G01*
X67535667Y-92482899D01*
X67570403Y-92501466D01*
X67600848Y-92526452D01*
X67625834Y-92556897D01*
X67644401Y-92591633D01*
X67655835Y-92629326D01*
X67660300Y-92674661D01*
X67660300Y-93761339D01*
X67655835Y-93806674D01*
X67644401Y-93844367D01*
X67625834Y-93879103D01*
X67600848Y-93909548D01*
X67570403Y-93934534D01*
X67535667Y-93953101D01*
X67497974Y-93964535D01*
X67452639Y-93969000D01*
X66615961Y-93969000D01*
X66570626Y-93964535D01*
X66532933Y-93953101D01*
X66498197Y-93934534D01*
X66467752Y-93909548D01*
X66442766Y-93879103D01*
X66424199Y-93844367D01*
X66412765Y-93806674D01*
X66408300Y-93761339D01*
X66408300Y-92674661D01*
X66412765Y-92629326D01*
X66424199Y-92591633D01*
X66442766Y-92556897D01*
X66467752Y-92526452D01*
X66498197Y-92501466D01*
X66532933Y-92482899D01*
X66570626Y-92471465D01*
X66615961Y-92467000D01*
X67452639Y-92467000D01*
X67497974Y-92471465D01*
X67497974Y-92471465D01*
G37*
G36*
X69547974Y-92471465D02*
G01*
X69585667Y-92482899D01*
X69620403Y-92501466D01*
X69650848Y-92526452D01*
X69675834Y-92556897D01*
X69694401Y-92591633D01*
X69705835Y-92629326D01*
X69710300Y-92674661D01*
X69710300Y-93761339D01*
X69705835Y-93806674D01*
X69694401Y-93844367D01*
X69675834Y-93879103D01*
X69650848Y-93909548D01*
X69620403Y-93934534D01*
X69585667Y-93953101D01*
X69547974Y-93964535D01*
X69502639Y-93969000D01*
X68665961Y-93969000D01*
X68620626Y-93964535D01*
X68582933Y-93953101D01*
X68548197Y-93934534D01*
X68517752Y-93909548D01*
X68492766Y-93879103D01*
X68474199Y-93844367D01*
X68462765Y-93806674D01*
X68458300Y-93761339D01*
X68458300Y-92674661D01*
X68462765Y-92629326D01*
X68474199Y-92591633D01*
X68492766Y-92556897D01*
X68517752Y-92526452D01*
X68548197Y-92501466D01*
X68582933Y-92482899D01*
X68620626Y-92471465D01*
X68665961Y-92467000D01*
X69502639Y-92467000D01*
X69547974Y-92471465D01*
X69547974Y-92471465D01*
G37*
G36*
X83698000Y-93762000D02*
G01*
X77846000Y-93762000D01*
X77846000Y-91660000D01*
X83698000Y-91660000D01*
X83698000Y-93762000D01*
X83698000Y-93762000D01*
G37*
G36*
X74018374Y-92115865D02*
G01*
X74056067Y-92127299D01*
X74090803Y-92145866D01*
X74121248Y-92170852D01*
X74146234Y-92201297D01*
X74164801Y-92236033D01*
X74176235Y-92273726D01*
X74180700Y-92319061D01*
X74180700Y-93405739D01*
X74176235Y-93451074D01*
X74164801Y-93488767D01*
X74146234Y-93523503D01*
X74121248Y-93553948D01*
X74090803Y-93578934D01*
X74056067Y-93597501D01*
X74018374Y-93608935D01*
X73973039Y-93613400D01*
X73136361Y-93613400D01*
X73091026Y-93608935D01*
X73053333Y-93597501D01*
X73018597Y-93578934D01*
X72988152Y-93553948D01*
X72963166Y-93523503D01*
X72944599Y-93488767D01*
X72933165Y-93451074D01*
X72928700Y-93405739D01*
X72928700Y-92319061D01*
X72933165Y-92273726D01*
X72944599Y-92236033D01*
X72963166Y-92201297D01*
X72988152Y-92170852D01*
X73018597Y-92145866D01*
X73053333Y-92127299D01*
X73091026Y-92115865D01*
X73136361Y-92111400D01*
X73973039Y-92111400D01*
X74018374Y-92115865D01*
X74018374Y-92115865D01*
G37*
G36*
X71968374Y-92115865D02*
G01*
X72006067Y-92127299D01*
X72040803Y-92145866D01*
X72071248Y-92170852D01*
X72096234Y-92201297D01*
X72114801Y-92236033D01*
X72126235Y-92273726D01*
X72130700Y-92319061D01*
X72130700Y-93405739D01*
X72126235Y-93451074D01*
X72114801Y-93488767D01*
X72096234Y-93523503D01*
X72071248Y-93553948D01*
X72040803Y-93578934D01*
X72006067Y-93597501D01*
X71968374Y-93608935D01*
X71923039Y-93613400D01*
X71086361Y-93613400D01*
X71041026Y-93608935D01*
X71003333Y-93597501D01*
X70968597Y-93578934D01*
X70938152Y-93553948D01*
X70913166Y-93523503D01*
X70894599Y-93488767D01*
X70883165Y-93451074D01*
X70878700Y-93405739D01*
X70878700Y-92319061D01*
X70883165Y-92273726D01*
X70894599Y-92236033D01*
X70913166Y-92201297D01*
X70938152Y-92170852D01*
X70968597Y-92145866D01*
X71003333Y-92127299D01*
X71041026Y-92115865D01*
X71086361Y-92111400D01*
X71923039Y-92111400D01*
X71968374Y-92115865D01*
X71968374Y-92115865D01*
G37*
G36*
X76972400Y-92848400D02*
G01*
X74970400Y-92848400D01*
X74970400Y-91646400D01*
X76972400Y-91646400D01*
X76972400Y-92848400D01*
X76972400Y-92848400D01*
G37*
G36*
X57484400Y-84508001D02*
G01*
X57486802Y-84532387D01*
X57493915Y-84555836D01*
X57505466Y-84577447D01*
X57521011Y-84596389D01*
X57539953Y-84611934D01*
X57561564Y-84623485D01*
X57585013Y-84630598D01*
X57609399Y-84633000D01*
X59884400Y-84633000D01*
X59884400Y-91135000D01*
X57609399Y-91135000D01*
X57585013Y-91137402D01*
X57561564Y-91144515D01*
X57539953Y-91156066D01*
X57521011Y-91171611D01*
X57505466Y-91190553D01*
X57493915Y-91212164D01*
X57486802Y-91235613D01*
X57484400Y-91259999D01*
X57484400Y-92032500D01*
X55482400Y-92032500D01*
X55482400Y-88085500D01*
X57484400Y-88085500D01*
X57484400Y-89433001D01*
X57486802Y-89457387D01*
X57493915Y-89480836D01*
X57505466Y-89502447D01*
X57521011Y-89521389D01*
X57539953Y-89536934D01*
X57561564Y-89548485D01*
X57585013Y-89555598D01*
X57609399Y-89558000D01*
X58277401Y-89558000D01*
X58301787Y-89555598D01*
X58325236Y-89548485D01*
X58346847Y-89536934D01*
X58365789Y-89521389D01*
X58381334Y-89502447D01*
X58392885Y-89480836D01*
X58399998Y-89457387D01*
X58402400Y-89433001D01*
X58402400Y-86334999D01*
X58399998Y-86310613D01*
X58392885Y-86287164D01*
X58381334Y-86265553D01*
X58365789Y-86246611D01*
X58346847Y-86231066D01*
X58325236Y-86219515D01*
X58301787Y-86212402D01*
X58277401Y-86210000D01*
X57609399Y-86210000D01*
X57585013Y-86212402D01*
X57561564Y-86219515D01*
X57539953Y-86231066D01*
X57521011Y-86246611D01*
X57505466Y-86265553D01*
X57493915Y-86287164D01*
X57486802Y-86310613D01*
X57484400Y-86334999D01*
X57484400Y-87682500D01*
X55482400Y-87682500D01*
X55482400Y-83735500D01*
X57484400Y-83735500D01*
X57484400Y-84508001D01*
X57484400Y-84508001D01*
G37*
G36*
X91393674Y-90167065D02*
G01*
X91431367Y-90178499D01*
X91466103Y-90197066D01*
X91496548Y-90222052D01*
X91521534Y-90252497D01*
X91540101Y-90287233D01*
X91551535Y-90324926D01*
X91556000Y-90370261D01*
X91556000Y-91206939D01*
X91551535Y-91252274D01*
X91540101Y-91289967D01*
X91521534Y-91324703D01*
X91496548Y-91355148D01*
X91466103Y-91380134D01*
X91431367Y-91398701D01*
X91393674Y-91410135D01*
X91348339Y-91414600D01*
X90261661Y-91414600D01*
X90216326Y-91410135D01*
X90178633Y-91398701D01*
X90143897Y-91380134D01*
X90113452Y-91355148D01*
X90088466Y-91324703D01*
X90069899Y-91289967D01*
X90058465Y-91252274D01*
X90054000Y-91206939D01*
X90054000Y-90370261D01*
X90058465Y-90324926D01*
X90069899Y-90287233D01*
X90088466Y-90252497D01*
X90113452Y-90222052D01*
X90143897Y-90197066D01*
X90178633Y-90178499D01*
X90216326Y-90167065D01*
X90261661Y-90162600D01*
X91348339Y-90162600D01*
X91393674Y-90167065D01*
X91393674Y-90167065D01*
G37*
G36*
X89361674Y-90167065D02*
G01*
X89399367Y-90178499D01*
X89434103Y-90197066D01*
X89464548Y-90222052D01*
X89489534Y-90252497D01*
X89508101Y-90287233D01*
X89519535Y-90324926D01*
X89524000Y-90370261D01*
X89524000Y-91206939D01*
X89519535Y-91252274D01*
X89508101Y-91289967D01*
X89489534Y-91324703D01*
X89464548Y-91355148D01*
X89434103Y-91380134D01*
X89399367Y-91398701D01*
X89361674Y-91410135D01*
X89316339Y-91414600D01*
X88229661Y-91414600D01*
X88184326Y-91410135D01*
X88146633Y-91398701D01*
X88111897Y-91380134D01*
X88081452Y-91355148D01*
X88056466Y-91324703D01*
X88037899Y-91289967D01*
X88026465Y-91252274D01*
X88022000Y-91206939D01*
X88022000Y-90370261D01*
X88026465Y-90324926D01*
X88037899Y-90287233D01*
X88056466Y-90252497D01*
X88081452Y-90222052D01*
X88111897Y-90197066D01*
X88146633Y-90178499D01*
X88184326Y-90167065D01*
X88229661Y-90162600D01*
X89316339Y-90162600D01*
X89361674Y-90167065D01*
X89361674Y-90167065D01*
G37*
G36*
X63649874Y-89880665D02*
G01*
X63687567Y-89892099D01*
X63722303Y-89910666D01*
X63752748Y-89935652D01*
X63777734Y-89966097D01*
X63796301Y-90000833D01*
X63807735Y-90038526D01*
X63812200Y-90083861D01*
X63812200Y-91170539D01*
X63807735Y-91215874D01*
X63796301Y-91253567D01*
X63777734Y-91288303D01*
X63752748Y-91318748D01*
X63722303Y-91343734D01*
X63687567Y-91362301D01*
X63649874Y-91373735D01*
X63604539Y-91378200D01*
X62767861Y-91378200D01*
X62722526Y-91373735D01*
X62684833Y-91362301D01*
X62650097Y-91343734D01*
X62619652Y-91318748D01*
X62594666Y-91288303D01*
X62576099Y-91253567D01*
X62564665Y-91215874D01*
X62560200Y-91170539D01*
X62560200Y-90083861D01*
X62564665Y-90038526D01*
X62576099Y-90000833D01*
X62594666Y-89966097D01*
X62619652Y-89935652D01*
X62650097Y-89910666D01*
X62684833Y-89892099D01*
X62722526Y-89880665D01*
X62767861Y-89876200D01*
X63604539Y-89876200D01*
X63649874Y-89880665D01*
X63649874Y-89880665D01*
G37*
G36*
X65699874Y-89880665D02*
G01*
X65737567Y-89892099D01*
X65772303Y-89910666D01*
X65802748Y-89935652D01*
X65827734Y-89966097D01*
X65846301Y-90000833D01*
X65857735Y-90038526D01*
X65862200Y-90083861D01*
X65862200Y-91170539D01*
X65857735Y-91215874D01*
X65846301Y-91253567D01*
X65827734Y-91288303D01*
X65802748Y-91318748D01*
X65772303Y-91343734D01*
X65737567Y-91362301D01*
X65699874Y-91373735D01*
X65654539Y-91378200D01*
X64817861Y-91378200D01*
X64772526Y-91373735D01*
X64734833Y-91362301D01*
X64700097Y-91343734D01*
X64669652Y-91318748D01*
X64644666Y-91288303D01*
X64626099Y-91253567D01*
X64614665Y-91215874D01*
X64610200Y-91170539D01*
X64610200Y-90083861D01*
X64614665Y-90038526D01*
X64626099Y-90000833D01*
X64644666Y-89966097D01*
X64669652Y-89935652D01*
X64700097Y-89910666D01*
X64734833Y-89892099D01*
X64772526Y-89880665D01*
X64817861Y-89876200D01*
X65654539Y-89876200D01*
X65699874Y-89880665D01*
X65699874Y-89880665D01*
G37*
G36*
X77123000Y-90937000D02*
G01*
X75021000Y-90937000D01*
X75021000Y-85085000D01*
X77123000Y-85085000D01*
X77123000Y-90937000D01*
X77123000Y-90937000D01*
G37*
G36*
X86523000Y-90937000D02*
G01*
X84421000Y-90937000D01*
X84421000Y-85085000D01*
X86523000Y-85085000D01*
X86523000Y-90937000D01*
X86523000Y-90937000D01*
G37*
G36*
X68082174Y-87988365D02*
G01*
X68119867Y-87999799D01*
X68154603Y-88018366D01*
X68185048Y-88043352D01*
X68210034Y-88073797D01*
X68228601Y-88108533D01*
X68240035Y-88146226D01*
X68244500Y-88191561D01*
X68244500Y-89278239D01*
X68240035Y-89323574D01*
X68228601Y-89361267D01*
X68210034Y-89396003D01*
X68185048Y-89426448D01*
X68154603Y-89451434D01*
X68119867Y-89470001D01*
X68082174Y-89481435D01*
X68036839Y-89485900D01*
X67200161Y-89485900D01*
X67154826Y-89481435D01*
X67117133Y-89470001D01*
X67082397Y-89451434D01*
X67051952Y-89426448D01*
X67026966Y-89396003D01*
X67008399Y-89361267D01*
X66996965Y-89323574D01*
X66992500Y-89278239D01*
X66992500Y-88191561D01*
X66996965Y-88146226D01*
X67008399Y-88108533D01*
X67026966Y-88073797D01*
X67051952Y-88043352D01*
X67082397Y-88018366D01*
X67117133Y-87999799D01*
X67154826Y-87988365D01*
X67200161Y-87983900D01*
X68036839Y-87983900D01*
X68082174Y-87988365D01*
X68082174Y-87988365D01*
G37*
G36*
X70132174Y-87988365D02*
G01*
X70169867Y-87999799D01*
X70204603Y-88018366D01*
X70235048Y-88043352D01*
X70260034Y-88073797D01*
X70278601Y-88108533D01*
X70290035Y-88146226D01*
X70294500Y-88191561D01*
X70294500Y-89278239D01*
X70290035Y-89323574D01*
X70278601Y-89361267D01*
X70260034Y-89396003D01*
X70235048Y-89426448D01*
X70204603Y-89451434D01*
X70169867Y-89470001D01*
X70132174Y-89481435D01*
X70086839Y-89485900D01*
X69250161Y-89485900D01*
X69204826Y-89481435D01*
X69167133Y-89470001D01*
X69132397Y-89451434D01*
X69101952Y-89426448D01*
X69076966Y-89396003D01*
X69058399Y-89361267D01*
X69046965Y-89323574D01*
X69042500Y-89278239D01*
X69042500Y-88191561D01*
X69046965Y-88146226D01*
X69058399Y-88108533D01*
X69076966Y-88073797D01*
X69101952Y-88043352D01*
X69132397Y-88018366D01*
X69167133Y-87999799D01*
X69204826Y-87988365D01*
X69250161Y-87983900D01*
X70086839Y-87983900D01*
X70132174Y-87988365D01*
X70132174Y-87988365D01*
G37*
G36*
X63649874Y-87924865D02*
G01*
X63687567Y-87936299D01*
X63722303Y-87954866D01*
X63752748Y-87979852D01*
X63777734Y-88010297D01*
X63796301Y-88045033D01*
X63807735Y-88082726D01*
X63812200Y-88128061D01*
X63812200Y-89214739D01*
X63807735Y-89260074D01*
X63796301Y-89297767D01*
X63777734Y-89332503D01*
X63752748Y-89362948D01*
X63722303Y-89387934D01*
X63687567Y-89406501D01*
X63649874Y-89417935D01*
X63604539Y-89422400D01*
X62767861Y-89422400D01*
X62722526Y-89417935D01*
X62684833Y-89406501D01*
X62650097Y-89387934D01*
X62619652Y-89362948D01*
X62594666Y-89332503D01*
X62576099Y-89297767D01*
X62564665Y-89260074D01*
X62560200Y-89214739D01*
X62560200Y-88128061D01*
X62564665Y-88082726D01*
X62576099Y-88045033D01*
X62594666Y-88010297D01*
X62619652Y-87979852D01*
X62650097Y-87954866D01*
X62684833Y-87936299D01*
X62722526Y-87924865D01*
X62767861Y-87920400D01*
X63604539Y-87920400D01*
X63649874Y-87924865D01*
X63649874Y-87924865D01*
G37*
G36*
X65699874Y-87924865D02*
G01*
X65737567Y-87936299D01*
X65772303Y-87954866D01*
X65802748Y-87979852D01*
X65827734Y-88010297D01*
X65846301Y-88045033D01*
X65857735Y-88082726D01*
X65862200Y-88128061D01*
X65862200Y-89214739D01*
X65857735Y-89260074D01*
X65846301Y-89297767D01*
X65827734Y-89332503D01*
X65802748Y-89362948D01*
X65772303Y-89387934D01*
X65737567Y-89406501D01*
X65699874Y-89417935D01*
X65654539Y-89422400D01*
X64817861Y-89422400D01*
X64772526Y-89417935D01*
X64734833Y-89406501D01*
X64700097Y-89387934D01*
X64669652Y-89362948D01*
X64644666Y-89332503D01*
X64626099Y-89297767D01*
X64614665Y-89260074D01*
X64610200Y-89214739D01*
X64610200Y-88128061D01*
X64614665Y-88082726D01*
X64626099Y-88045033D01*
X64644666Y-88010297D01*
X64669652Y-87979852D01*
X64700097Y-87954866D01*
X64734833Y-87936299D01*
X64772526Y-87924865D01*
X64817861Y-87920400D01*
X65654539Y-87920400D01*
X65699874Y-87924865D01*
X65699874Y-87924865D01*
G37*
G36*
X99521800Y-89408400D02*
G01*
X98119800Y-89408400D01*
X98119800Y-87756400D01*
X99521800Y-87756400D01*
X99521800Y-89408400D01*
X99521800Y-89408400D01*
G37*
G36*
X95021800Y-89408400D02*
G01*
X93619800Y-89408400D01*
X93619800Y-87756400D01*
X95021800Y-87756400D01*
X95021800Y-89408400D01*
X95021800Y-89408400D01*
G37*
G36*
X91393674Y-88117065D02*
G01*
X91431367Y-88128499D01*
X91466103Y-88147066D01*
X91496548Y-88172052D01*
X91521534Y-88202497D01*
X91540101Y-88237233D01*
X91551535Y-88274926D01*
X91556000Y-88320261D01*
X91556000Y-89156939D01*
X91551535Y-89202274D01*
X91540101Y-89239967D01*
X91521534Y-89274703D01*
X91496548Y-89305148D01*
X91466103Y-89330134D01*
X91431367Y-89348701D01*
X91393674Y-89360135D01*
X91348339Y-89364600D01*
X90261661Y-89364600D01*
X90216326Y-89360135D01*
X90178633Y-89348701D01*
X90143897Y-89330134D01*
X90113452Y-89305148D01*
X90088466Y-89274703D01*
X90069899Y-89239967D01*
X90058465Y-89202274D01*
X90054000Y-89156939D01*
X90054000Y-88320261D01*
X90058465Y-88274926D01*
X90069899Y-88237233D01*
X90088466Y-88202497D01*
X90113452Y-88172052D01*
X90143897Y-88147066D01*
X90178633Y-88128499D01*
X90216326Y-88117065D01*
X90261661Y-88112600D01*
X91348339Y-88112600D01*
X91393674Y-88117065D01*
X91393674Y-88117065D01*
G37*
G36*
X89361674Y-88117065D02*
G01*
X89399367Y-88128499D01*
X89434103Y-88147066D01*
X89464548Y-88172052D01*
X89489534Y-88202497D01*
X89508101Y-88237233D01*
X89519535Y-88274926D01*
X89524000Y-88320261D01*
X89524000Y-89156939D01*
X89519535Y-89202274D01*
X89508101Y-89239967D01*
X89489534Y-89274703D01*
X89464548Y-89305148D01*
X89434103Y-89330134D01*
X89399367Y-89348701D01*
X89361674Y-89360135D01*
X89316339Y-89364600D01*
X88229661Y-89364600D01*
X88184326Y-89360135D01*
X88146633Y-89348701D01*
X88111897Y-89330134D01*
X88081452Y-89305148D01*
X88056466Y-89274703D01*
X88037899Y-89239967D01*
X88026465Y-89202274D01*
X88022000Y-89156939D01*
X88022000Y-88320261D01*
X88026465Y-88274926D01*
X88037899Y-88237233D01*
X88056466Y-88202497D01*
X88081452Y-88172052D01*
X88111897Y-88147066D01*
X88146633Y-88128499D01*
X88184326Y-88117065D01*
X88229661Y-88112600D01*
X89316339Y-88112600D01*
X89361674Y-88117065D01*
X89361674Y-88117065D01*
G37*
G36*
X72191274Y-87868365D02*
G01*
X72228967Y-87879799D01*
X72263703Y-87898366D01*
X72294148Y-87923352D01*
X72319134Y-87953797D01*
X72337701Y-87988533D01*
X72349135Y-88026226D01*
X72353600Y-88071561D01*
X72353600Y-88908239D01*
X72349135Y-88953574D01*
X72337701Y-88991267D01*
X72319134Y-89026003D01*
X72294148Y-89056448D01*
X72263703Y-89081434D01*
X72228967Y-89100001D01*
X72191274Y-89111435D01*
X72145939Y-89115900D01*
X71059261Y-89115900D01*
X71013926Y-89111435D01*
X70976233Y-89100001D01*
X70941497Y-89081434D01*
X70911052Y-89056448D01*
X70886066Y-89026003D01*
X70867499Y-88991267D01*
X70856065Y-88953574D01*
X70851600Y-88908239D01*
X70851600Y-88071561D01*
X70856065Y-88026226D01*
X70867499Y-87988533D01*
X70886066Y-87953797D01*
X70911052Y-87923352D01*
X70941497Y-87898366D01*
X70976233Y-87879799D01*
X71013926Y-87868365D01*
X71059261Y-87863900D01*
X72145939Y-87863900D01*
X72191274Y-87868365D01*
X72191274Y-87868365D01*
G37*
G36*
X74159774Y-87842965D02*
G01*
X74197467Y-87854399D01*
X74232203Y-87872966D01*
X74262648Y-87897952D01*
X74287634Y-87928397D01*
X74306201Y-87963133D01*
X74317635Y-88000826D01*
X74322100Y-88046161D01*
X74322100Y-88882839D01*
X74317635Y-88928174D01*
X74306201Y-88965867D01*
X74287634Y-89000603D01*
X74262648Y-89031048D01*
X74232203Y-89056034D01*
X74197467Y-89074601D01*
X74159774Y-89086035D01*
X74114439Y-89090500D01*
X73027761Y-89090500D01*
X72982426Y-89086035D01*
X72944733Y-89074601D01*
X72909997Y-89056034D01*
X72879552Y-89031048D01*
X72854566Y-89000603D01*
X72835999Y-88965867D01*
X72824565Y-88928174D01*
X72820100Y-88882839D01*
X72820100Y-88046161D01*
X72824565Y-88000826D01*
X72835999Y-87963133D01*
X72854566Y-87928397D01*
X72879552Y-87897952D01*
X72909997Y-87872966D01*
X72944733Y-87854399D01*
X72982426Y-87842965D01*
X73027761Y-87838500D01*
X74114439Y-87838500D01*
X74159774Y-87842965D01*
X74159774Y-87842965D01*
G37*
G36*
X72191274Y-85818365D02*
G01*
X72228967Y-85829799D01*
X72263703Y-85848366D01*
X72294148Y-85873352D01*
X72319134Y-85903797D01*
X72337701Y-85938533D01*
X72349135Y-85976226D01*
X72353600Y-86021561D01*
X72353600Y-86858239D01*
X72349135Y-86903574D01*
X72337701Y-86941267D01*
X72319134Y-86976003D01*
X72294148Y-87006448D01*
X72263703Y-87031434D01*
X72228967Y-87050001D01*
X72191274Y-87061435D01*
X72145939Y-87065900D01*
X71059261Y-87065900D01*
X71013926Y-87061435D01*
X70976233Y-87050001D01*
X70941497Y-87031434D01*
X70911052Y-87006448D01*
X70886066Y-86976003D01*
X70867499Y-86941267D01*
X70856065Y-86903574D01*
X70851600Y-86858239D01*
X70851600Y-86021561D01*
X70856065Y-85976226D01*
X70867499Y-85938533D01*
X70886066Y-85903797D01*
X70911052Y-85873352D01*
X70941497Y-85848366D01*
X70976233Y-85829799D01*
X71013926Y-85818365D01*
X71059261Y-85813900D01*
X72145939Y-85813900D01*
X72191274Y-85818365D01*
X72191274Y-85818365D01*
G37*
G36*
X74159774Y-85792965D02*
G01*
X74197467Y-85804399D01*
X74232203Y-85822966D01*
X74262648Y-85847952D01*
X74287634Y-85878397D01*
X74306201Y-85913133D01*
X74317635Y-85950826D01*
X74322100Y-85996161D01*
X74322100Y-86832839D01*
X74317635Y-86878174D01*
X74306201Y-86915867D01*
X74287634Y-86950603D01*
X74262648Y-86981048D01*
X74232203Y-87006034D01*
X74197467Y-87024601D01*
X74159774Y-87036035D01*
X74114439Y-87040500D01*
X73027761Y-87040500D01*
X72982426Y-87036035D01*
X72944733Y-87024601D01*
X72909997Y-87006034D01*
X72879552Y-86981048D01*
X72854566Y-86950603D01*
X72835999Y-86915867D01*
X72824565Y-86878174D01*
X72820100Y-86832839D01*
X72820100Y-85996161D01*
X72824565Y-85950826D01*
X72835999Y-85913133D01*
X72854566Y-85878397D01*
X72879552Y-85847952D01*
X72909997Y-85822966D01*
X72944733Y-85804399D01*
X72982426Y-85792965D01*
X73027761Y-85788500D01*
X74114439Y-85788500D01*
X74159774Y-85792965D01*
X74159774Y-85792965D01*
G37*
G36*
X64095400Y-86849200D02*
G01*
X62243400Y-86849200D01*
X62243400Y-85797200D01*
X64095400Y-85797200D01*
X64095400Y-86849200D01*
X64095400Y-86849200D01*
G37*
G36*
X70395400Y-85699200D02*
G01*
X68543400Y-85699200D01*
X68543400Y-82347200D01*
X70395400Y-82347200D01*
X70395400Y-85699200D01*
X70395400Y-85699200D01*
G37*
G36*
X64095400Y-84549200D02*
G01*
X62243400Y-84549200D01*
X62243400Y-83497200D01*
X64095400Y-83497200D01*
X64095400Y-84549200D01*
X64095400Y-84549200D01*
G37*
G36*
X83698000Y-84362000D02*
G01*
X77846000Y-84362000D01*
X77846000Y-82260000D01*
X83698000Y-82260000D01*
X83698000Y-84362000D01*
X83698000Y-84362000D01*
G37*
G36*
X64095400Y-82249200D02*
G01*
X62243400Y-82249200D01*
X62243400Y-81197200D01*
X64095400Y-81197200D01*
X64095400Y-82249200D01*
X64095400Y-82249200D01*
G37*
G36*
X61483474Y-80381065D02*
G01*
X61521167Y-80392499D01*
X61555903Y-80411066D01*
X61586348Y-80436052D01*
X61611334Y-80466497D01*
X61629901Y-80501233D01*
X61641335Y-80538926D01*
X61645800Y-80584261D01*
X61645800Y-81670939D01*
X61641335Y-81716274D01*
X61629901Y-81753967D01*
X61611334Y-81788703D01*
X61586348Y-81819148D01*
X61555903Y-81844134D01*
X61521167Y-81862701D01*
X61483474Y-81874135D01*
X61438139Y-81878600D01*
X60601461Y-81878600D01*
X60556126Y-81874135D01*
X60518433Y-81862701D01*
X60483697Y-81844134D01*
X60453252Y-81819148D01*
X60428266Y-81788703D01*
X60409699Y-81753967D01*
X60398265Y-81716274D01*
X60393800Y-81670939D01*
X60393800Y-80584261D01*
X60398265Y-80538926D01*
X60409699Y-80501233D01*
X60428266Y-80466497D01*
X60453252Y-80436052D01*
X60483697Y-80411066D01*
X60518433Y-80392499D01*
X60556126Y-80381065D01*
X60601461Y-80376600D01*
X61438139Y-80376600D01*
X61483474Y-80381065D01*
X61483474Y-80381065D01*
G37*
G36*
X59433474Y-80381065D02*
G01*
X59471167Y-80392499D01*
X59505903Y-80411066D01*
X59536348Y-80436052D01*
X59561334Y-80466497D01*
X59579901Y-80501233D01*
X59591335Y-80538926D01*
X59595800Y-80584261D01*
X59595800Y-81670939D01*
X59591335Y-81716274D01*
X59579901Y-81753967D01*
X59561334Y-81788703D01*
X59536348Y-81819148D01*
X59505903Y-81844134D01*
X59471167Y-81862701D01*
X59433474Y-81874135D01*
X59388139Y-81878600D01*
X58551461Y-81878600D01*
X58506126Y-81874135D01*
X58468433Y-81862701D01*
X58433697Y-81844134D01*
X58403252Y-81819148D01*
X58378266Y-81788703D01*
X58359699Y-81753967D01*
X58348265Y-81716274D01*
X58343800Y-81670939D01*
X58343800Y-80584261D01*
X58348265Y-80538926D01*
X58359699Y-80501233D01*
X58378266Y-80466497D01*
X58403252Y-80436052D01*
X58433697Y-80411066D01*
X58468433Y-80392499D01*
X58506126Y-80381065D01*
X58551461Y-80376600D01*
X59388139Y-80376600D01*
X59433474Y-80381065D01*
X59433474Y-80381065D01*
G37*
G36*
X55090074Y-80228665D02*
G01*
X55127767Y-80240099D01*
X55162503Y-80258666D01*
X55192948Y-80283652D01*
X55217934Y-80314097D01*
X55236501Y-80348833D01*
X55247935Y-80386526D01*
X55252400Y-80431861D01*
X55252400Y-81518539D01*
X55247935Y-81563874D01*
X55236501Y-81601567D01*
X55217934Y-81636303D01*
X55192948Y-81666748D01*
X55162503Y-81691734D01*
X55127767Y-81710301D01*
X55090074Y-81721735D01*
X55044739Y-81726200D01*
X54208061Y-81726200D01*
X54162726Y-81721735D01*
X54125033Y-81710301D01*
X54090297Y-81691734D01*
X54059852Y-81666748D01*
X54034866Y-81636303D01*
X54016299Y-81601567D01*
X54004865Y-81563874D01*
X54000400Y-81518539D01*
X54000400Y-80431861D01*
X54004865Y-80386526D01*
X54016299Y-80348833D01*
X54034866Y-80314097D01*
X54059852Y-80283652D01*
X54090297Y-80258666D01*
X54125033Y-80240099D01*
X54162726Y-80228665D01*
X54208061Y-80224200D01*
X55044739Y-80224200D01*
X55090074Y-80228665D01*
X55090074Y-80228665D01*
G37*
G36*
X57140074Y-80228665D02*
G01*
X57177767Y-80240099D01*
X57212503Y-80258666D01*
X57242948Y-80283652D01*
X57267934Y-80314097D01*
X57286501Y-80348833D01*
X57297935Y-80386526D01*
X57302400Y-80431861D01*
X57302400Y-81518539D01*
X57297935Y-81563874D01*
X57286501Y-81601567D01*
X57267934Y-81636303D01*
X57242948Y-81666748D01*
X57212503Y-81691734D01*
X57177767Y-81710301D01*
X57140074Y-81721735D01*
X57094739Y-81726200D01*
X56258061Y-81726200D01*
X56212726Y-81721735D01*
X56175033Y-81710301D01*
X56140297Y-81691734D01*
X56109852Y-81666748D01*
X56084866Y-81636303D01*
X56066299Y-81601567D01*
X56054865Y-81563874D01*
X56050400Y-81518539D01*
X56050400Y-80431861D01*
X56054865Y-80386526D01*
X56066299Y-80348833D01*
X56084866Y-80314097D01*
X56109852Y-80283652D01*
X56140297Y-80258666D01*
X56175033Y-80240099D01*
X56212726Y-80228665D01*
X56258061Y-80224200D01*
X57094739Y-80224200D01*
X57140074Y-80228665D01*
X57140074Y-80228665D01*
G37*
G36*
X95021800Y-81458400D02*
G01*
X93619800Y-81458400D01*
X93619800Y-79806400D01*
X95021800Y-79806400D01*
X95021800Y-81458400D01*
X95021800Y-81458400D01*
G37*
G36*
X99521800Y-81458400D02*
G01*
X98119800Y-81458400D01*
X98119800Y-79806400D01*
X99521800Y-79806400D01*
X99521800Y-81458400D01*
X99521800Y-81458400D01*
G37*
G36*
X57114674Y-78120465D02*
G01*
X57152367Y-78131899D01*
X57187103Y-78150466D01*
X57217548Y-78175452D01*
X57242534Y-78205897D01*
X57261101Y-78240633D01*
X57272535Y-78278326D01*
X57277000Y-78323661D01*
X57277000Y-79410339D01*
X57272535Y-79455674D01*
X57261101Y-79493367D01*
X57242534Y-79528103D01*
X57217548Y-79558548D01*
X57187103Y-79583534D01*
X57152367Y-79602101D01*
X57114674Y-79613535D01*
X57069339Y-79618000D01*
X56232661Y-79618000D01*
X56187326Y-79613535D01*
X56149633Y-79602101D01*
X56114897Y-79583534D01*
X56084452Y-79558548D01*
X56059466Y-79528103D01*
X56040899Y-79493367D01*
X56029465Y-79455674D01*
X56025000Y-79410339D01*
X56025000Y-78323661D01*
X56029465Y-78278326D01*
X56040899Y-78240633D01*
X56059466Y-78205897D01*
X56084452Y-78175452D01*
X56114897Y-78150466D01*
X56149633Y-78131899D01*
X56187326Y-78120465D01*
X56232661Y-78116000D01*
X57069339Y-78116000D01*
X57114674Y-78120465D01*
X57114674Y-78120465D01*
G37*
G36*
X55064674Y-78120465D02*
G01*
X55102367Y-78131899D01*
X55137103Y-78150466D01*
X55167548Y-78175452D01*
X55192534Y-78205897D01*
X55211101Y-78240633D01*
X55222535Y-78278326D01*
X55227000Y-78323661D01*
X55227000Y-79410339D01*
X55222535Y-79455674D01*
X55211101Y-79493367D01*
X55192534Y-79528103D01*
X55167548Y-79558548D01*
X55137103Y-79583534D01*
X55102367Y-79602101D01*
X55064674Y-79613535D01*
X55019339Y-79618000D01*
X54182661Y-79618000D01*
X54137326Y-79613535D01*
X54099633Y-79602101D01*
X54064897Y-79583534D01*
X54034452Y-79558548D01*
X54009466Y-79528103D01*
X53990899Y-79493367D01*
X53979465Y-79455674D01*
X53975000Y-79410339D01*
X53975000Y-78323661D01*
X53979465Y-78278326D01*
X53990899Y-78240633D01*
X54009466Y-78205897D01*
X54034452Y-78175452D01*
X54064897Y-78150466D01*
X54099633Y-78131899D01*
X54137326Y-78120465D01*
X54182661Y-78116000D01*
X55019339Y-78116000D01*
X55064674Y-78120465D01*
X55064674Y-78120465D01*
G37*
G36*
X61099000Y-78625000D02*
G01*
X59297000Y-78625000D01*
X59297000Y-76823000D01*
X61099000Y-76823000D01*
X61099000Y-78625000D01*
X61099000Y-78625000D01*
G37*
G36*
X65388443Y-76829519D02*
G01*
X65454627Y-76836037D01*
X65624466Y-76887557D01*
X65780991Y-76971222D01*
X65816729Y-77000552D01*
X65918186Y-77083814D01*
X66001448Y-77185271D01*
X66030778Y-77221009D01*
X66114443Y-77377534D01*
X66165963Y-77547373D01*
X66183359Y-77724000D01*
X66165963Y-77900627D01*
X66114443Y-78070466D01*
X66030778Y-78226991D01*
X66019582Y-78240633D01*
X65918186Y-78364186D01*
X65816729Y-78447448D01*
X65780991Y-78476778D01*
X65624466Y-78560443D01*
X65454627Y-78611963D01*
X65388442Y-78618482D01*
X65322260Y-78625000D01*
X65233740Y-78625000D01*
X65167558Y-78618482D01*
X65101373Y-78611963D01*
X64931534Y-78560443D01*
X64775009Y-78476778D01*
X64739271Y-78447448D01*
X64637814Y-78364186D01*
X64536418Y-78240633D01*
X64525222Y-78226991D01*
X64441557Y-78070466D01*
X64390037Y-77900627D01*
X64372641Y-77724000D01*
X64390037Y-77547373D01*
X64441557Y-77377534D01*
X64525222Y-77221009D01*
X64554552Y-77185271D01*
X64637814Y-77083814D01*
X64739271Y-77000552D01*
X64775009Y-76971222D01*
X64931534Y-76887557D01*
X65101373Y-76836037D01*
X65167557Y-76829519D01*
X65233740Y-76823000D01*
X65322260Y-76823000D01*
X65388443Y-76829519D01*
X65388443Y-76829519D01*
G37*
G36*
X67928443Y-76829519D02*
G01*
X67994627Y-76836037D01*
X68164466Y-76887557D01*
X68320991Y-76971222D01*
X68356729Y-77000552D01*
X68458186Y-77083814D01*
X68541448Y-77185271D01*
X68570778Y-77221009D01*
X68654443Y-77377534D01*
X68705963Y-77547373D01*
X68723359Y-77724000D01*
X68705963Y-77900627D01*
X68654443Y-78070466D01*
X68570778Y-78226991D01*
X68559582Y-78240633D01*
X68458186Y-78364186D01*
X68356729Y-78447448D01*
X68320991Y-78476778D01*
X68164466Y-78560443D01*
X67994627Y-78611963D01*
X67928442Y-78618482D01*
X67862260Y-78625000D01*
X67773740Y-78625000D01*
X67707558Y-78618482D01*
X67641373Y-78611963D01*
X67471534Y-78560443D01*
X67315009Y-78476778D01*
X67279271Y-78447448D01*
X67177814Y-78364186D01*
X67076418Y-78240633D01*
X67065222Y-78226991D01*
X66981557Y-78070466D01*
X66930037Y-77900627D01*
X66912641Y-77724000D01*
X66930037Y-77547373D01*
X66981557Y-77377534D01*
X67065222Y-77221009D01*
X67094552Y-77185271D01*
X67177814Y-77083814D01*
X67279271Y-77000552D01*
X67315009Y-76971222D01*
X67471534Y-76887557D01*
X67641373Y-76836037D01*
X67707557Y-76829519D01*
X67773740Y-76823000D01*
X67862260Y-76823000D01*
X67928443Y-76829519D01*
X67928443Y-76829519D01*
G37*
G36*
X70468443Y-76829519D02*
G01*
X70534627Y-76836037D01*
X70704466Y-76887557D01*
X70860991Y-76971222D01*
X70896729Y-77000552D01*
X70998186Y-77083814D01*
X71081448Y-77185271D01*
X71110778Y-77221009D01*
X71194443Y-77377534D01*
X71245963Y-77547373D01*
X71263359Y-77724000D01*
X71245963Y-77900627D01*
X71194443Y-78070466D01*
X71110778Y-78226991D01*
X71099582Y-78240633D01*
X70998186Y-78364186D01*
X70896729Y-78447448D01*
X70860991Y-78476778D01*
X70704466Y-78560443D01*
X70534627Y-78611963D01*
X70468442Y-78618482D01*
X70402260Y-78625000D01*
X70313740Y-78625000D01*
X70247558Y-78618482D01*
X70181373Y-78611963D01*
X70011534Y-78560443D01*
X69855009Y-78476778D01*
X69819271Y-78447448D01*
X69717814Y-78364186D01*
X69616418Y-78240633D01*
X69605222Y-78226991D01*
X69521557Y-78070466D01*
X69470037Y-77900627D01*
X69452641Y-77724000D01*
X69470037Y-77547373D01*
X69521557Y-77377534D01*
X69605222Y-77221009D01*
X69634552Y-77185271D01*
X69717814Y-77083814D01*
X69819271Y-77000552D01*
X69855009Y-76971222D01*
X70011534Y-76887557D01*
X70181373Y-76836037D01*
X70247557Y-76829519D01*
X70313740Y-76823000D01*
X70402260Y-76823000D01*
X70468443Y-76829519D01*
X70468443Y-76829519D01*
G37*
G36*
X73008443Y-76829519D02*
G01*
X73074627Y-76836037D01*
X73244466Y-76887557D01*
X73400991Y-76971222D01*
X73436729Y-77000552D01*
X73538186Y-77083814D01*
X73621448Y-77185271D01*
X73650778Y-77221009D01*
X73734443Y-77377534D01*
X73785963Y-77547373D01*
X73803359Y-77724000D01*
X73785963Y-77900627D01*
X73734443Y-78070466D01*
X73650778Y-78226991D01*
X73639582Y-78240633D01*
X73538186Y-78364186D01*
X73436729Y-78447448D01*
X73400991Y-78476778D01*
X73244466Y-78560443D01*
X73074627Y-78611963D01*
X73008442Y-78618482D01*
X72942260Y-78625000D01*
X72853740Y-78625000D01*
X72787558Y-78618482D01*
X72721373Y-78611963D01*
X72551534Y-78560443D01*
X72395009Y-78476778D01*
X72359271Y-78447448D01*
X72257814Y-78364186D01*
X72156418Y-78240633D01*
X72145222Y-78226991D01*
X72061557Y-78070466D01*
X72010037Y-77900627D01*
X71992641Y-77724000D01*
X72010037Y-77547373D01*
X72061557Y-77377534D01*
X72145222Y-77221009D01*
X72174552Y-77185271D01*
X72257814Y-77083814D01*
X72359271Y-77000552D01*
X72395009Y-76971222D01*
X72551534Y-76887557D01*
X72721373Y-76836037D01*
X72787557Y-76829519D01*
X72853740Y-76823000D01*
X72942260Y-76823000D01*
X73008443Y-76829519D01*
X73008443Y-76829519D01*
G37*
G36*
X75548443Y-76829519D02*
G01*
X75614627Y-76836037D01*
X75784466Y-76887557D01*
X75940991Y-76971222D01*
X75976729Y-77000552D01*
X76078186Y-77083814D01*
X76161448Y-77185271D01*
X76190778Y-77221009D01*
X76274443Y-77377534D01*
X76325963Y-77547373D01*
X76343359Y-77724000D01*
X76325963Y-77900627D01*
X76274443Y-78070466D01*
X76190778Y-78226991D01*
X76179582Y-78240633D01*
X76078186Y-78364186D01*
X75976729Y-78447448D01*
X75940991Y-78476778D01*
X75784466Y-78560443D01*
X75614627Y-78611963D01*
X75548442Y-78618482D01*
X75482260Y-78625000D01*
X75393740Y-78625000D01*
X75327558Y-78618482D01*
X75261373Y-78611963D01*
X75091534Y-78560443D01*
X74935009Y-78476778D01*
X74899271Y-78447448D01*
X74797814Y-78364186D01*
X74696418Y-78240633D01*
X74685222Y-78226991D01*
X74601557Y-78070466D01*
X74550037Y-77900627D01*
X74532641Y-77724000D01*
X74550037Y-77547373D01*
X74601557Y-77377534D01*
X74685222Y-77221009D01*
X74714552Y-77185271D01*
X74797814Y-77083814D01*
X74899271Y-77000552D01*
X74935009Y-76971222D01*
X75091534Y-76887557D01*
X75261373Y-76836037D01*
X75327557Y-76829519D01*
X75393740Y-76823000D01*
X75482260Y-76823000D01*
X75548443Y-76829519D01*
X75548443Y-76829519D01*
G37*
G36*
X78088443Y-76829519D02*
G01*
X78154627Y-76836037D01*
X78324466Y-76887557D01*
X78480991Y-76971222D01*
X78516729Y-77000552D01*
X78618186Y-77083814D01*
X78701448Y-77185271D01*
X78730778Y-77221009D01*
X78814443Y-77377534D01*
X78865963Y-77547373D01*
X78883359Y-77724000D01*
X78865963Y-77900627D01*
X78814443Y-78070466D01*
X78730778Y-78226991D01*
X78719582Y-78240633D01*
X78618186Y-78364186D01*
X78516729Y-78447448D01*
X78480991Y-78476778D01*
X78324466Y-78560443D01*
X78154627Y-78611963D01*
X78088442Y-78618482D01*
X78022260Y-78625000D01*
X77933740Y-78625000D01*
X77867558Y-78618482D01*
X77801373Y-78611963D01*
X77631534Y-78560443D01*
X77475009Y-78476778D01*
X77439271Y-78447448D01*
X77337814Y-78364186D01*
X77236418Y-78240633D01*
X77225222Y-78226991D01*
X77141557Y-78070466D01*
X77090037Y-77900627D01*
X77072641Y-77724000D01*
X77090037Y-77547373D01*
X77141557Y-77377534D01*
X77225222Y-77221009D01*
X77254552Y-77185271D01*
X77337814Y-77083814D01*
X77439271Y-77000552D01*
X77475009Y-76971222D01*
X77631534Y-76887557D01*
X77801373Y-76836037D01*
X77867557Y-76829519D01*
X77933740Y-76823000D01*
X78022260Y-76823000D01*
X78088443Y-76829519D01*
X78088443Y-76829519D01*
G37*
G36*
X80628443Y-76829519D02*
G01*
X80694627Y-76836037D01*
X80864466Y-76887557D01*
X81020991Y-76971222D01*
X81056729Y-77000552D01*
X81158186Y-77083814D01*
X81241448Y-77185271D01*
X81270778Y-77221009D01*
X81354443Y-77377534D01*
X81405963Y-77547373D01*
X81423359Y-77724000D01*
X81405963Y-77900627D01*
X81354443Y-78070466D01*
X81270778Y-78226991D01*
X81259582Y-78240633D01*
X81158186Y-78364186D01*
X81056729Y-78447448D01*
X81020991Y-78476778D01*
X80864466Y-78560443D01*
X80694627Y-78611963D01*
X80628442Y-78618482D01*
X80562260Y-78625000D01*
X80473740Y-78625000D01*
X80407558Y-78618482D01*
X80341373Y-78611963D01*
X80171534Y-78560443D01*
X80015009Y-78476778D01*
X79979271Y-78447448D01*
X79877814Y-78364186D01*
X79776418Y-78240633D01*
X79765222Y-78226991D01*
X79681557Y-78070466D01*
X79630037Y-77900627D01*
X79612641Y-77724000D01*
X79630037Y-77547373D01*
X79681557Y-77377534D01*
X79765222Y-77221009D01*
X79794552Y-77185271D01*
X79877814Y-77083814D01*
X79979271Y-77000552D01*
X80015009Y-76971222D01*
X80171534Y-76887557D01*
X80341373Y-76836037D01*
X80407557Y-76829519D01*
X80473740Y-76823000D01*
X80562260Y-76823000D01*
X80628443Y-76829519D01*
X80628443Y-76829519D01*
G37*
G36*
X83168443Y-76829519D02*
G01*
X83234627Y-76836037D01*
X83404466Y-76887557D01*
X83560991Y-76971222D01*
X83596729Y-77000552D01*
X83698186Y-77083814D01*
X83781448Y-77185271D01*
X83810778Y-77221009D01*
X83894443Y-77377534D01*
X83945963Y-77547373D01*
X83963359Y-77724000D01*
X83945963Y-77900627D01*
X83894443Y-78070466D01*
X83810778Y-78226991D01*
X83799582Y-78240633D01*
X83698186Y-78364186D01*
X83596729Y-78447448D01*
X83560991Y-78476778D01*
X83404466Y-78560443D01*
X83234627Y-78611963D01*
X83168442Y-78618482D01*
X83102260Y-78625000D01*
X83013740Y-78625000D01*
X82947558Y-78618482D01*
X82881373Y-78611963D01*
X82711534Y-78560443D01*
X82555009Y-78476778D01*
X82519271Y-78447448D01*
X82417814Y-78364186D01*
X82316418Y-78240633D01*
X82305222Y-78226991D01*
X82221557Y-78070466D01*
X82170037Y-77900627D01*
X82152641Y-77724000D01*
X82170037Y-77547373D01*
X82221557Y-77377534D01*
X82305222Y-77221009D01*
X82334552Y-77185271D01*
X82417814Y-77083814D01*
X82519271Y-77000552D01*
X82555009Y-76971222D01*
X82711534Y-76887557D01*
X82881373Y-76836037D01*
X82947557Y-76829519D01*
X83013740Y-76823000D01*
X83102260Y-76823000D01*
X83168443Y-76829519D01*
X83168443Y-76829519D01*
G37*
G36*
X85708443Y-76829519D02*
G01*
X85774627Y-76836037D01*
X85944466Y-76887557D01*
X86100991Y-76971222D01*
X86136729Y-77000552D01*
X86238186Y-77083814D01*
X86321448Y-77185271D01*
X86350778Y-77221009D01*
X86434443Y-77377534D01*
X86485963Y-77547373D01*
X86503359Y-77724000D01*
X86485963Y-77900627D01*
X86434443Y-78070466D01*
X86350778Y-78226991D01*
X86339582Y-78240633D01*
X86238186Y-78364186D01*
X86136729Y-78447448D01*
X86100991Y-78476778D01*
X85944466Y-78560443D01*
X85774627Y-78611963D01*
X85708442Y-78618482D01*
X85642260Y-78625000D01*
X85553740Y-78625000D01*
X85487558Y-78618482D01*
X85421373Y-78611963D01*
X85251534Y-78560443D01*
X85095009Y-78476778D01*
X85059271Y-78447448D01*
X84957814Y-78364186D01*
X84856418Y-78240633D01*
X84845222Y-78226991D01*
X84761557Y-78070466D01*
X84710037Y-77900627D01*
X84692641Y-77724000D01*
X84710037Y-77547373D01*
X84761557Y-77377534D01*
X84845222Y-77221009D01*
X84874552Y-77185271D01*
X84957814Y-77083814D01*
X85059271Y-77000552D01*
X85095009Y-76971222D01*
X85251534Y-76887557D01*
X85421373Y-76836037D01*
X85487557Y-76829519D01*
X85553740Y-76823000D01*
X85642260Y-76823000D01*
X85708443Y-76829519D01*
X85708443Y-76829519D01*
G37*
G36*
X88248443Y-76829519D02*
G01*
X88314627Y-76836037D01*
X88484466Y-76887557D01*
X88640991Y-76971222D01*
X88676729Y-77000552D01*
X88778186Y-77083814D01*
X88861448Y-77185271D01*
X88890778Y-77221009D01*
X88974443Y-77377534D01*
X89025963Y-77547373D01*
X89043359Y-77724000D01*
X89025963Y-77900627D01*
X88974443Y-78070466D01*
X88890778Y-78226991D01*
X88879582Y-78240633D01*
X88778186Y-78364186D01*
X88676729Y-78447448D01*
X88640991Y-78476778D01*
X88484466Y-78560443D01*
X88314627Y-78611963D01*
X88248442Y-78618482D01*
X88182260Y-78625000D01*
X88093740Y-78625000D01*
X88027558Y-78618482D01*
X87961373Y-78611963D01*
X87791534Y-78560443D01*
X87635009Y-78476778D01*
X87599271Y-78447448D01*
X87497814Y-78364186D01*
X87396418Y-78240633D01*
X87385222Y-78226991D01*
X87301557Y-78070466D01*
X87250037Y-77900627D01*
X87232641Y-77724000D01*
X87250037Y-77547373D01*
X87301557Y-77377534D01*
X87385222Y-77221009D01*
X87414552Y-77185271D01*
X87497814Y-77083814D01*
X87599271Y-77000552D01*
X87635009Y-76971222D01*
X87791534Y-76887557D01*
X87961373Y-76836037D01*
X88027557Y-76829519D01*
X88093740Y-76823000D01*
X88182260Y-76823000D01*
X88248443Y-76829519D01*
X88248443Y-76829519D01*
G37*
G36*
X90788443Y-76829519D02*
G01*
X90854627Y-76836037D01*
X91024466Y-76887557D01*
X91180991Y-76971222D01*
X91216729Y-77000552D01*
X91318186Y-77083814D01*
X91401448Y-77185271D01*
X91430778Y-77221009D01*
X91514443Y-77377534D01*
X91565963Y-77547373D01*
X91583359Y-77724000D01*
X91565963Y-77900627D01*
X91514443Y-78070466D01*
X91430778Y-78226991D01*
X91419582Y-78240633D01*
X91318186Y-78364186D01*
X91216729Y-78447448D01*
X91180991Y-78476778D01*
X91024466Y-78560443D01*
X90854627Y-78611963D01*
X90788442Y-78618482D01*
X90722260Y-78625000D01*
X90633740Y-78625000D01*
X90567558Y-78618482D01*
X90501373Y-78611963D01*
X90331534Y-78560443D01*
X90175009Y-78476778D01*
X90139271Y-78447448D01*
X90037814Y-78364186D01*
X89936418Y-78240633D01*
X89925222Y-78226991D01*
X89841557Y-78070466D01*
X89790037Y-77900627D01*
X89772641Y-77724000D01*
X89790037Y-77547373D01*
X89841557Y-77377534D01*
X89925222Y-77221009D01*
X89954552Y-77185271D01*
X90037814Y-77083814D01*
X90139271Y-77000552D01*
X90175009Y-76971222D01*
X90331534Y-76887557D01*
X90501373Y-76836037D01*
X90567557Y-76829519D01*
X90633740Y-76823000D01*
X90722260Y-76823000D01*
X90788443Y-76829519D01*
X90788443Y-76829519D01*
G37*
G36*
X93328443Y-76829519D02*
G01*
X93394627Y-76836037D01*
X93564466Y-76887557D01*
X93720991Y-76971222D01*
X93756729Y-77000552D01*
X93858186Y-77083814D01*
X93941448Y-77185271D01*
X93970778Y-77221009D01*
X94054443Y-77377534D01*
X94105963Y-77547373D01*
X94123359Y-77724000D01*
X94105963Y-77900627D01*
X94054443Y-78070466D01*
X93970778Y-78226991D01*
X93959582Y-78240633D01*
X93858186Y-78364186D01*
X93756729Y-78447448D01*
X93720991Y-78476778D01*
X93564466Y-78560443D01*
X93394627Y-78611963D01*
X93328442Y-78618482D01*
X93262260Y-78625000D01*
X93173740Y-78625000D01*
X93107558Y-78618482D01*
X93041373Y-78611963D01*
X92871534Y-78560443D01*
X92715009Y-78476778D01*
X92679271Y-78447448D01*
X92577814Y-78364186D01*
X92476418Y-78240633D01*
X92465222Y-78226991D01*
X92381557Y-78070466D01*
X92330037Y-77900627D01*
X92312641Y-77724000D01*
X92330037Y-77547373D01*
X92381557Y-77377534D01*
X92465222Y-77221009D01*
X92494552Y-77185271D01*
X92577814Y-77083814D01*
X92679271Y-77000552D01*
X92715009Y-76971222D01*
X92871534Y-76887557D01*
X93041373Y-76836037D01*
X93107557Y-76829519D01*
X93173740Y-76823000D01*
X93262260Y-76823000D01*
X93328443Y-76829519D01*
X93328443Y-76829519D01*
G37*
G36*
X95868443Y-76829519D02*
G01*
X95934627Y-76836037D01*
X96104466Y-76887557D01*
X96260991Y-76971222D01*
X96296729Y-77000552D01*
X96398186Y-77083814D01*
X96481448Y-77185271D01*
X96510778Y-77221009D01*
X96594443Y-77377534D01*
X96645963Y-77547373D01*
X96663359Y-77724000D01*
X96645963Y-77900627D01*
X96594443Y-78070466D01*
X96510778Y-78226991D01*
X96499582Y-78240633D01*
X96398186Y-78364186D01*
X96296729Y-78447448D01*
X96260991Y-78476778D01*
X96104466Y-78560443D01*
X95934627Y-78611963D01*
X95868442Y-78618482D01*
X95802260Y-78625000D01*
X95713740Y-78625000D01*
X95647558Y-78618482D01*
X95581373Y-78611963D01*
X95411534Y-78560443D01*
X95255009Y-78476778D01*
X95219271Y-78447448D01*
X95117814Y-78364186D01*
X95016418Y-78240633D01*
X95005222Y-78226991D01*
X94921557Y-78070466D01*
X94870037Y-77900627D01*
X94852641Y-77724000D01*
X94870037Y-77547373D01*
X94921557Y-77377534D01*
X95005222Y-77221009D01*
X95034552Y-77185271D01*
X95117814Y-77083814D01*
X95219271Y-77000552D01*
X95255009Y-76971222D01*
X95411534Y-76887557D01*
X95581373Y-76836037D01*
X95647557Y-76829519D01*
X95713740Y-76823000D01*
X95802260Y-76823000D01*
X95868443Y-76829519D01*
X95868443Y-76829519D01*
G37*
G36*
X62848443Y-76829519D02*
G01*
X62914627Y-76836037D01*
X63084466Y-76887557D01*
X63240991Y-76971222D01*
X63276729Y-77000552D01*
X63378186Y-77083814D01*
X63461448Y-77185271D01*
X63490778Y-77221009D01*
X63574443Y-77377534D01*
X63625963Y-77547373D01*
X63643359Y-77724000D01*
X63625963Y-77900627D01*
X63574443Y-78070466D01*
X63490778Y-78226991D01*
X63479582Y-78240633D01*
X63378186Y-78364186D01*
X63276729Y-78447448D01*
X63240991Y-78476778D01*
X63084466Y-78560443D01*
X62914627Y-78611963D01*
X62848442Y-78618482D01*
X62782260Y-78625000D01*
X62693740Y-78625000D01*
X62627558Y-78618482D01*
X62561373Y-78611963D01*
X62391534Y-78560443D01*
X62235009Y-78476778D01*
X62199271Y-78447448D01*
X62097814Y-78364186D01*
X61996418Y-78240633D01*
X61985222Y-78226991D01*
X61901557Y-78070466D01*
X61850037Y-77900627D01*
X61832641Y-77724000D01*
X61850037Y-77547373D01*
X61901557Y-77377534D01*
X61985222Y-77221009D01*
X62014552Y-77185271D01*
X62097814Y-77083814D01*
X62199271Y-77000552D01*
X62235009Y-76971222D01*
X62391534Y-76887557D01*
X62561373Y-76836037D01*
X62627557Y-76829519D01*
X62693740Y-76823000D01*
X62782260Y-76823000D01*
X62848443Y-76829519D01*
X62848443Y-76829519D01*
G37*
M02*
