M48
; DRILL file {KiCad (5.1.4)-1} date 9/26/2019 5:39:37 PM
; FORMAT={-:-/ absolute / inch / decimal}
; #@! TF.CreationDate,2019-09-26T17:39:37-04:00
; #@! TF.GenerationSoftware,Kicad,Pcbnew,(5.1.4)-1
; #@! TF.FileFunction,Plated,1,2,PTH
FMAT,2
INCH
T1C0.0130
T2C0.0157
T3C0.0394
%
G90
G05
T1
X2.14Y-3.046
X2.153Y-3.8145
X2.214Y-3.05
X2.2238Y-3.4598
X2.225Y-2.993
X2.225Y-3.78
X2.235Y-3.897
X2.289Y-3.817
X2.29Y-3.128
X2.293Y-3.054
X2.312Y-2.989
X2.365Y-3.129
X2.371Y-3.779
X2.3848Y-3.5112
X2.397Y-3.627
X2.405Y-3.46
X2.406Y-3.414
X2.432Y-3.686
X2.435Y-3.757
X2.446Y-3.527
X2.453Y-3.13
X2.474Y-3.621
X2.487Y-3.352
X2.488Y-3.266
X2.508Y-3.699
X2.519Y-3.006
X2.551Y-3.184
X2.552Y-3.309
X2.559Y-3.787
X2.589Y-3.6695
X2.619Y-3.006
X2.619Y-3.49
X2.619Y-3.568
X2.627Y-3.742
X2.657Y-3.308
X2.658Y-3.257
X2.658Y-3.35
X2.6635Y-3.408
X2.67Y-3.784
X2.719Y-3.006
X2.729Y-3.723
X2.732Y-3.208
X2.741Y-3.406
X2.763Y-3.168
X2.771Y-3.6545
X2.771Y-3.787
X2.7725Y-3.732
X2.778Y-3.621
X2.819Y-3.006
X2.819Y-3.3535
X2.835Y-3.248
X2.836Y-3.165
X2.836Y-3.212
X2.851Y-3.3
X2.8965Y-3.3515
X2.919Y-3.006
X2.9595Y-3.2635
X2.977Y-3.329
X3.0143Y-3.2652
X3.019Y-3.006
X3.0538Y-3.4552
X3.073Y-3.584
X3.085Y-3.531
X3.093Y-3.351
X3.0945Y-3.445
X3.119Y-3.006
X3.135Y-3.712
X3.1385Y-3.3635
X3.1505Y-3.5895
X3.1705Y-3.3975
X3.183Y-3.531
X3.194Y-3.575
X3.195Y-3.4345
X3.208Y-3.805
X3.219Y-3.006
X3.2315Y-3.212
X3.2405Y-3.5725
X3.241Y-3.377
X3.2535Y-3.7785
X3.266Y-3.503
X3.2815Y-3.1355
X3.2815Y-3.1745
X3.2815Y-3.2135
X3.2985Y-3.5275
X3.299Y-3.4545
X3.3155Y-3.685
X3.319Y-3.006
X3.322Y-3.807
X3.3324Y-3.2336
X3.335Y-3.168
X3.385Y-3.6145
X3.39Y-3.3135
X3.419Y-3.006
X3.4225Y-3.7555
X3.424Y-3.3145
X3.4255Y-3.812
X3.429Y-3.21
X3.431Y-3.614
X3.432Y-3.119
X3.441Y-3.5655
X3.456Y-3.5335
X3.4665Y-3.3895
X3.489Y-3.807
X3.495Y-3.62
X3.507Y-3.218
X3.513Y-3.3915
X3.519Y-3.006
X3.522Y-3.132
X3.575Y-3.62
X3.619Y-3.006
X3.638Y-3.755
X3.6605Y-3.2775
X3.6805Y-3.6495
X3.71Y-3.552
X3.719Y-3.006
X3.752Y-3.324
X3.76Y-3.124
X3.8Y-3.573
X3.821Y-3.491
X3.828Y-3.174
X3.832Y-3.751
X3.883Y-3.619
X3.887Y-3.885
X3.888Y-3.043
X3.889Y-3.27
X3.893Y-3.387
X3.914Y-3.764
X3.917Y-3.555
T2
X2.907Y-3.531
X2.917Y-3.57
T3
X2.37Y-3.06
X2.47Y-3.06
X2.57Y-3.06
X2.67Y-3.06
X2.77Y-3.06
X2.87Y-3.06
X2.97Y-3.06
X3.07Y-3.06
X3.17Y-3.06
X3.27Y-3.06
X3.37Y-3.06
X3.47Y-3.06
X3.57Y-3.06
X3.67Y-3.06
X3.77Y-3.06
X2.37Y-3.86
X2.47Y-3.86
X2.57Y-3.86
X2.67Y-3.86
X2.77Y-3.86
X2.87Y-3.86
X2.97Y-3.86
X3.07Y-3.86
X3.17Y-3.86
X3.27Y-3.86
X3.37Y-3.86
X3.47Y-3.86
X3.57Y-3.86
X3.67Y-3.86
X3.77Y-3.86
T0
M30
