G04 #@! TF.GenerationSoftware,KiCad,Pcbnew,(5.1.4)-1*
G04 #@! TF.CreationDate,2019-09-26T17:39:29-04:00*
G04 #@! TF.ProjectId,samd21-board,73616d64-3231-42d6-926f-6172642e6b69,rev?*
G04 #@! TF.SameCoordinates,Original*
G04 #@! TF.FileFunction,Paste,Top*
G04 #@! TF.FilePolarity,Positive*
%FSLAX46Y46*%
G04 Gerber Fmt 4.6, Leading zero omitted, Abs format (unit mm)*
G04 Created by KiCad (PCBNEW (5.1.4)-1) date 2019-09-26 17:39:29*
%MOMM*%
%LPD*%
G04 APERTURE LIST*
%ADD10R,1.300000X1.550000*%
%ADD11R,1.900000X1.100000*%
%ADD12C,0.100000*%
%ADD13C,1.150000*%
%ADD14R,0.250000X2.000000*%
%ADD15R,2.000000X0.250000*%
%ADD16R,1.380000X0.450000*%
%ADD17R,2.100000X1.475000*%
%ADD18R,1.900000X2.375000*%
%ADD19R,1.900000X1.175000*%
%ADD20R,1.750000X0.950000*%
%ADD21R,1.750000X3.250000*%
G04 APERTURE END LIST*
D10*
X98820800Y-80632400D03*
X98820800Y-88582400D03*
X94320800Y-80632400D03*
X94320800Y-88582400D03*
D11*
X75971400Y-92247400D03*
X75971400Y-94747400D03*
D12*
G36*
X65585705Y-89928404D02*
G01*
X65609973Y-89932004D01*
X65633772Y-89937965D01*
X65656871Y-89946230D01*
X65679050Y-89956720D01*
X65700093Y-89969332D01*
X65719799Y-89983947D01*
X65737977Y-90000423D01*
X65754453Y-90018601D01*
X65769068Y-90038307D01*
X65781680Y-90059350D01*
X65792170Y-90081529D01*
X65800435Y-90104628D01*
X65806396Y-90128427D01*
X65809996Y-90152695D01*
X65811200Y-90177199D01*
X65811200Y-91077201D01*
X65809996Y-91101705D01*
X65806396Y-91125973D01*
X65800435Y-91149772D01*
X65792170Y-91172871D01*
X65781680Y-91195050D01*
X65769068Y-91216093D01*
X65754453Y-91235799D01*
X65737977Y-91253977D01*
X65719799Y-91270453D01*
X65700093Y-91285068D01*
X65679050Y-91297680D01*
X65656871Y-91308170D01*
X65633772Y-91316435D01*
X65609973Y-91322396D01*
X65585705Y-91325996D01*
X65561201Y-91327200D01*
X64911199Y-91327200D01*
X64886695Y-91325996D01*
X64862427Y-91322396D01*
X64838628Y-91316435D01*
X64815529Y-91308170D01*
X64793350Y-91297680D01*
X64772307Y-91285068D01*
X64752601Y-91270453D01*
X64734423Y-91253977D01*
X64717947Y-91235799D01*
X64703332Y-91216093D01*
X64690720Y-91195050D01*
X64680230Y-91172871D01*
X64671965Y-91149772D01*
X64666004Y-91125973D01*
X64662404Y-91101705D01*
X64661200Y-91077201D01*
X64661200Y-90177199D01*
X64662404Y-90152695D01*
X64666004Y-90128427D01*
X64671965Y-90104628D01*
X64680230Y-90081529D01*
X64690720Y-90059350D01*
X64703332Y-90038307D01*
X64717947Y-90018601D01*
X64734423Y-90000423D01*
X64752601Y-89983947D01*
X64772307Y-89969332D01*
X64793350Y-89956720D01*
X64815529Y-89946230D01*
X64838628Y-89937965D01*
X64862427Y-89932004D01*
X64886695Y-89928404D01*
X64911199Y-89927200D01*
X65561201Y-89927200D01*
X65585705Y-89928404D01*
X65585705Y-89928404D01*
G37*
D13*
X65236200Y-90627200D03*
D12*
G36*
X63535705Y-89928404D02*
G01*
X63559973Y-89932004D01*
X63583772Y-89937965D01*
X63606871Y-89946230D01*
X63629050Y-89956720D01*
X63650093Y-89969332D01*
X63669799Y-89983947D01*
X63687977Y-90000423D01*
X63704453Y-90018601D01*
X63719068Y-90038307D01*
X63731680Y-90059350D01*
X63742170Y-90081529D01*
X63750435Y-90104628D01*
X63756396Y-90128427D01*
X63759996Y-90152695D01*
X63761200Y-90177199D01*
X63761200Y-91077201D01*
X63759996Y-91101705D01*
X63756396Y-91125973D01*
X63750435Y-91149772D01*
X63742170Y-91172871D01*
X63731680Y-91195050D01*
X63719068Y-91216093D01*
X63704453Y-91235799D01*
X63687977Y-91253977D01*
X63669799Y-91270453D01*
X63650093Y-91285068D01*
X63629050Y-91297680D01*
X63606871Y-91308170D01*
X63583772Y-91316435D01*
X63559973Y-91322396D01*
X63535705Y-91325996D01*
X63511201Y-91327200D01*
X62861199Y-91327200D01*
X62836695Y-91325996D01*
X62812427Y-91322396D01*
X62788628Y-91316435D01*
X62765529Y-91308170D01*
X62743350Y-91297680D01*
X62722307Y-91285068D01*
X62702601Y-91270453D01*
X62684423Y-91253977D01*
X62667947Y-91235799D01*
X62653332Y-91216093D01*
X62640720Y-91195050D01*
X62630230Y-91172871D01*
X62621965Y-91149772D01*
X62616004Y-91125973D01*
X62612404Y-91101705D01*
X62611200Y-91077201D01*
X62611200Y-90177199D01*
X62612404Y-90152695D01*
X62616004Y-90128427D01*
X62621965Y-90104628D01*
X62630230Y-90081529D01*
X62640720Y-90059350D01*
X62653332Y-90038307D01*
X62667947Y-90018601D01*
X62684423Y-90000423D01*
X62702601Y-89983947D01*
X62722307Y-89969332D01*
X62743350Y-89956720D01*
X62765529Y-89946230D01*
X62788628Y-89937965D01*
X62812427Y-89932004D01*
X62836695Y-89928404D01*
X62861199Y-89927200D01*
X63511201Y-89927200D01*
X63535705Y-89928404D01*
X63535705Y-89928404D01*
G37*
D13*
X63186200Y-90627200D03*
D12*
G36*
X65585705Y-87972604D02*
G01*
X65609973Y-87976204D01*
X65633772Y-87982165D01*
X65656871Y-87990430D01*
X65679050Y-88000920D01*
X65700093Y-88013532D01*
X65719799Y-88028147D01*
X65737977Y-88044623D01*
X65754453Y-88062801D01*
X65769068Y-88082507D01*
X65781680Y-88103550D01*
X65792170Y-88125729D01*
X65800435Y-88148828D01*
X65806396Y-88172627D01*
X65809996Y-88196895D01*
X65811200Y-88221399D01*
X65811200Y-89121401D01*
X65809996Y-89145905D01*
X65806396Y-89170173D01*
X65800435Y-89193972D01*
X65792170Y-89217071D01*
X65781680Y-89239250D01*
X65769068Y-89260293D01*
X65754453Y-89279999D01*
X65737977Y-89298177D01*
X65719799Y-89314653D01*
X65700093Y-89329268D01*
X65679050Y-89341880D01*
X65656871Y-89352370D01*
X65633772Y-89360635D01*
X65609973Y-89366596D01*
X65585705Y-89370196D01*
X65561201Y-89371400D01*
X64911199Y-89371400D01*
X64886695Y-89370196D01*
X64862427Y-89366596D01*
X64838628Y-89360635D01*
X64815529Y-89352370D01*
X64793350Y-89341880D01*
X64772307Y-89329268D01*
X64752601Y-89314653D01*
X64734423Y-89298177D01*
X64717947Y-89279999D01*
X64703332Y-89260293D01*
X64690720Y-89239250D01*
X64680230Y-89217071D01*
X64671965Y-89193972D01*
X64666004Y-89170173D01*
X64662404Y-89145905D01*
X64661200Y-89121401D01*
X64661200Y-88221399D01*
X64662404Y-88196895D01*
X64666004Y-88172627D01*
X64671965Y-88148828D01*
X64680230Y-88125729D01*
X64690720Y-88103550D01*
X64703332Y-88082507D01*
X64717947Y-88062801D01*
X64734423Y-88044623D01*
X64752601Y-88028147D01*
X64772307Y-88013532D01*
X64793350Y-88000920D01*
X64815529Y-87990430D01*
X64838628Y-87982165D01*
X64862427Y-87976204D01*
X64886695Y-87972604D01*
X64911199Y-87971400D01*
X65561201Y-87971400D01*
X65585705Y-87972604D01*
X65585705Y-87972604D01*
G37*
D13*
X65236200Y-88671400D03*
D12*
G36*
X63535705Y-87972604D02*
G01*
X63559973Y-87976204D01*
X63583772Y-87982165D01*
X63606871Y-87990430D01*
X63629050Y-88000920D01*
X63650093Y-88013532D01*
X63669799Y-88028147D01*
X63687977Y-88044623D01*
X63704453Y-88062801D01*
X63719068Y-88082507D01*
X63731680Y-88103550D01*
X63742170Y-88125729D01*
X63750435Y-88148828D01*
X63756396Y-88172627D01*
X63759996Y-88196895D01*
X63761200Y-88221399D01*
X63761200Y-89121401D01*
X63759996Y-89145905D01*
X63756396Y-89170173D01*
X63750435Y-89193972D01*
X63742170Y-89217071D01*
X63731680Y-89239250D01*
X63719068Y-89260293D01*
X63704453Y-89279999D01*
X63687977Y-89298177D01*
X63669799Y-89314653D01*
X63650093Y-89329268D01*
X63629050Y-89341880D01*
X63606871Y-89352370D01*
X63583772Y-89360635D01*
X63559973Y-89366596D01*
X63535705Y-89370196D01*
X63511201Y-89371400D01*
X62861199Y-89371400D01*
X62836695Y-89370196D01*
X62812427Y-89366596D01*
X62788628Y-89360635D01*
X62765529Y-89352370D01*
X62743350Y-89341880D01*
X62722307Y-89329268D01*
X62702601Y-89314653D01*
X62684423Y-89298177D01*
X62667947Y-89279999D01*
X62653332Y-89260293D01*
X62640720Y-89239250D01*
X62630230Y-89217071D01*
X62621965Y-89193972D01*
X62616004Y-89170173D01*
X62612404Y-89145905D01*
X62611200Y-89121401D01*
X62611200Y-88221399D01*
X62612404Y-88196895D01*
X62616004Y-88172627D01*
X62621965Y-88148828D01*
X62630230Y-88125729D01*
X62640720Y-88103550D01*
X62653332Y-88082507D01*
X62667947Y-88062801D01*
X62684423Y-88044623D01*
X62702601Y-88028147D01*
X62722307Y-88013532D01*
X62743350Y-88000920D01*
X62765529Y-87990430D01*
X62788628Y-87982165D01*
X62812427Y-87976204D01*
X62836695Y-87972604D01*
X62861199Y-87971400D01*
X63511201Y-87971400D01*
X63535705Y-87972604D01*
X63535705Y-87972604D01*
G37*
D13*
X63186200Y-88671400D03*
D12*
G36*
X59319305Y-80428804D02*
G01*
X59343573Y-80432404D01*
X59367372Y-80438365D01*
X59390471Y-80446630D01*
X59412650Y-80457120D01*
X59433693Y-80469732D01*
X59453399Y-80484347D01*
X59471577Y-80500823D01*
X59488053Y-80519001D01*
X59502668Y-80538707D01*
X59515280Y-80559750D01*
X59525770Y-80581929D01*
X59534035Y-80605028D01*
X59539996Y-80628827D01*
X59543596Y-80653095D01*
X59544800Y-80677599D01*
X59544800Y-81577601D01*
X59543596Y-81602105D01*
X59539996Y-81626373D01*
X59534035Y-81650172D01*
X59525770Y-81673271D01*
X59515280Y-81695450D01*
X59502668Y-81716493D01*
X59488053Y-81736199D01*
X59471577Y-81754377D01*
X59453399Y-81770853D01*
X59433693Y-81785468D01*
X59412650Y-81798080D01*
X59390471Y-81808570D01*
X59367372Y-81816835D01*
X59343573Y-81822796D01*
X59319305Y-81826396D01*
X59294801Y-81827600D01*
X58644799Y-81827600D01*
X58620295Y-81826396D01*
X58596027Y-81822796D01*
X58572228Y-81816835D01*
X58549129Y-81808570D01*
X58526950Y-81798080D01*
X58505907Y-81785468D01*
X58486201Y-81770853D01*
X58468023Y-81754377D01*
X58451547Y-81736199D01*
X58436932Y-81716493D01*
X58424320Y-81695450D01*
X58413830Y-81673271D01*
X58405565Y-81650172D01*
X58399604Y-81626373D01*
X58396004Y-81602105D01*
X58394800Y-81577601D01*
X58394800Y-80677599D01*
X58396004Y-80653095D01*
X58399604Y-80628827D01*
X58405565Y-80605028D01*
X58413830Y-80581929D01*
X58424320Y-80559750D01*
X58436932Y-80538707D01*
X58451547Y-80519001D01*
X58468023Y-80500823D01*
X58486201Y-80484347D01*
X58505907Y-80469732D01*
X58526950Y-80457120D01*
X58549129Y-80446630D01*
X58572228Y-80438365D01*
X58596027Y-80432404D01*
X58620295Y-80428804D01*
X58644799Y-80427600D01*
X59294801Y-80427600D01*
X59319305Y-80428804D01*
X59319305Y-80428804D01*
G37*
D13*
X58969800Y-81127600D03*
D12*
G36*
X61369305Y-80428804D02*
G01*
X61393573Y-80432404D01*
X61417372Y-80438365D01*
X61440471Y-80446630D01*
X61462650Y-80457120D01*
X61483693Y-80469732D01*
X61503399Y-80484347D01*
X61521577Y-80500823D01*
X61538053Y-80519001D01*
X61552668Y-80538707D01*
X61565280Y-80559750D01*
X61575770Y-80581929D01*
X61584035Y-80605028D01*
X61589996Y-80628827D01*
X61593596Y-80653095D01*
X61594800Y-80677599D01*
X61594800Y-81577601D01*
X61593596Y-81602105D01*
X61589996Y-81626373D01*
X61584035Y-81650172D01*
X61575770Y-81673271D01*
X61565280Y-81695450D01*
X61552668Y-81716493D01*
X61538053Y-81736199D01*
X61521577Y-81754377D01*
X61503399Y-81770853D01*
X61483693Y-81785468D01*
X61462650Y-81798080D01*
X61440471Y-81808570D01*
X61417372Y-81816835D01*
X61393573Y-81822796D01*
X61369305Y-81826396D01*
X61344801Y-81827600D01*
X60694799Y-81827600D01*
X60670295Y-81826396D01*
X60646027Y-81822796D01*
X60622228Y-81816835D01*
X60599129Y-81808570D01*
X60576950Y-81798080D01*
X60555907Y-81785468D01*
X60536201Y-81770853D01*
X60518023Y-81754377D01*
X60501547Y-81736199D01*
X60486932Y-81716493D01*
X60474320Y-81695450D01*
X60463830Y-81673271D01*
X60455565Y-81650172D01*
X60449604Y-81626373D01*
X60446004Y-81602105D01*
X60444800Y-81577601D01*
X60444800Y-80677599D01*
X60446004Y-80653095D01*
X60449604Y-80628827D01*
X60455565Y-80605028D01*
X60463830Y-80581929D01*
X60474320Y-80559750D01*
X60486932Y-80538707D01*
X60501547Y-80519001D01*
X60518023Y-80500823D01*
X60536201Y-80484347D01*
X60555907Y-80469732D01*
X60576950Y-80457120D01*
X60599129Y-80446630D01*
X60622228Y-80438365D01*
X60646027Y-80432404D01*
X60670295Y-80428804D01*
X60694799Y-80427600D01*
X61344801Y-80427600D01*
X61369305Y-80428804D01*
X61369305Y-80428804D01*
G37*
D13*
X61019800Y-81127600D03*
D14*
X78022000Y-92711000D03*
X78522000Y-92711000D03*
X79022000Y-92711000D03*
X79522000Y-92711000D03*
X80022000Y-92711000D03*
X80522000Y-92711000D03*
X81022000Y-92711000D03*
X81522000Y-92711000D03*
X82022000Y-92711000D03*
X82522000Y-92711000D03*
X83022000Y-92711000D03*
X83522000Y-92711000D03*
D15*
X85472000Y-90761000D03*
X85472000Y-90261000D03*
X85472000Y-89761000D03*
X85472000Y-89261000D03*
X85472000Y-88761000D03*
X85472000Y-88261000D03*
X85472000Y-87761000D03*
X85472000Y-87261000D03*
X85472000Y-86761000D03*
X85472000Y-86261000D03*
X85472000Y-85761000D03*
X85472000Y-85261000D03*
D14*
X83522000Y-83311000D03*
X83022000Y-83311000D03*
X82522000Y-83311000D03*
X82022000Y-83311000D03*
X81522000Y-83311000D03*
X81022000Y-83311000D03*
X80522000Y-83311000D03*
X80022000Y-83311000D03*
X79522000Y-83311000D03*
X79022000Y-83311000D03*
X78522000Y-83311000D03*
X78022000Y-83311000D03*
D15*
X76072000Y-85261000D03*
X76072000Y-85761000D03*
X76072000Y-86261000D03*
X76072000Y-86761000D03*
X76072000Y-87261000D03*
X76072000Y-87761000D03*
X76072000Y-88261000D03*
X76072000Y-88761000D03*
X76072000Y-89261000D03*
X76072000Y-89761000D03*
X76072000Y-90261000D03*
X76072000Y-90761000D03*
D12*
G36*
X93830505Y-93357404D02*
G01*
X93854773Y-93361004D01*
X93878572Y-93366965D01*
X93901671Y-93375230D01*
X93923850Y-93385720D01*
X93944893Y-93398332D01*
X93964599Y-93412947D01*
X93982777Y-93429423D01*
X93999253Y-93447601D01*
X94013868Y-93467307D01*
X94026480Y-93488350D01*
X94036970Y-93510529D01*
X94045235Y-93533628D01*
X94051196Y-93557427D01*
X94054796Y-93581695D01*
X94056000Y-93606199D01*
X94056000Y-94506201D01*
X94054796Y-94530705D01*
X94051196Y-94554973D01*
X94045235Y-94578772D01*
X94036970Y-94601871D01*
X94026480Y-94624050D01*
X94013868Y-94645093D01*
X93999253Y-94664799D01*
X93982777Y-94682977D01*
X93964599Y-94699453D01*
X93944893Y-94714068D01*
X93923850Y-94726680D01*
X93901671Y-94737170D01*
X93878572Y-94745435D01*
X93854773Y-94751396D01*
X93830505Y-94754996D01*
X93806001Y-94756200D01*
X93155999Y-94756200D01*
X93131495Y-94754996D01*
X93107227Y-94751396D01*
X93083428Y-94745435D01*
X93060329Y-94737170D01*
X93038150Y-94726680D01*
X93017107Y-94714068D01*
X92997401Y-94699453D01*
X92979223Y-94682977D01*
X92962747Y-94664799D01*
X92948132Y-94645093D01*
X92935520Y-94624050D01*
X92925030Y-94601871D01*
X92916765Y-94578772D01*
X92910804Y-94554973D01*
X92907204Y-94530705D01*
X92906000Y-94506201D01*
X92906000Y-93606199D01*
X92907204Y-93581695D01*
X92910804Y-93557427D01*
X92916765Y-93533628D01*
X92925030Y-93510529D01*
X92935520Y-93488350D01*
X92948132Y-93467307D01*
X92962747Y-93447601D01*
X92979223Y-93429423D01*
X92997401Y-93412947D01*
X93017107Y-93398332D01*
X93038150Y-93385720D01*
X93060329Y-93375230D01*
X93083428Y-93366965D01*
X93107227Y-93361004D01*
X93131495Y-93357404D01*
X93155999Y-93356200D01*
X93806001Y-93356200D01*
X93830505Y-93357404D01*
X93830505Y-93357404D01*
G37*
D13*
X93481000Y-94056200D03*
D12*
G36*
X91780505Y-93357404D02*
G01*
X91804773Y-93361004D01*
X91828572Y-93366965D01*
X91851671Y-93375230D01*
X91873850Y-93385720D01*
X91894893Y-93398332D01*
X91914599Y-93412947D01*
X91932777Y-93429423D01*
X91949253Y-93447601D01*
X91963868Y-93467307D01*
X91976480Y-93488350D01*
X91986970Y-93510529D01*
X91995235Y-93533628D01*
X92001196Y-93557427D01*
X92004796Y-93581695D01*
X92006000Y-93606199D01*
X92006000Y-94506201D01*
X92004796Y-94530705D01*
X92001196Y-94554973D01*
X91995235Y-94578772D01*
X91986970Y-94601871D01*
X91976480Y-94624050D01*
X91963868Y-94645093D01*
X91949253Y-94664799D01*
X91932777Y-94682977D01*
X91914599Y-94699453D01*
X91894893Y-94714068D01*
X91873850Y-94726680D01*
X91851671Y-94737170D01*
X91828572Y-94745435D01*
X91804773Y-94751396D01*
X91780505Y-94754996D01*
X91756001Y-94756200D01*
X91105999Y-94756200D01*
X91081495Y-94754996D01*
X91057227Y-94751396D01*
X91033428Y-94745435D01*
X91010329Y-94737170D01*
X90988150Y-94726680D01*
X90967107Y-94714068D01*
X90947401Y-94699453D01*
X90929223Y-94682977D01*
X90912747Y-94664799D01*
X90898132Y-94645093D01*
X90885520Y-94624050D01*
X90875030Y-94601871D01*
X90866765Y-94578772D01*
X90860804Y-94554973D01*
X90857204Y-94530705D01*
X90856000Y-94506201D01*
X90856000Y-93606199D01*
X90857204Y-93581695D01*
X90860804Y-93557427D01*
X90866765Y-93533628D01*
X90875030Y-93510529D01*
X90885520Y-93488350D01*
X90898132Y-93467307D01*
X90912747Y-93447601D01*
X90929223Y-93429423D01*
X90947401Y-93412947D01*
X90967107Y-93398332D01*
X90988150Y-93385720D01*
X91010329Y-93375230D01*
X91033428Y-93366965D01*
X91057227Y-93361004D01*
X91081495Y-93357404D01*
X91105999Y-93356200D01*
X91756001Y-93356200D01*
X91780505Y-93357404D01*
X91780505Y-93357404D01*
G37*
D13*
X91431000Y-94056200D03*
D12*
G36*
X83982705Y-94335304D02*
G01*
X84006973Y-94338904D01*
X84030772Y-94344865D01*
X84053871Y-94353130D01*
X84076050Y-94363620D01*
X84097093Y-94376232D01*
X84116799Y-94390847D01*
X84134977Y-94407323D01*
X84151453Y-94425501D01*
X84166068Y-94445207D01*
X84178680Y-94466250D01*
X84189170Y-94488429D01*
X84197435Y-94511528D01*
X84203396Y-94535327D01*
X84206996Y-94559595D01*
X84208200Y-94584099D01*
X84208200Y-95484101D01*
X84206996Y-95508605D01*
X84203396Y-95532873D01*
X84197435Y-95556672D01*
X84189170Y-95579771D01*
X84178680Y-95601950D01*
X84166068Y-95622993D01*
X84151453Y-95642699D01*
X84134977Y-95660877D01*
X84116799Y-95677353D01*
X84097093Y-95691968D01*
X84076050Y-95704580D01*
X84053871Y-95715070D01*
X84030772Y-95723335D01*
X84006973Y-95729296D01*
X83982705Y-95732896D01*
X83958201Y-95734100D01*
X83308199Y-95734100D01*
X83283695Y-95732896D01*
X83259427Y-95729296D01*
X83235628Y-95723335D01*
X83212529Y-95715070D01*
X83190350Y-95704580D01*
X83169307Y-95691968D01*
X83149601Y-95677353D01*
X83131423Y-95660877D01*
X83114947Y-95642699D01*
X83100332Y-95622993D01*
X83087720Y-95601950D01*
X83077230Y-95579771D01*
X83068965Y-95556672D01*
X83063004Y-95532873D01*
X83059404Y-95508605D01*
X83058200Y-95484101D01*
X83058200Y-94584099D01*
X83059404Y-94559595D01*
X83063004Y-94535327D01*
X83068965Y-94511528D01*
X83077230Y-94488429D01*
X83087720Y-94466250D01*
X83100332Y-94445207D01*
X83114947Y-94425501D01*
X83131423Y-94407323D01*
X83149601Y-94390847D01*
X83169307Y-94376232D01*
X83190350Y-94363620D01*
X83212529Y-94353130D01*
X83235628Y-94344865D01*
X83259427Y-94338904D01*
X83283695Y-94335304D01*
X83308199Y-94334100D01*
X83958201Y-94334100D01*
X83982705Y-94335304D01*
X83982705Y-94335304D01*
G37*
D13*
X83633200Y-95034100D03*
D12*
G36*
X86032705Y-94335304D02*
G01*
X86056973Y-94338904D01*
X86080772Y-94344865D01*
X86103871Y-94353130D01*
X86126050Y-94363620D01*
X86147093Y-94376232D01*
X86166799Y-94390847D01*
X86184977Y-94407323D01*
X86201453Y-94425501D01*
X86216068Y-94445207D01*
X86228680Y-94466250D01*
X86239170Y-94488429D01*
X86247435Y-94511528D01*
X86253396Y-94535327D01*
X86256996Y-94559595D01*
X86258200Y-94584099D01*
X86258200Y-95484101D01*
X86256996Y-95508605D01*
X86253396Y-95532873D01*
X86247435Y-95556672D01*
X86239170Y-95579771D01*
X86228680Y-95601950D01*
X86216068Y-95622993D01*
X86201453Y-95642699D01*
X86184977Y-95660877D01*
X86166799Y-95677353D01*
X86147093Y-95691968D01*
X86126050Y-95704580D01*
X86103871Y-95715070D01*
X86080772Y-95723335D01*
X86056973Y-95729296D01*
X86032705Y-95732896D01*
X86008201Y-95734100D01*
X85358199Y-95734100D01*
X85333695Y-95732896D01*
X85309427Y-95729296D01*
X85285628Y-95723335D01*
X85262529Y-95715070D01*
X85240350Y-95704580D01*
X85219307Y-95691968D01*
X85199601Y-95677353D01*
X85181423Y-95660877D01*
X85164947Y-95642699D01*
X85150332Y-95622993D01*
X85137720Y-95601950D01*
X85127230Y-95579771D01*
X85118965Y-95556672D01*
X85113004Y-95532873D01*
X85109404Y-95508605D01*
X85108200Y-95484101D01*
X85108200Y-94584099D01*
X85109404Y-94559595D01*
X85113004Y-94535327D01*
X85118965Y-94511528D01*
X85127230Y-94488429D01*
X85137720Y-94466250D01*
X85150332Y-94445207D01*
X85164947Y-94425501D01*
X85181423Y-94407323D01*
X85199601Y-94390847D01*
X85219307Y-94376232D01*
X85240350Y-94363620D01*
X85262529Y-94353130D01*
X85285628Y-94344865D01*
X85309427Y-94338904D01*
X85333695Y-94335304D01*
X85358199Y-94334100D01*
X86008201Y-94334100D01*
X86032705Y-94335304D01*
X86032705Y-94335304D01*
G37*
D13*
X85683200Y-95034100D03*
D12*
G36*
X73904205Y-92163604D02*
G01*
X73928473Y-92167204D01*
X73952272Y-92173165D01*
X73975371Y-92181430D01*
X73997550Y-92191920D01*
X74018593Y-92204532D01*
X74038299Y-92219147D01*
X74056477Y-92235623D01*
X74072953Y-92253801D01*
X74087568Y-92273507D01*
X74100180Y-92294550D01*
X74110670Y-92316729D01*
X74118935Y-92339828D01*
X74124896Y-92363627D01*
X74128496Y-92387895D01*
X74129700Y-92412399D01*
X74129700Y-93312401D01*
X74128496Y-93336905D01*
X74124896Y-93361173D01*
X74118935Y-93384972D01*
X74110670Y-93408071D01*
X74100180Y-93430250D01*
X74087568Y-93451293D01*
X74072953Y-93470999D01*
X74056477Y-93489177D01*
X74038299Y-93505653D01*
X74018593Y-93520268D01*
X73997550Y-93532880D01*
X73975371Y-93543370D01*
X73952272Y-93551635D01*
X73928473Y-93557596D01*
X73904205Y-93561196D01*
X73879701Y-93562400D01*
X73229699Y-93562400D01*
X73205195Y-93561196D01*
X73180927Y-93557596D01*
X73157128Y-93551635D01*
X73134029Y-93543370D01*
X73111850Y-93532880D01*
X73090807Y-93520268D01*
X73071101Y-93505653D01*
X73052923Y-93489177D01*
X73036447Y-93470999D01*
X73021832Y-93451293D01*
X73009220Y-93430250D01*
X72998730Y-93408071D01*
X72990465Y-93384972D01*
X72984504Y-93361173D01*
X72980904Y-93336905D01*
X72979700Y-93312401D01*
X72979700Y-92412399D01*
X72980904Y-92387895D01*
X72984504Y-92363627D01*
X72990465Y-92339828D01*
X72998730Y-92316729D01*
X73009220Y-92294550D01*
X73021832Y-92273507D01*
X73036447Y-92253801D01*
X73052923Y-92235623D01*
X73071101Y-92219147D01*
X73090807Y-92204532D01*
X73111850Y-92191920D01*
X73134029Y-92181430D01*
X73157128Y-92173165D01*
X73180927Y-92167204D01*
X73205195Y-92163604D01*
X73229699Y-92162400D01*
X73879701Y-92162400D01*
X73904205Y-92163604D01*
X73904205Y-92163604D01*
G37*
D13*
X73554700Y-92862400D03*
D12*
G36*
X71854205Y-92163604D02*
G01*
X71878473Y-92167204D01*
X71902272Y-92173165D01*
X71925371Y-92181430D01*
X71947550Y-92191920D01*
X71968593Y-92204532D01*
X71988299Y-92219147D01*
X72006477Y-92235623D01*
X72022953Y-92253801D01*
X72037568Y-92273507D01*
X72050180Y-92294550D01*
X72060670Y-92316729D01*
X72068935Y-92339828D01*
X72074896Y-92363627D01*
X72078496Y-92387895D01*
X72079700Y-92412399D01*
X72079700Y-93312401D01*
X72078496Y-93336905D01*
X72074896Y-93361173D01*
X72068935Y-93384972D01*
X72060670Y-93408071D01*
X72050180Y-93430250D01*
X72037568Y-93451293D01*
X72022953Y-93470999D01*
X72006477Y-93489177D01*
X71988299Y-93505653D01*
X71968593Y-93520268D01*
X71947550Y-93532880D01*
X71925371Y-93543370D01*
X71902272Y-93551635D01*
X71878473Y-93557596D01*
X71854205Y-93561196D01*
X71829701Y-93562400D01*
X71179699Y-93562400D01*
X71155195Y-93561196D01*
X71130927Y-93557596D01*
X71107128Y-93551635D01*
X71084029Y-93543370D01*
X71061850Y-93532880D01*
X71040807Y-93520268D01*
X71021101Y-93505653D01*
X71002923Y-93489177D01*
X70986447Y-93470999D01*
X70971832Y-93451293D01*
X70959220Y-93430250D01*
X70948730Y-93408071D01*
X70940465Y-93384972D01*
X70934504Y-93361173D01*
X70930904Y-93336905D01*
X70929700Y-93312401D01*
X70929700Y-92412399D01*
X70930904Y-92387895D01*
X70934504Y-92363627D01*
X70940465Y-92339828D01*
X70948730Y-92316729D01*
X70959220Y-92294550D01*
X70971832Y-92273507D01*
X70986447Y-92253801D01*
X71002923Y-92235623D01*
X71021101Y-92219147D01*
X71040807Y-92204532D01*
X71061850Y-92191920D01*
X71084029Y-92181430D01*
X71107128Y-92173165D01*
X71130927Y-92167204D01*
X71155195Y-92163604D01*
X71179699Y-92162400D01*
X71829701Y-92162400D01*
X71854205Y-92163604D01*
X71854205Y-92163604D01*
G37*
D13*
X71504700Y-92862400D03*
D12*
G36*
X71841505Y-94106704D02*
G01*
X71865773Y-94110304D01*
X71889572Y-94116265D01*
X71912671Y-94124530D01*
X71934850Y-94135020D01*
X71955893Y-94147632D01*
X71975599Y-94162247D01*
X71993777Y-94178723D01*
X72010253Y-94196901D01*
X72024868Y-94216607D01*
X72037480Y-94237650D01*
X72047970Y-94259829D01*
X72056235Y-94282928D01*
X72062196Y-94306727D01*
X72065796Y-94330995D01*
X72067000Y-94355499D01*
X72067000Y-95255501D01*
X72065796Y-95280005D01*
X72062196Y-95304273D01*
X72056235Y-95328072D01*
X72047970Y-95351171D01*
X72037480Y-95373350D01*
X72024868Y-95394393D01*
X72010253Y-95414099D01*
X71993777Y-95432277D01*
X71975599Y-95448753D01*
X71955893Y-95463368D01*
X71934850Y-95475980D01*
X71912671Y-95486470D01*
X71889572Y-95494735D01*
X71865773Y-95500696D01*
X71841505Y-95504296D01*
X71817001Y-95505500D01*
X71166999Y-95505500D01*
X71142495Y-95504296D01*
X71118227Y-95500696D01*
X71094428Y-95494735D01*
X71071329Y-95486470D01*
X71049150Y-95475980D01*
X71028107Y-95463368D01*
X71008401Y-95448753D01*
X70990223Y-95432277D01*
X70973747Y-95414099D01*
X70959132Y-95394393D01*
X70946520Y-95373350D01*
X70936030Y-95351171D01*
X70927765Y-95328072D01*
X70921804Y-95304273D01*
X70918204Y-95280005D01*
X70917000Y-95255501D01*
X70917000Y-94355499D01*
X70918204Y-94330995D01*
X70921804Y-94306727D01*
X70927765Y-94282928D01*
X70936030Y-94259829D01*
X70946520Y-94237650D01*
X70959132Y-94216607D01*
X70973747Y-94196901D01*
X70990223Y-94178723D01*
X71008401Y-94162247D01*
X71028107Y-94147632D01*
X71049150Y-94135020D01*
X71071329Y-94124530D01*
X71094428Y-94116265D01*
X71118227Y-94110304D01*
X71142495Y-94106704D01*
X71166999Y-94105500D01*
X71817001Y-94105500D01*
X71841505Y-94106704D01*
X71841505Y-94106704D01*
G37*
D13*
X71492000Y-94805500D03*
D12*
G36*
X73891505Y-94106704D02*
G01*
X73915773Y-94110304D01*
X73939572Y-94116265D01*
X73962671Y-94124530D01*
X73984850Y-94135020D01*
X74005893Y-94147632D01*
X74025599Y-94162247D01*
X74043777Y-94178723D01*
X74060253Y-94196901D01*
X74074868Y-94216607D01*
X74087480Y-94237650D01*
X74097970Y-94259829D01*
X74106235Y-94282928D01*
X74112196Y-94306727D01*
X74115796Y-94330995D01*
X74117000Y-94355499D01*
X74117000Y-95255501D01*
X74115796Y-95280005D01*
X74112196Y-95304273D01*
X74106235Y-95328072D01*
X74097970Y-95351171D01*
X74087480Y-95373350D01*
X74074868Y-95394393D01*
X74060253Y-95414099D01*
X74043777Y-95432277D01*
X74025599Y-95448753D01*
X74005893Y-95463368D01*
X73984850Y-95475980D01*
X73962671Y-95486470D01*
X73939572Y-95494735D01*
X73915773Y-95500696D01*
X73891505Y-95504296D01*
X73867001Y-95505500D01*
X73216999Y-95505500D01*
X73192495Y-95504296D01*
X73168227Y-95500696D01*
X73144428Y-95494735D01*
X73121329Y-95486470D01*
X73099150Y-95475980D01*
X73078107Y-95463368D01*
X73058401Y-95448753D01*
X73040223Y-95432277D01*
X73023747Y-95414099D01*
X73009132Y-95394393D01*
X72996520Y-95373350D01*
X72986030Y-95351171D01*
X72977765Y-95328072D01*
X72971804Y-95304273D01*
X72968204Y-95280005D01*
X72967000Y-95255501D01*
X72967000Y-94355499D01*
X72968204Y-94330995D01*
X72971804Y-94306727D01*
X72977765Y-94282928D01*
X72986030Y-94259829D01*
X72996520Y-94237650D01*
X73009132Y-94216607D01*
X73023747Y-94196901D01*
X73040223Y-94178723D01*
X73058401Y-94162247D01*
X73078107Y-94147632D01*
X73099150Y-94135020D01*
X73121329Y-94124530D01*
X73144428Y-94116265D01*
X73168227Y-94110304D01*
X73192495Y-94106704D01*
X73216999Y-94105500D01*
X73867001Y-94105500D01*
X73891505Y-94106704D01*
X73891505Y-94106704D01*
G37*
D13*
X73542000Y-94805500D03*
D12*
G36*
X72077105Y-85866104D02*
G01*
X72101373Y-85869704D01*
X72125172Y-85875665D01*
X72148271Y-85883930D01*
X72170450Y-85894420D01*
X72191493Y-85907032D01*
X72211199Y-85921647D01*
X72229377Y-85938123D01*
X72245853Y-85956301D01*
X72260468Y-85976007D01*
X72273080Y-85997050D01*
X72283570Y-86019229D01*
X72291835Y-86042328D01*
X72297796Y-86066127D01*
X72301396Y-86090395D01*
X72302600Y-86114899D01*
X72302600Y-86764901D01*
X72301396Y-86789405D01*
X72297796Y-86813673D01*
X72291835Y-86837472D01*
X72283570Y-86860571D01*
X72273080Y-86882750D01*
X72260468Y-86903793D01*
X72245853Y-86923499D01*
X72229377Y-86941677D01*
X72211199Y-86958153D01*
X72191493Y-86972768D01*
X72170450Y-86985380D01*
X72148271Y-86995870D01*
X72125172Y-87004135D01*
X72101373Y-87010096D01*
X72077105Y-87013696D01*
X72052601Y-87014900D01*
X71152599Y-87014900D01*
X71128095Y-87013696D01*
X71103827Y-87010096D01*
X71080028Y-87004135D01*
X71056929Y-86995870D01*
X71034750Y-86985380D01*
X71013707Y-86972768D01*
X70994001Y-86958153D01*
X70975823Y-86941677D01*
X70959347Y-86923499D01*
X70944732Y-86903793D01*
X70932120Y-86882750D01*
X70921630Y-86860571D01*
X70913365Y-86837472D01*
X70907404Y-86813673D01*
X70903804Y-86789405D01*
X70902600Y-86764901D01*
X70902600Y-86114899D01*
X70903804Y-86090395D01*
X70907404Y-86066127D01*
X70913365Y-86042328D01*
X70921630Y-86019229D01*
X70932120Y-85997050D01*
X70944732Y-85976007D01*
X70959347Y-85956301D01*
X70975823Y-85938123D01*
X70994001Y-85921647D01*
X71013707Y-85907032D01*
X71034750Y-85894420D01*
X71056929Y-85883930D01*
X71080028Y-85875665D01*
X71103827Y-85869704D01*
X71128095Y-85866104D01*
X71152599Y-85864900D01*
X72052601Y-85864900D01*
X72077105Y-85866104D01*
X72077105Y-85866104D01*
G37*
D13*
X71602600Y-86439900D03*
D12*
G36*
X72077105Y-87916104D02*
G01*
X72101373Y-87919704D01*
X72125172Y-87925665D01*
X72148271Y-87933930D01*
X72170450Y-87944420D01*
X72191493Y-87957032D01*
X72211199Y-87971647D01*
X72229377Y-87988123D01*
X72245853Y-88006301D01*
X72260468Y-88026007D01*
X72273080Y-88047050D01*
X72283570Y-88069229D01*
X72291835Y-88092328D01*
X72297796Y-88116127D01*
X72301396Y-88140395D01*
X72302600Y-88164899D01*
X72302600Y-88814901D01*
X72301396Y-88839405D01*
X72297796Y-88863673D01*
X72291835Y-88887472D01*
X72283570Y-88910571D01*
X72273080Y-88932750D01*
X72260468Y-88953793D01*
X72245853Y-88973499D01*
X72229377Y-88991677D01*
X72211199Y-89008153D01*
X72191493Y-89022768D01*
X72170450Y-89035380D01*
X72148271Y-89045870D01*
X72125172Y-89054135D01*
X72101373Y-89060096D01*
X72077105Y-89063696D01*
X72052601Y-89064900D01*
X71152599Y-89064900D01*
X71128095Y-89063696D01*
X71103827Y-89060096D01*
X71080028Y-89054135D01*
X71056929Y-89045870D01*
X71034750Y-89035380D01*
X71013707Y-89022768D01*
X70994001Y-89008153D01*
X70975823Y-88991677D01*
X70959347Y-88973499D01*
X70944732Y-88953793D01*
X70932120Y-88932750D01*
X70921630Y-88910571D01*
X70913365Y-88887472D01*
X70907404Y-88863673D01*
X70903804Y-88839405D01*
X70902600Y-88814901D01*
X70902600Y-88164899D01*
X70903804Y-88140395D01*
X70907404Y-88116127D01*
X70913365Y-88092328D01*
X70921630Y-88069229D01*
X70932120Y-88047050D01*
X70944732Y-88026007D01*
X70959347Y-88006301D01*
X70975823Y-87988123D01*
X70994001Y-87971647D01*
X71013707Y-87957032D01*
X71034750Y-87944420D01*
X71056929Y-87933930D01*
X71080028Y-87925665D01*
X71103827Y-87919704D01*
X71128095Y-87916104D01*
X71152599Y-87914900D01*
X72052601Y-87914900D01*
X72077105Y-87916104D01*
X72077105Y-87916104D01*
G37*
D13*
X71602600Y-88489900D03*
D12*
G36*
X74045605Y-87890704D02*
G01*
X74069873Y-87894304D01*
X74093672Y-87900265D01*
X74116771Y-87908530D01*
X74138950Y-87919020D01*
X74159993Y-87931632D01*
X74179699Y-87946247D01*
X74197877Y-87962723D01*
X74214353Y-87980901D01*
X74228968Y-88000607D01*
X74241580Y-88021650D01*
X74252070Y-88043829D01*
X74260335Y-88066928D01*
X74266296Y-88090727D01*
X74269896Y-88114995D01*
X74271100Y-88139499D01*
X74271100Y-88789501D01*
X74269896Y-88814005D01*
X74266296Y-88838273D01*
X74260335Y-88862072D01*
X74252070Y-88885171D01*
X74241580Y-88907350D01*
X74228968Y-88928393D01*
X74214353Y-88948099D01*
X74197877Y-88966277D01*
X74179699Y-88982753D01*
X74159993Y-88997368D01*
X74138950Y-89009980D01*
X74116771Y-89020470D01*
X74093672Y-89028735D01*
X74069873Y-89034696D01*
X74045605Y-89038296D01*
X74021101Y-89039500D01*
X73121099Y-89039500D01*
X73096595Y-89038296D01*
X73072327Y-89034696D01*
X73048528Y-89028735D01*
X73025429Y-89020470D01*
X73003250Y-89009980D01*
X72982207Y-88997368D01*
X72962501Y-88982753D01*
X72944323Y-88966277D01*
X72927847Y-88948099D01*
X72913232Y-88928393D01*
X72900620Y-88907350D01*
X72890130Y-88885171D01*
X72881865Y-88862072D01*
X72875904Y-88838273D01*
X72872304Y-88814005D01*
X72871100Y-88789501D01*
X72871100Y-88139499D01*
X72872304Y-88114995D01*
X72875904Y-88090727D01*
X72881865Y-88066928D01*
X72890130Y-88043829D01*
X72900620Y-88021650D01*
X72913232Y-88000607D01*
X72927847Y-87980901D01*
X72944323Y-87962723D01*
X72962501Y-87946247D01*
X72982207Y-87931632D01*
X73003250Y-87919020D01*
X73025429Y-87908530D01*
X73048528Y-87900265D01*
X73072327Y-87894304D01*
X73096595Y-87890704D01*
X73121099Y-87889500D01*
X74021101Y-87889500D01*
X74045605Y-87890704D01*
X74045605Y-87890704D01*
G37*
D13*
X73571100Y-88464500D03*
D12*
G36*
X74045605Y-85840704D02*
G01*
X74069873Y-85844304D01*
X74093672Y-85850265D01*
X74116771Y-85858530D01*
X74138950Y-85869020D01*
X74159993Y-85881632D01*
X74179699Y-85896247D01*
X74197877Y-85912723D01*
X74214353Y-85930901D01*
X74228968Y-85950607D01*
X74241580Y-85971650D01*
X74252070Y-85993829D01*
X74260335Y-86016928D01*
X74266296Y-86040727D01*
X74269896Y-86064995D01*
X74271100Y-86089499D01*
X74271100Y-86739501D01*
X74269896Y-86764005D01*
X74266296Y-86788273D01*
X74260335Y-86812072D01*
X74252070Y-86835171D01*
X74241580Y-86857350D01*
X74228968Y-86878393D01*
X74214353Y-86898099D01*
X74197877Y-86916277D01*
X74179699Y-86932753D01*
X74159993Y-86947368D01*
X74138950Y-86959980D01*
X74116771Y-86970470D01*
X74093672Y-86978735D01*
X74069873Y-86984696D01*
X74045605Y-86988296D01*
X74021101Y-86989500D01*
X73121099Y-86989500D01*
X73096595Y-86988296D01*
X73072327Y-86984696D01*
X73048528Y-86978735D01*
X73025429Y-86970470D01*
X73003250Y-86959980D01*
X72982207Y-86947368D01*
X72962501Y-86932753D01*
X72944323Y-86916277D01*
X72927847Y-86898099D01*
X72913232Y-86878393D01*
X72900620Y-86857350D01*
X72890130Y-86835171D01*
X72881865Y-86812072D01*
X72875904Y-86788273D01*
X72872304Y-86764005D01*
X72871100Y-86739501D01*
X72871100Y-86089499D01*
X72872304Y-86064995D01*
X72875904Y-86040727D01*
X72881865Y-86016928D01*
X72890130Y-85993829D01*
X72900620Y-85971650D01*
X72913232Y-85950607D01*
X72927847Y-85930901D01*
X72944323Y-85912723D01*
X72962501Y-85896247D01*
X72982207Y-85881632D01*
X73003250Y-85869020D01*
X73025429Y-85858530D01*
X73048528Y-85850265D01*
X73072327Y-85844304D01*
X73096595Y-85840704D01*
X73121099Y-85839500D01*
X74021101Y-85839500D01*
X74045605Y-85840704D01*
X74045605Y-85840704D01*
G37*
D13*
X73571100Y-86414500D03*
D12*
G36*
X67968005Y-88036104D02*
G01*
X67992273Y-88039704D01*
X68016072Y-88045665D01*
X68039171Y-88053930D01*
X68061350Y-88064420D01*
X68082393Y-88077032D01*
X68102099Y-88091647D01*
X68120277Y-88108123D01*
X68136753Y-88126301D01*
X68151368Y-88146007D01*
X68163980Y-88167050D01*
X68174470Y-88189229D01*
X68182735Y-88212328D01*
X68188696Y-88236127D01*
X68192296Y-88260395D01*
X68193500Y-88284899D01*
X68193500Y-89184901D01*
X68192296Y-89209405D01*
X68188696Y-89233673D01*
X68182735Y-89257472D01*
X68174470Y-89280571D01*
X68163980Y-89302750D01*
X68151368Y-89323793D01*
X68136753Y-89343499D01*
X68120277Y-89361677D01*
X68102099Y-89378153D01*
X68082393Y-89392768D01*
X68061350Y-89405380D01*
X68039171Y-89415870D01*
X68016072Y-89424135D01*
X67992273Y-89430096D01*
X67968005Y-89433696D01*
X67943501Y-89434900D01*
X67293499Y-89434900D01*
X67268995Y-89433696D01*
X67244727Y-89430096D01*
X67220928Y-89424135D01*
X67197829Y-89415870D01*
X67175650Y-89405380D01*
X67154607Y-89392768D01*
X67134901Y-89378153D01*
X67116723Y-89361677D01*
X67100247Y-89343499D01*
X67085632Y-89323793D01*
X67073020Y-89302750D01*
X67062530Y-89280571D01*
X67054265Y-89257472D01*
X67048304Y-89233673D01*
X67044704Y-89209405D01*
X67043500Y-89184901D01*
X67043500Y-88284899D01*
X67044704Y-88260395D01*
X67048304Y-88236127D01*
X67054265Y-88212328D01*
X67062530Y-88189229D01*
X67073020Y-88167050D01*
X67085632Y-88146007D01*
X67100247Y-88126301D01*
X67116723Y-88108123D01*
X67134901Y-88091647D01*
X67154607Y-88077032D01*
X67175650Y-88064420D01*
X67197829Y-88053930D01*
X67220928Y-88045665D01*
X67244727Y-88039704D01*
X67268995Y-88036104D01*
X67293499Y-88034900D01*
X67943501Y-88034900D01*
X67968005Y-88036104D01*
X67968005Y-88036104D01*
G37*
D13*
X67618500Y-88734900D03*
D12*
G36*
X70018005Y-88036104D02*
G01*
X70042273Y-88039704D01*
X70066072Y-88045665D01*
X70089171Y-88053930D01*
X70111350Y-88064420D01*
X70132393Y-88077032D01*
X70152099Y-88091647D01*
X70170277Y-88108123D01*
X70186753Y-88126301D01*
X70201368Y-88146007D01*
X70213980Y-88167050D01*
X70224470Y-88189229D01*
X70232735Y-88212328D01*
X70238696Y-88236127D01*
X70242296Y-88260395D01*
X70243500Y-88284899D01*
X70243500Y-89184901D01*
X70242296Y-89209405D01*
X70238696Y-89233673D01*
X70232735Y-89257472D01*
X70224470Y-89280571D01*
X70213980Y-89302750D01*
X70201368Y-89323793D01*
X70186753Y-89343499D01*
X70170277Y-89361677D01*
X70152099Y-89378153D01*
X70132393Y-89392768D01*
X70111350Y-89405380D01*
X70089171Y-89415870D01*
X70066072Y-89424135D01*
X70042273Y-89430096D01*
X70018005Y-89433696D01*
X69993501Y-89434900D01*
X69343499Y-89434900D01*
X69318995Y-89433696D01*
X69294727Y-89430096D01*
X69270928Y-89424135D01*
X69247829Y-89415870D01*
X69225650Y-89405380D01*
X69204607Y-89392768D01*
X69184901Y-89378153D01*
X69166723Y-89361677D01*
X69150247Y-89343499D01*
X69135632Y-89323793D01*
X69123020Y-89302750D01*
X69112530Y-89280571D01*
X69104265Y-89257472D01*
X69098304Y-89233673D01*
X69094704Y-89209405D01*
X69093500Y-89184901D01*
X69093500Y-88284899D01*
X69094704Y-88260395D01*
X69098304Y-88236127D01*
X69104265Y-88212328D01*
X69112530Y-88189229D01*
X69123020Y-88167050D01*
X69135632Y-88146007D01*
X69150247Y-88126301D01*
X69166723Y-88108123D01*
X69184901Y-88091647D01*
X69204607Y-88077032D01*
X69225650Y-88064420D01*
X69247829Y-88053930D01*
X69270928Y-88045665D01*
X69294727Y-88039704D01*
X69318995Y-88036104D01*
X69343499Y-88034900D01*
X69993501Y-88034900D01*
X70018005Y-88036104D01*
X70018005Y-88036104D01*
G37*
D13*
X69668500Y-88734900D03*
D12*
G36*
X91279505Y-90214804D02*
G01*
X91303773Y-90218404D01*
X91327572Y-90224365D01*
X91350671Y-90232630D01*
X91372850Y-90243120D01*
X91393893Y-90255732D01*
X91413599Y-90270347D01*
X91431777Y-90286823D01*
X91448253Y-90305001D01*
X91462868Y-90324707D01*
X91475480Y-90345750D01*
X91485970Y-90367929D01*
X91494235Y-90391028D01*
X91500196Y-90414827D01*
X91503796Y-90439095D01*
X91505000Y-90463599D01*
X91505000Y-91113601D01*
X91503796Y-91138105D01*
X91500196Y-91162373D01*
X91494235Y-91186172D01*
X91485970Y-91209271D01*
X91475480Y-91231450D01*
X91462868Y-91252493D01*
X91448253Y-91272199D01*
X91431777Y-91290377D01*
X91413599Y-91306853D01*
X91393893Y-91321468D01*
X91372850Y-91334080D01*
X91350671Y-91344570D01*
X91327572Y-91352835D01*
X91303773Y-91358796D01*
X91279505Y-91362396D01*
X91255001Y-91363600D01*
X90354999Y-91363600D01*
X90330495Y-91362396D01*
X90306227Y-91358796D01*
X90282428Y-91352835D01*
X90259329Y-91344570D01*
X90237150Y-91334080D01*
X90216107Y-91321468D01*
X90196401Y-91306853D01*
X90178223Y-91290377D01*
X90161747Y-91272199D01*
X90147132Y-91252493D01*
X90134520Y-91231450D01*
X90124030Y-91209271D01*
X90115765Y-91186172D01*
X90109804Y-91162373D01*
X90106204Y-91138105D01*
X90105000Y-91113601D01*
X90105000Y-90463599D01*
X90106204Y-90439095D01*
X90109804Y-90414827D01*
X90115765Y-90391028D01*
X90124030Y-90367929D01*
X90134520Y-90345750D01*
X90147132Y-90324707D01*
X90161747Y-90305001D01*
X90178223Y-90286823D01*
X90196401Y-90270347D01*
X90216107Y-90255732D01*
X90237150Y-90243120D01*
X90259329Y-90232630D01*
X90282428Y-90224365D01*
X90306227Y-90218404D01*
X90330495Y-90214804D01*
X90354999Y-90213600D01*
X91255001Y-90213600D01*
X91279505Y-90214804D01*
X91279505Y-90214804D01*
G37*
D13*
X90805000Y-90788600D03*
D12*
G36*
X91279505Y-88164804D02*
G01*
X91303773Y-88168404D01*
X91327572Y-88174365D01*
X91350671Y-88182630D01*
X91372850Y-88193120D01*
X91393893Y-88205732D01*
X91413599Y-88220347D01*
X91431777Y-88236823D01*
X91448253Y-88255001D01*
X91462868Y-88274707D01*
X91475480Y-88295750D01*
X91485970Y-88317929D01*
X91494235Y-88341028D01*
X91500196Y-88364827D01*
X91503796Y-88389095D01*
X91505000Y-88413599D01*
X91505000Y-89063601D01*
X91503796Y-89088105D01*
X91500196Y-89112373D01*
X91494235Y-89136172D01*
X91485970Y-89159271D01*
X91475480Y-89181450D01*
X91462868Y-89202493D01*
X91448253Y-89222199D01*
X91431777Y-89240377D01*
X91413599Y-89256853D01*
X91393893Y-89271468D01*
X91372850Y-89284080D01*
X91350671Y-89294570D01*
X91327572Y-89302835D01*
X91303773Y-89308796D01*
X91279505Y-89312396D01*
X91255001Y-89313600D01*
X90354999Y-89313600D01*
X90330495Y-89312396D01*
X90306227Y-89308796D01*
X90282428Y-89302835D01*
X90259329Y-89294570D01*
X90237150Y-89284080D01*
X90216107Y-89271468D01*
X90196401Y-89256853D01*
X90178223Y-89240377D01*
X90161747Y-89222199D01*
X90147132Y-89202493D01*
X90134520Y-89181450D01*
X90124030Y-89159271D01*
X90115765Y-89136172D01*
X90109804Y-89112373D01*
X90106204Y-89088105D01*
X90105000Y-89063601D01*
X90105000Y-88413599D01*
X90106204Y-88389095D01*
X90109804Y-88364827D01*
X90115765Y-88341028D01*
X90124030Y-88317929D01*
X90134520Y-88295750D01*
X90147132Y-88274707D01*
X90161747Y-88255001D01*
X90178223Y-88236823D01*
X90196401Y-88220347D01*
X90216107Y-88205732D01*
X90237150Y-88193120D01*
X90259329Y-88182630D01*
X90282428Y-88174365D01*
X90306227Y-88168404D01*
X90330495Y-88164804D01*
X90354999Y-88163600D01*
X91255001Y-88163600D01*
X91279505Y-88164804D01*
X91279505Y-88164804D01*
G37*
D13*
X90805000Y-88738600D03*
D12*
G36*
X89247505Y-88164804D02*
G01*
X89271773Y-88168404D01*
X89295572Y-88174365D01*
X89318671Y-88182630D01*
X89340850Y-88193120D01*
X89361893Y-88205732D01*
X89381599Y-88220347D01*
X89399777Y-88236823D01*
X89416253Y-88255001D01*
X89430868Y-88274707D01*
X89443480Y-88295750D01*
X89453970Y-88317929D01*
X89462235Y-88341028D01*
X89468196Y-88364827D01*
X89471796Y-88389095D01*
X89473000Y-88413599D01*
X89473000Y-89063601D01*
X89471796Y-89088105D01*
X89468196Y-89112373D01*
X89462235Y-89136172D01*
X89453970Y-89159271D01*
X89443480Y-89181450D01*
X89430868Y-89202493D01*
X89416253Y-89222199D01*
X89399777Y-89240377D01*
X89381599Y-89256853D01*
X89361893Y-89271468D01*
X89340850Y-89284080D01*
X89318671Y-89294570D01*
X89295572Y-89302835D01*
X89271773Y-89308796D01*
X89247505Y-89312396D01*
X89223001Y-89313600D01*
X88322999Y-89313600D01*
X88298495Y-89312396D01*
X88274227Y-89308796D01*
X88250428Y-89302835D01*
X88227329Y-89294570D01*
X88205150Y-89284080D01*
X88184107Y-89271468D01*
X88164401Y-89256853D01*
X88146223Y-89240377D01*
X88129747Y-89222199D01*
X88115132Y-89202493D01*
X88102520Y-89181450D01*
X88092030Y-89159271D01*
X88083765Y-89136172D01*
X88077804Y-89112373D01*
X88074204Y-89088105D01*
X88073000Y-89063601D01*
X88073000Y-88413599D01*
X88074204Y-88389095D01*
X88077804Y-88364827D01*
X88083765Y-88341028D01*
X88092030Y-88317929D01*
X88102520Y-88295750D01*
X88115132Y-88274707D01*
X88129747Y-88255001D01*
X88146223Y-88236823D01*
X88164401Y-88220347D01*
X88184107Y-88205732D01*
X88205150Y-88193120D01*
X88227329Y-88182630D01*
X88250428Y-88174365D01*
X88274227Y-88168404D01*
X88298495Y-88164804D01*
X88322999Y-88163600D01*
X89223001Y-88163600D01*
X89247505Y-88164804D01*
X89247505Y-88164804D01*
G37*
D13*
X88773000Y-88738600D03*
D12*
G36*
X89247505Y-90214804D02*
G01*
X89271773Y-90218404D01*
X89295572Y-90224365D01*
X89318671Y-90232630D01*
X89340850Y-90243120D01*
X89361893Y-90255732D01*
X89381599Y-90270347D01*
X89399777Y-90286823D01*
X89416253Y-90305001D01*
X89430868Y-90324707D01*
X89443480Y-90345750D01*
X89453970Y-90367929D01*
X89462235Y-90391028D01*
X89468196Y-90414827D01*
X89471796Y-90439095D01*
X89473000Y-90463599D01*
X89473000Y-91113601D01*
X89471796Y-91138105D01*
X89468196Y-91162373D01*
X89462235Y-91186172D01*
X89453970Y-91209271D01*
X89443480Y-91231450D01*
X89430868Y-91252493D01*
X89416253Y-91272199D01*
X89399777Y-91290377D01*
X89381599Y-91306853D01*
X89361893Y-91321468D01*
X89340850Y-91334080D01*
X89318671Y-91344570D01*
X89295572Y-91352835D01*
X89271773Y-91358796D01*
X89247505Y-91362396D01*
X89223001Y-91363600D01*
X88322999Y-91363600D01*
X88298495Y-91362396D01*
X88274227Y-91358796D01*
X88250428Y-91352835D01*
X88227329Y-91344570D01*
X88205150Y-91334080D01*
X88184107Y-91321468D01*
X88164401Y-91306853D01*
X88146223Y-91290377D01*
X88129747Y-91272199D01*
X88115132Y-91252493D01*
X88102520Y-91231450D01*
X88092030Y-91209271D01*
X88083765Y-91186172D01*
X88077804Y-91162373D01*
X88074204Y-91138105D01*
X88073000Y-91113601D01*
X88073000Y-90463599D01*
X88074204Y-90439095D01*
X88077804Y-90414827D01*
X88083765Y-90391028D01*
X88092030Y-90367929D01*
X88102520Y-90345750D01*
X88115132Y-90324707D01*
X88129747Y-90305001D01*
X88146223Y-90286823D01*
X88164401Y-90270347D01*
X88184107Y-90255732D01*
X88205150Y-90243120D01*
X88227329Y-90232630D01*
X88250428Y-90224365D01*
X88274227Y-90218404D01*
X88298495Y-90214804D01*
X88322999Y-90213600D01*
X89223001Y-90213600D01*
X89247505Y-90214804D01*
X89247505Y-90214804D01*
G37*
D13*
X88773000Y-90788600D03*
D12*
G36*
X69433805Y-92519204D02*
G01*
X69458073Y-92522804D01*
X69481872Y-92528765D01*
X69504971Y-92537030D01*
X69527150Y-92547520D01*
X69548193Y-92560132D01*
X69567899Y-92574747D01*
X69586077Y-92591223D01*
X69602553Y-92609401D01*
X69617168Y-92629107D01*
X69629780Y-92650150D01*
X69640270Y-92672329D01*
X69648535Y-92695428D01*
X69654496Y-92719227D01*
X69658096Y-92743495D01*
X69659300Y-92767999D01*
X69659300Y-93668001D01*
X69658096Y-93692505D01*
X69654496Y-93716773D01*
X69648535Y-93740572D01*
X69640270Y-93763671D01*
X69629780Y-93785850D01*
X69617168Y-93806893D01*
X69602553Y-93826599D01*
X69586077Y-93844777D01*
X69567899Y-93861253D01*
X69548193Y-93875868D01*
X69527150Y-93888480D01*
X69504971Y-93898970D01*
X69481872Y-93907235D01*
X69458073Y-93913196D01*
X69433805Y-93916796D01*
X69409301Y-93918000D01*
X68759299Y-93918000D01*
X68734795Y-93916796D01*
X68710527Y-93913196D01*
X68686728Y-93907235D01*
X68663629Y-93898970D01*
X68641450Y-93888480D01*
X68620407Y-93875868D01*
X68600701Y-93861253D01*
X68582523Y-93844777D01*
X68566047Y-93826599D01*
X68551432Y-93806893D01*
X68538820Y-93785850D01*
X68528330Y-93763671D01*
X68520065Y-93740572D01*
X68514104Y-93716773D01*
X68510504Y-93692505D01*
X68509300Y-93668001D01*
X68509300Y-92767999D01*
X68510504Y-92743495D01*
X68514104Y-92719227D01*
X68520065Y-92695428D01*
X68528330Y-92672329D01*
X68538820Y-92650150D01*
X68551432Y-92629107D01*
X68566047Y-92609401D01*
X68582523Y-92591223D01*
X68600701Y-92574747D01*
X68620407Y-92560132D01*
X68641450Y-92547520D01*
X68663629Y-92537030D01*
X68686728Y-92528765D01*
X68710527Y-92522804D01*
X68734795Y-92519204D01*
X68759299Y-92518000D01*
X69409301Y-92518000D01*
X69433805Y-92519204D01*
X69433805Y-92519204D01*
G37*
D13*
X69084300Y-93218000D03*
D12*
G36*
X67383805Y-92519204D02*
G01*
X67408073Y-92522804D01*
X67431872Y-92528765D01*
X67454971Y-92537030D01*
X67477150Y-92547520D01*
X67498193Y-92560132D01*
X67517899Y-92574747D01*
X67536077Y-92591223D01*
X67552553Y-92609401D01*
X67567168Y-92629107D01*
X67579780Y-92650150D01*
X67590270Y-92672329D01*
X67598535Y-92695428D01*
X67604496Y-92719227D01*
X67608096Y-92743495D01*
X67609300Y-92767999D01*
X67609300Y-93668001D01*
X67608096Y-93692505D01*
X67604496Y-93716773D01*
X67598535Y-93740572D01*
X67590270Y-93763671D01*
X67579780Y-93785850D01*
X67567168Y-93806893D01*
X67552553Y-93826599D01*
X67536077Y-93844777D01*
X67517899Y-93861253D01*
X67498193Y-93875868D01*
X67477150Y-93888480D01*
X67454971Y-93898970D01*
X67431872Y-93907235D01*
X67408073Y-93913196D01*
X67383805Y-93916796D01*
X67359301Y-93918000D01*
X66709299Y-93918000D01*
X66684795Y-93916796D01*
X66660527Y-93913196D01*
X66636728Y-93907235D01*
X66613629Y-93898970D01*
X66591450Y-93888480D01*
X66570407Y-93875868D01*
X66550701Y-93861253D01*
X66532523Y-93844777D01*
X66516047Y-93826599D01*
X66501432Y-93806893D01*
X66488820Y-93785850D01*
X66478330Y-93763671D01*
X66470065Y-93740572D01*
X66464104Y-93716773D01*
X66460504Y-93692505D01*
X66459300Y-93668001D01*
X66459300Y-92767999D01*
X66460504Y-92743495D01*
X66464104Y-92719227D01*
X66470065Y-92695428D01*
X66478330Y-92672329D01*
X66488820Y-92650150D01*
X66501432Y-92629107D01*
X66516047Y-92609401D01*
X66532523Y-92591223D01*
X66550701Y-92574747D01*
X66570407Y-92560132D01*
X66591450Y-92547520D01*
X66613629Y-92537030D01*
X66636728Y-92528765D01*
X66660527Y-92522804D01*
X66684795Y-92519204D01*
X66709299Y-92518000D01*
X67359301Y-92518000D01*
X67383805Y-92519204D01*
X67383805Y-92519204D01*
G37*
D13*
X67034300Y-93218000D03*
D12*
G36*
X57089405Y-93878104D02*
G01*
X57113673Y-93881704D01*
X57137472Y-93887665D01*
X57160571Y-93895930D01*
X57182750Y-93906420D01*
X57203793Y-93919032D01*
X57223499Y-93933647D01*
X57241677Y-93950123D01*
X57258153Y-93968301D01*
X57272768Y-93988007D01*
X57285380Y-94009050D01*
X57295870Y-94031229D01*
X57304135Y-94054328D01*
X57310096Y-94078127D01*
X57313696Y-94102395D01*
X57314900Y-94126899D01*
X57314900Y-95026901D01*
X57313696Y-95051405D01*
X57310096Y-95075673D01*
X57304135Y-95099472D01*
X57295870Y-95122571D01*
X57285380Y-95144750D01*
X57272768Y-95165793D01*
X57258153Y-95185499D01*
X57241677Y-95203677D01*
X57223499Y-95220153D01*
X57203793Y-95234768D01*
X57182750Y-95247380D01*
X57160571Y-95257870D01*
X57137472Y-95266135D01*
X57113673Y-95272096D01*
X57089405Y-95275696D01*
X57064901Y-95276900D01*
X56414899Y-95276900D01*
X56390395Y-95275696D01*
X56366127Y-95272096D01*
X56342328Y-95266135D01*
X56319229Y-95257870D01*
X56297050Y-95247380D01*
X56276007Y-95234768D01*
X56256301Y-95220153D01*
X56238123Y-95203677D01*
X56221647Y-95185499D01*
X56207032Y-95165793D01*
X56194420Y-95144750D01*
X56183930Y-95122571D01*
X56175665Y-95099472D01*
X56169704Y-95075673D01*
X56166104Y-95051405D01*
X56164900Y-95026901D01*
X56164900Y-94126899D01*
X56166104Y-94102395D01*
X56169704Y-94078127D01*
X56175665Y-94054328D01*
X56183930Y-94031229D01*
X56194420Y-94009050D01*
X56207032Y-93988007D01*
X56221647Y-93968301D01*
X56238123Y-93950123D01*
X56256301Y-93933647D01*
X56276007Y-93919032D01*
X56297050Y-93906420D01*
X56319229Y-93895930D01*
X56342328Y-93887665D01*
X56366127Y-93881704D01*
X56390395Y-93878104D01*
X56414899Y-93876900D01*
X57064901Y-93876900D01*
X57089405Y-93878104D01*
X57089405Y-93878104D01*
G37*
D13*
X56739900Y-94576900D03*
D12*
G36*
X55039405Y-93878104D02*
G01*
X55063673Y-93881704D01*
X55087472Y-93887665D01*
X55110571Y-93895930D01*
X55132750Y-93906420D01*
X55153793Y-93919032D01*
X55173499Y-93933647D01*
X55191677Y-93950123D01*
X55208153Y-93968301D01*
X55222768Y-93988007D01*
X55235380Y-94009050D01*
X55245870Y-94031229D01*
X55254135Y-94054328D01*
X55260096Y-94078127D01*
X55263696Y-94102395D01*
X55264900Y-94126899D01*
X55264900Y-95026901D01*
X55263696Y-95051405D01*
X55260096Y-95075673D01*
X55254135Y-95099472D01*
X55245870Y-95122571D01*
X55235380Y-95144750D01*
X55222768Y-95165793D01*
X55208153Y-95185499D01*
X55191677Y-95203677D01*
X55173499Y-95220153D01*
X55153793Y-95234768D01*
X55132750Y-95247380D01*
X55110571Y-95257870D01*
X55087472Y-95266135D01*
X55063673Y-95272096D01*
X55039405Y-95275696D01*
X55014901Y-95276900D01*
X54364899Y-95276900D01*
X54340395Y-95275696D01*
X54316127Y-95272096D01*
X54292328Y-95266135D01*
X54269229Y-95257870D01*
X54247050Y-95247380D01*
X54226007Y-95234768D01*
X54206301Y-95220153D01*
X54188123Y-95203677D01*
X54171647Y-95185499D01*
X54157032Y-95165793D01*
X54144420Y-95144750D01*
X54133930Y-95122571D01*
X54125665Y-95099472D01*
X54119704Y-95075673D01*
X54116104Y-95051405D01*
X54114900Y-95026901D01*
X54114900Y-94126899D01*
X54116104Y-94102395D01*
X54119704Y-94078127D01*
X54125665Y-94054328D01*
X54133930Y-94031229D01*
X54144420Y-94009050D01*
X54157032Y-93988007D01*
X54171647Y-93968301D01*
X54188123Y-93950123D01*
X54206301Y-93933647D01*
X54226007Y-93919032D01*
X54247050Y-93906420D01*
X54269229Y-93895930D01*
X54292328Y-93887665D01*
X54316127Y-93881704D01*
X54340395Y-93878104D01*
X54364899Y-93876900D01*
X55014901Y-93876900D01*
X55039405Y-93878104D01*
X55039405Y-93878104D01*
G37*
D13*
X54689900Y-94576900D03*
D16*
X59143400Y-86584000D03*
X59143400Y-87234000D03*
X59143400Y-87884000D03*
X59143400Y-88534000D03*
X59143400Y-89184000D03*
D17*
X58783400Y-85421500D03*
X58783400Y-90346500D03*
D18*
X56483400Y-84974000D03*
X56483400Y-90794000D03*
D19*
X56483400Y-87044000D03*
X56483400Y-88724000D03*
D12*
G36*
X88034005Y-93332004D02*
G01*
X88058273Y-93335604D01*
X88082072Y-93341565D01*
X88105171Y-93349830D01*
X88127350Y-93360320D01*
X88148393Y-93372932D01*
X88168099Y-93387547D01*
X88186277Y-93404023D01*
X88202753Y-93422201D01*
X88217368Y-93441907D01*
X88229980Y-93462950D01*
X88240470Y-93485129D01*
X88248735Y-93508228D01*
X88254696Y-93532027D01*
X88258296Y-93556295D01*
X88259500Y-93580799D01*
X88259500Y-94480801D01*
X88258296Y-94505305D01*
X88254696Y-94529573D01*
X88248735Y-94553372D01*
X88240470Y-94576471D01*
X88229980Y-94598650D01*
X88217368Y-94619693D01*
X88202753Y-94639399D01*
X88186277Y-94657577D01*
X88168099Y-94674053D01*
X88148393Y-94688668D01*
X88127350Y-94701280D01*
X88105171Y-94711770D01*
X88082072Y-94720035D01*
X88058273Y-94725996D01*
X88034005Y-94729596D01*
X88009501Y-94730800D01*
X87359499Y-94730800D01*
X87334995Y-94729596D01*
X87310727Y-94725996D01*
X87286928Y-94720035D01*
X87263829Y-94711770D01*
X87241650Y-94701280D01*
X87220607Y-94688668D01*
X87200901Y-94674053D01*
X87182723Y-94657577D01*
X87166247Y-94639399D01*
X87151632Y-94619693D01*
X87139020Y-94598650D01*
X87128530Y-94576471D01*
X87120265Y-94553372D01*
X87114304Y-94529573D01*
X87110704Y-94505305D01*
X87109500Y-94480801D01*
X87109500Y-93580799D01*
X87110704Y-93556295D01*
X87114304Y-93532027D01*
X87120265Y-93508228D01*
X87128530Y-93485129D01*
X87139020Y-93462950D01*
X87151632Y-93441907D01*
X87166247Y-93422201D01*
X87182723Y-93404023D01*
X87200901Y-93387547D01*
X87220607Y-93372932D01*
X87241650Y-93360320D01*
X87263829Y-93349830D01*
X87286928Y-93341565D01*
X87310727Y-93335604D01*
X87334995Y-93332004D01*
X87359499Y-93330800D01*
X88009501Y-93330800D01*
X88034005Y-93332004D01*
X88034005Y-93332004D01*
G37*
D13*
X87684500Y-94030800D03*
D12*
G36*
X90084005Y-93332004D02*
G01*
X90108273Y-93335604D01*
X90132072Y-93341565D01*
X90155171Y-93349830D01*
X90177350Y-93360320D01*
X90198393Y-93372932D01*
X90218099Y-93387547D01*
X90236277Y-93404023D01*
X90252753Y-93422201D01*
X90267368Y-93441907D01*
X90279980Y-93462950D01*
X90290470Y-93485129D01*
X90298735Y-93508228D01*
X90304696Y-93532027D01*
X90308296Y-93556295D01*
X90309500Y-93580799D01*
X90309500Y-94480801D01*
X90308296Y-94505305D01*
X90304696Y-94529573D01*
X90298735Y-94553372D01*
X90290470Y-94576471D01*
X90279980Y-94598650D01*
X90267368Y-94619693D01*
X90252753Y-94639399D01*
X90236277Y-94657577D01*
X90218099Y-94674053D01*
X90198393Y-94688668D01*
X90177350Y-94701280D01*
X90155171Y-94711770D01*
X90132072Y-94720035D01*
X90108273Y-94725996D01*
X90084005Y-94729596D01*
X90059501Y-94730800D01*
X89409499Y-94730800D01*
X89384995Y-94729596D01*
X89360727Y-94725996D01*
X89336928Y-94720035D01*
X89313829Y-94711770D01*
X89291650Y-94701280D01*
X89270607Y-94688668D01*
X89250901Y-94674053D01*
X89232723Y-94657577D01*
X89216247Y-94639399D01*
X89201632Y-94619693D01*
X89189020Y-94598650D01*
X89178530Y-94576471D01*
X89170265Y-94553372D01*
X89164304Y-94529573D01*
X89160704Y-94505305D01*
X89159500Y-94480801D01*
X89159500Y-93580799D01*
X89160704Y-93556295D01*
X89164304Y-93532027D01*
X89170265Y-93508228D01*
X89178530Y-93485129D01*
X89189020Y-93462950D01*
X89201632Y-93441907D01*
X89216247Y-93422201D01*
X89232723Y-93404023D01*
X89250901Y-93387547D01*
X89270607Y-93372932D01*
X89291650Y-93360320D01*
X89313829Y-93349830D01*
X89336928Y-93341565D01*
X89360727Y-93335604D01*
X89384995Y-93332004D01*
X89409499Y-93330800D01*
X90059501Y-93330800D01*
X90084005Y-93332004D01*
X90084005Y-93332004D01*
G37*
D13*
X89734500Y-94030800D03*
D20*
X63169400Y-81723200D03*
X63169400Y-84023200D03*
X63169400Y-86323200D03*
D21*
X69469400Y-84023200D03*
D12*
G36*
X57025905Y-80276404D02*
G01*
X57050173Y-80280004D01*
X57073972Y-80285965D01*
X57097071Y-80294230D01*
X57119250Y-80304720D01*
X57140293Y-80317332D01*
X57159999Y-80331947D01*
X57178177Y-80348423D01*
X57194653Y-80366601D01*
X57209268Y-80386307D01*
X57221880Y-80407350D01*
X57232370Y-80429529D01*
X57240635Y-80452628D01*
X57246596Y-80476427D01*
X57250196Y-80500695D01*
X57251400Y-80525199D01*
X57251400Y-81425201D01*
X57250196Y-81449705D01*
X57246596Y-81473973D01*
X57240635Y-81497772D01*
X57232370Y-81520871D01*
X57221880Y-81543050D01*
X57209268Y-81564093D01*
X57194653Y-81583799D01*
X57178177Y-81601977D01*
X57159999Y-81618453D01*
X57140293Y-81633068D01*
X57119250Y-81645680D01*
X57097071Y-81656170D01*
X57073972Y-81664435D01*
X57050173Y-81670396D01*
X57025905Y-81673996D01*
X57001401Y-81675200D01*
X56351399Y-81675200D01*
X56326895Y-81673996D01*
X56302627Y-81670396D01*
X56278828Y-81664435D01*
X56255729Y-81656170D01*
X56233550Y-81645680D01*
X56212507Y-81633068D01*
X56192801Y-81618453D01*
X56174623Y-81601977D01*
X56158147Y-81583799D01*
X56143532Y-81564093D01*
X56130920Y-81543050D01*
X56120430Y-81520871D01*
X56112165Y-81497772D01*
X56106204Y-81473973D01*
X56102604Y-81449705D01*
X56101400Y-81425201D01*
X56101400Y-80525199D01*
X56102604Y-80500695D01*
X56106204Y-80476427D01*
X56112165Y-80452628D01*
X56120430Y-80429529D01*
X56130920Y-80407350D01*
X56143532Y-80386307D01*
X56158147Y-80366601D01*
X56174623Y-80348423D01*
X56192801Y-80331947D01*
X56212507Y-80317332D01*
X56233550Y-80304720D01*
X56255729Y-80294230D01*
X56278828Y-80285965D01*
X56302627Y-80280004D01*
X56326895Y-80276404D01*
X56351399Y-80275200D01*
X57001401Y-80275200D01*
X57025905Y-80276404D01*
X57025905Y-80276404D01*
G37*
D13*
X56676400Y-80975200D03*
D12*
G36*
X54975905Y-80276404D02*
G01*
X55000173Y-80280004D01*
X55023972Y-80285965D01*
X55047071Y-80294230D01*
X55069250Y-80304720D01*
X55090293Y-80317332D01*
X55109999Y-80331947D01*
X55128177Y-80348423D01*
X55144653Y-80366601D01*
X55159268Y-80386307D01*
X55171880Y-80407350D01*
X55182370Y-80429529D01*
X55190635Y-80452628D01*
X55196596Y-80476427D01*
X55200196Y-80500695D01*
X55201400Y-80525199D01*
X55201400Y-81425201D01*
X55200196Y-81449705D01*
X55196596Y-81473973D01*
X55190635Y-81497772D01*
X55182370Y-81520871D01*
X55171880Y-81543050D01*
X55159268Y-81564093D01*
X55144653Y-81583799D01*
X55128177Y-81601977D01*
X55109999Y-81618453D01*
X55090293Y-81633068D01*
X55069250Y-81645680D01*
X55047071Y-81656170D01*
X55023972Y-81664435D01*
X55000173Y-81670396D01*
X54975905Y-81673996D01*
X54951401Y-81675200D01*
X54301399Y-81675200D01*
X54276895Y-81673996D01*
X54252627Y-81670396D01*
X54228828Y-81664435D01*
X54205729Y-81656170D01*
X54183550Y-81645680D01*
X54162507Y-81633068D01*
X54142801Y-81618453D01*
X54124623Y-81601977D01*
X54108147Y-81583799D01*
X54093532Y-81564093D01*
X54080920Y-81543050D01*
X54070430Y-81520871D01*
X54062165Y-81497772D01*
X54056204Y-81473973D01*
X54052604Y-81449705D01*
X54051400Y-81425201D01*
X54051400Y-80525199D01*
X54052604Y-80500695D01*
X54056204Y-80476427D01*
X54062165Y-80452628D01*
X54070430Y-80429529D01*
X54080920Y-80407350D01*
X54093532Y-80386307D01*
X54108147Y-80366601D01*
X54124623Y-80348423D01*
X54142801Y-80331947D01*
X54162507Y-80317332D01*
X54183550Y-80304720D01*
X54205729Y-80294230D01*
X54228828Y-80285965D01*
X54252627Y-80280004D01*
X54276895Y-80276404D01*
X54301399Y-80275200D01*
X54951401Y-80275200D01*
X54975905Y-80276404D01*
X54975905Y-80276404D01*
G37*
D13*
X54626400Y-80975200D03*
D12*
G36*
X58849405Y-93852704D02*
G01*
X58873673Y-93856304D01*
X58897472Y-93862265D01*
X58920571Y-93870530D01*
X58942750Y-93881020D01*
X58963793Y-93893632D01*
X58983499Y-93908247D01*
X59001677Y-93924723D01*
X59018153Y-93942901D01*
X59032768Y-93962607D01*
X59045380Y-93983650D01*
X59055870Y-94005829D01*
X59064135Y-94028928D01*
X59070096Y-94052727D01*
X59073696Y-94076995D01*
X59074900Y-94101499D01*
X59074900Y-95001501D01*
X59073696Y-95026005D01*
X59070096Y-95050273D01*
X59064135Y-95074072D01*
X59055870Y-95097171D01*
X59045380Y-95119350D01*
X59032768Y-95140393D01*
X59018153Y-95160099D01*
X59001677Y-95178277D01*
X58983499Y-95194753D01*
X58963793Y-95209368D01*
X58942750Y-95221980D01*
X58920571Y-95232470D01*
X58897472Y-95240735D01*
X58873673Y-95246696D01*
X58849405Y-95250296D01*
X58824901Y-95251500D01*
X58174899Y-95251500D01*
X58150395Y-95250296D01*
X58126127Y-95246696D01*
X58102328Y-95240735D01*
X58079229Y-95232470D01*
X58057050Y-95221980D01*
X58036007Y-95209368D01*
X58016301Y-95194753D01*
X57998123Y-95178277D01*
X57981647Y-95160099D01*
X57967032Y-95140393D01*
X57954420Y-95119350D01*
X57943930Y-95097171D01*
X57935665Y-95074072D01*
X57929704Y-95050273D01*
X57926104Y-95026005D01*
X57924900Y-95001501D01*
X57924900Y-94101499D01*
X57926104Y-94076995D01*
X57929704Y-94052727D01*
X57935665Y-94028928D01*
X57943930Y-94005829D01*
X57954420Y-93983650D01*
X57967032Y-93962607D01*
X57981647Y-93942901D01*
X57998123Y-93924723D01*
X58016301Y-93908247D01*
X58036007Y-93893632D01*
X58057050Y-93881020D01*
X58079229Y-93870530D01*
X58102328Y-93862265D01*
X58126127Y-93856304D01*
X58150395Y-93852704D01*
X58174899Y-93851500D01*
X58824901Y-93851500D01*
X58849405Y-93852704D01*
X58849405Y-93852704D01*
G37*
D13*
X58499900Y-94551500D03*
D12*
G36*
X60899405Y-93852704D02*
G01*
X60923673Y-93856304D01*
X60947472Y-93862265D01*
X60970571Y-93870530D01*
X60992750Y-93881020D01*
X61013793Y-93893632D01*
X61033499Y-93908247D01*
X61051677Y-93924723D01*
X61068153Y-93942901D01*
X61082768Y-93962607D01*
X61095380Y-93983650D01*
X61105870Y-94005829D01*
X61114135Y-94028928D01*
X61120096Y-94052727D01*
X61123696Y-94076995D01*
X61124900Y-94101499D01*
X61124900Y-95001501D01*
X61123696Y-95026005D01*
X61120096Y-95050273D01*
X61114135Y-95074072D01*
X61105870Y-95097171D01*
X61095380Y-95119350D01*
X61082768Y-95140393D01*
X61068153Y-95160099D01*
X61051677Y-95178277D01*
X61033499Y-95194753D01*
X61013793Y-95209368D01*
X60992750Y-95221980D01*
X60970571Y-95232470D01*
X60947472Y-95240735D01*
X60923673Y-95246696D01*
X60899405Y-95250296D01*
X60874901Y-95251500D01*
X60224899Y-95251500D01*
X60200395Y-95250296D01*
X60176127Y-95246696D01*
X60152328Y-95240735D01*
X60129229Y-95232470D01*
X60107050Y-95221980D01*
X60086007Y-95209368D01*
X60066301Y-95194753D01*
X60048123Y-95178277D01*
X60031647Y-95160099D01*
X60017032Y-95140393D01*
X60004420Y-95119350D01*
X59993930Y-95097171D01*
X59985665Y-95074072D01*
X59979704Y-95050273D01*
X59976104Y-95026005D01*
X59974900Y-95001501D01*
X59974900Y-94101499D01*
X59976104Y-94076995D01*
X59979704Y-94052727D01*
X59985665Y-94028928D01*
X59993930Y-94005829D01*
X60004420Y-93983650D01*
X60017032Y-93962607D01*
X60031647Y-93942901D01*
X60048123Y-93924723D01*
X60066301Y-93908247D01*
X60086007Y-93893632D01*
X60107050Y-93881020D01*
X60129229Y-93870530D01*
X60152328Y-93862265D01*
X60176127Y-93856304D01*
X60200395Y-93852704D01*
X60224899Y-93851500D01*
X60874901Y-93851500D01*
X60899405Y-93852704D01*
X60899405Y-93852704D01*
G37*
D13*
X60549900Y-94551500D03*
D12*
G36*
X57000505Y-78168204D02*
G01*
X57024773Y-78171804D01*
X57048572Y-78177765D01*
X57071671Y-78186030D01*
X57093850Y-78196520D01*
X57114893Y-78209132D01*
X57134599Y-78223747D01*
X57152777Y-78240223D01*
X57169253Y-78258401D01*
X57183868Y-78278107D01*
X57196480Y-78299150D01*
X57206970Y-78321329D01*
X57215235Y-78344428D01*
X57221196Y-78368227D01*
X57224796Y-78392495D01*
X57226000Y-78416999D01*
X57226000Y-79317001D01*
X57224796Y-79341505D01*
X57221196Y-79365773D01*
X57215235Y-79389572D01*
X57206970Y-79412671D01*
X57196480Y-79434850D01*
X57183868Y-79455893D01*
X57169253Y-79475599D01*
X57152777Y-79493777D01*
X57134599Y-79510253D01*
X57114893Y-79524868D01*
X57093850Y-79537480D01*
X57071671Y-79547970D01*
X57048572Y-79556235D01*
X57024773Y-79562196D01*
X57000505Y-79565796D01*
X56976001Y-79567000D01*
X56325999Y-79567000D01*
X56301495Y-79565796D01*
X56277227Y-79562196D01*
X56253428Y-79556235D01*
X56230329Y-79547970D01*
X56208150Y-79537480D01*
X56187107Y-79524868D01*
X56167401Y-79510253D01*
X56149223Y-79493777D01*
X56132747Y-79475599D01*
X56118132Y-79455893D01*
X56105520Y-79434850D01*
X56095030Y-79412671D01*
X56086765Y-79389572D01*
X56080804Y-79365773D01*
X56077204Y-79341505D01*
X56076000Y-79317001D01*
X56076000Y-78416999D01*
X56077204Y-78392495D01*
X56080804Y-78368227D01*
X56086765Y-78344428D01*
X56095030Y-78321329D01*
X56105520Y-78299150D01*
X56118132Y-78278107D01*
X56132747Y-78258401D01*
X56149223Y-78240223D01*
X56167401Y-78223747D01*
X56187107Y-78209132D01*
X56208150Y-78196520D01*
X56230329Y-78186030D01*
X56253428Y-78177765D01*
X56277227Y-78171804D01*
X56301495Y-78168204D01*
X56325999Y-78167000D01*
X56976001Y-78167000D01*
X57000505Y-78168204D01*
X57000505Y-78168204D01*
G37*
D13*
X56651000Y-78867000D03*
D12*
G36*
X54950505Y-78168204D02*
G01*
X54974773Y-78171804D01*
X54998572Y-78177765D01*
X55021671Y-78186030D01*
X55043850Y-78196520D01*
X55064893Y-78209132D01*
X55084599Y-78223747D01*
X55102777Y-78240223D01*
X55119253Y-78258401D01*
X55133868Y-78278107D01*
X55146480Y-78299150D01*
X55156970Y-78321329D01*
X55165235Y-78344428D01*
X55171196Y-78368227D01*
X55174796Y-78392495D01*
X55176000Y-78416999D01*
X55176000Y-79317001D01*
X55174796Y-79341505D01*
X55171196Y-79365773D01*
X55165235Y-79389572D01*
X55156970Y-79412671D01*
X55146480Y-79434850D01*
X55133868Y-79455893D01*
X55119253Y-79475599D01*
X55102777Y-79493777D01*
X55084599Y-79510253D01*
X55064893Y-79524868D01*
X55043850Y-79537480D01*
X55021671Y-79547970D01*
X54998572Y-79556235D01*
X54974773Y-79562196D01*
X54950505Y-79565796D01*
X54926001Y-79567000D01*
X54275999Y-79567000D01*
X54251495Y-79565796D01*
X54227227Y-79562196D01*
X54203428Y-79556235D01*
X54180329Y-79547970D01*
X54158150Y-79537480D01*
X54137107Y-79524868D01*
X54117401Y-79510253D01*
X54099223Y-79493777D01*
X54082747Y-79475599D01*
X54068132Y-79455893D01*
X54055520Y-79434850D01*
X54045030Y-79412671D01*
X54036765Y-79389572D01*
X54030804Y-79365773D01*
X54027204Y-79341505D01*
X54026000Y-79317001D01*
X54026000Y-78416999D01*
X54027204Y-78392495D01*
X54030804Y-78368227D01*
X54036765Y-78344428D01*
X54045030Y-78321329D01*
X54055520Y-78299150D01*
X54068132Y-78278107D01*
X54082747Y-78258401D01*
X54099223Y-78240223D01*
X54117401Y-78223747D01*
X54137107Y-78209132D01*
X54158150Y-78196520D01*
X54180329Y-78186030D01*
X54203428Y-78177765D01*
X54227227Y-78171804D01*
X54251495Y-78168204D01*
X54275999Y-78167000D01*
X54926001Y-78167000D01*
X54950505Y-78168204D01*
X54950505Y-78168204D01*
G37*
D13*
X54601000Y-78867000D03*
M02*
